<?xml version="1.0" encoding="utf-8"?>
<!-- Generator: Adobe Illustrator 24.0.0, SVG Export Plug-In . SVG Version: 6.00 Build 0)  -->
<svg version="1.1" xmlns="http://www.w3.org/2000/svg" xmlns:xlink="http://www.w3.org/1999/xlink" x="0px" y="0px"
	 viewBox="0 0 167 167" style="enable-background:new 0 0 167 167;" xml:space="preserve">
<style type="text/css">
	.st0{fill:#00CC99;}
	.st1{fill:#FFFFFF;}
	.st2{fill:#E0E0E0;}
</style>
<g id="Favicon">
	<g>
		<path class="st0" d="M155.3,160.1H12.8c-2.6,0-4.7-2.1-4.7-4.7V12.9c0-2.6,2.1-4.7,4.7-4.7h142.5c2.6,0,4.7,2.1,4.7,4.7v142.5
			C160,158,157.9,160.1,155.3,160.1z"/>
		<path class="st1" d="M92.7,56.6L78.2,131c-0.4,1.9-2.1,3.3-4,3.3h-14c-2.6,0-4.5-2.4-4-4.9L70,58.1c0.5-2.5-1.5-4.9-4-4.9h-8.4
			c-2.6,0-4.5-2.4-4-4.9l2.2-11.1c0.4-1.9,2.1-3.3,4-3.3h50.8c2.6,0,4.5,2.4,4,4.9l-2.2,11.1c-0.4,1.9-2.1,3.3-4,3.3H96.7
			C94.7,53.3,93.1,54.6,92.7,56.6z"/>
	</g>
</g>
<g id="Regular">
</g>
<g id="Navbar">
</g>
<g id="O">
</g>
<g id="D">
</g>
<g id="I">
</g>
<g id="V">
</g>
<g id="S">
</g>
<g id="P">
</g>
<g id="H">
</g>
<g id="T">
</g>
</svg>
