<?xml version="1.0" encoding="utf-8"?>
<!-- Generator: Adobe Illustrator 24.0.0, SVG Export Plug-In . SVG Version: 6.00 Build 0)  -->
<svg version="1.1" xmlns="http://www.w3.org/2000/svg" xmlns:xlink="http://www.w3.org/1999/xlink" x="0px" y="0px"
	 viewBox="0 0 32 32" style="enable-background:new 0 0 32 32;" xml:space="preserve">
<style type="text/css">
	.st0{fill:#00CC99;}
	.st1{fill:#FFFFFF;}
	.st2{fill:#E0E0E0;}
</style>
<g id="Favicon">
	<path class="st0" d="M27.3,32H4.7C2.1,32,0,29.9,0,27.3V4.7C0,2.1,2.1,0,4.7,0h22.5C29.9,0,32,2.1,32,4.7v22.5
		C32,29.9,29.9,32,27.3,32z"/>
	<path class="st1" d="M17.8,10.2l-3,15.7c-0.1,0.4-0.4,0.7-0.9,0.7H11c-0.5,0-1-0.5-0.9-1l2.9-15c0.1-0.5-0.3-1-0.9-1h-1.8
		c-0.5,0-1-0.5-0.9-1L10,6.1c0.1-0.4,0.4-0.7,0.9-0.7h10.7c0.5,0,1,0.5,0.9,1L22,8.8c-0.1,0.4-0.4,0.7-0.9,0.7h-2.4
		C18.3,9.5,17.9,9.8,17.8,10.2z"/>
</g>
</svg>
