<?xml version="1.0" encoding="utf-8"?>
<!-- Generator: Adobe Illustrator 24.0.0, SVG Export Plug-In . SVG Version: 6.00 Build 0)  -->
<svg version="1.1" xmlns="http://www.w3.org/2000/svg" xmlns:xlink="http://www.w3.org/1999/xlink" x="0px" y="0px"
	 viewBox="0 0 180 42" style="enable-background:new 0 0 180 42;" xml:space="preserve">
<style type="text/css">
	.st0{fill:#e0e0e0;}
	.st1{fill:#FFFFFF;}
</style>
<g id="Layer_1">
	<g>
		<path class="st0" d="M22,12.1l-5.3,22.8h-6.3l5.3-22.8h-5.2l1.3-5.4h16.6l-1.3,5.4H22z"/>
		<path class="st0" d="M32.9,23.5l-2.6,11.4h-6.3l6.5-28.2h6.3l-2.6,11.4h4l2.6-11.4h6.3l-6.5,28.2h-6.3l2.6-11.4H32.9z"/>
		<path class="st0" d="M53.9,25.1l-2.3,9.8h-6.3l6.5-28.2h10.9c2.3,0,3.7,0.4,4.3,1.2c0.6,0.8,0.7,2,0.3,3.6l-2,8.8
			c-0.4,1.6-1,2.9-2,3.6c-0.9,0.8-2.6,1.1-4.8,1.2H53.9z M55.1,19.7h3.3c0.5,0,0.8-0.2,0.9-0.7l1.4-6c0.1-0.5-0.1-0.7-0.6-0.7h-3.3
			L55.1,19.7z"/>
		<path class="st0" d="M69.8,20c-0.6-0.8-0.7-2.1-0.3-3.8l1.1-4.7c0.4-1.6,1-2.9,2-3.6c0.9-0.8,2.6-1.1,4.8-1.2h4.8
			c2.3,0,3.7,0.4,4.3,1.2c0.6,0.8,0.7,2,0.3,3.6l-1.1,4.6h-5.9l0.7-3.2c0.1-0.5-0.1-0.7-0.6-0.7h-2.8c-0.5,0-0.8,0.2-0.9,0.7
			l-0.6,2.7c-0.1,0.6,1,1.6,3.3,3c2.4,1.4,3.8,2.5,4.4,3.2c0.6,0.8,0.7,2.1,0.3,3.8l-1,4.5c-0.4,1.6-1,2.9-2,3.6
			c-1,0.8-2.6,1.1-4.8,1.2h-5.2c-2.3,0-3.7-0.4-4.3-1.2c-0.6-0.8-0.7-2-0.3-3.6l1.1-4.6h6.1l-0.7,3.2c-0.1,0.5,0.1,0.7,0.6,0.7h2.8
			c0.5,0,0.8-0.2,0.9-0.7l0.6-2.7c0.1-0.5-1-1.4-3.3-2.8C71.8,21.8,70.4,20.8,69.8,20z"/>
		<path class="st0" d="M100.4,6.7h6.3l-1.6,23.6l9.3-23.6h6.3L109,34.9H99L100.4,6.7z"/>
		<path class="st0" d="M123.2,6.7h6.3L123,34.9h-6.3L123.2,6.7z"/>
		<path class="st0" d="M127.3,34.9l6.5-28.2h10.9c2.3,0,3.7,0.4,4.3,1.2c0.6,0.8,0.7,2,0.3,3.6L145,30.1c-0.4,1.6-1,2.9-2,3.6
			c-0.9,0.8-2.6,1.1-4.8,1.2H127.3z M134.8,29.5h3.3c0.5,0,0.8-0.2,0.9-0.7l3.7-15.9c0.1-0.5-0.1-0.7-0.6-0.7h-3.3L134.8,29.5z"/>
		<path class="st0" d="M153.5,11.5c0.4-1.6,1-2.9,2-3.6c0.9-0.8,2.6-1.1,4.8-1.2h5.2c2.3,0,3.7,0.4,4.3,1.2c0.6,0.8,0.7,2,0.3,3.6
			l-4.3,18.6c-0.4,1.6-1,2.9-2,3.6c-0.9,0.8-2.6,1.1-4.8,1.2h-5.2c-2.3,0-3.7-0.4-4.3-1.2c-0.6-0.8-0.7-2-0.3-3.6L153.5,11.5z
			 M155.8,28.8c-0.1,0.5,0.1,0.7,0.5,0.7h2.6c0.5,0,0.8-0.2,0.9-0.7l3.7-15.9c0.1-0.5-0.1-0.7-0.6-0.7h-2.6c-0.5,0-0.8,0.2-0.9,0.7
			L155.8,28.8z"/>
	</g>
</g>
<g id="O">
</g>
<g id="D">
</g>
<g id="I">
</g>
<g id="V">
</g>
<g id="S">
</g>
<g id="P">
</g>
<g id="H">
</g>
<g id="T">
</g>
</svg>
