<?xml version="1.0" encoding="utf-8"?>
<!-- Generator: Adobe Illustrator 24.0.0, SVG Export Plug-In . SVG Version: 6.00 Build 0)  -->
<svg version="1.1" id="Capa_1" xmlns="http://www.w3.org/2000/svg" xmlns:xlink="http://www.w3.org/1999/xlink" x="0px" y="0px"
	 viewBox="0 0 145 60" style="enable-background:new 0 0 145 60;" xml:space="preserve">
<style type="text/css">
	.st0{fill:#FFFFFF;}
	.st1{fill:#00CC99;}
</style>
<g>
	<g>
		<path class="st0" d="M65.6,29.6l-5.6,15h-5.1l-5.6-15h5l3.1,9.5l3.1-9.5C60.5,29.6,65.6,29.6,65.6,29.6z"/>
		<path class="st0" d="M67.2,29.6h4.5v15h-4.5V29.6z"/>
		<path class="st0" d="M90.5,23.6v21H86v-1.4c-1,1.1-2.5,1.8-4.5,1.8c-3.9,0-7.2-3.5-7.2-7.9c0-4.5,3.2-7.9,7.2-7.9
			c2,0,3.5,0.7,4.5,1.8v-7.4C86,23.6,90.5,23.6,90.5,23.6z M86,37.1c0-2.3-1.5-3.7-3.6-3.7s-3.6,1.4-3.6,3.7s1.5,3.7,3.6,3.7
			S86,39.4,86,37.1z"/>
		<path class="st0" d="M93,37.1c0-4.5,3.5-7.9,8-7.9c4.4,0,8,3.5,8,7.9c0,4.5-3.5,7.9-8,7.9C96.6,45.1,93,41.6,93,37.1z M104.5,37.1
			c0-2.1-1.5-3.5-3.5-3.5s-3.5,1.4-3.5,3.5s1.5,3.5,3.5,3.5C102.9,40.7,104.5,39.3,104.5,37.1z"/>
	</g>
	<g>
		<circle class="st1" cx="45.6" cy="50.5" r="5.2"/>
		<circle class="st1" cx="88.5" cy="9.5" r="5.2"/>
	</g>
	<g>
		<path class="st0" d="M44.3,13.8h-0.9c-0.6,0-1.2,0.5-1.2,1.2v7.6c0,0.6-0.5,1.2-1.2,1.2h-0.6c-0.6,0-1.2-0.5-1.2-1.2V15
			c0-0.6-0.5-1.2-1.2-1.2h-0.9c-0.6,0-1.2-0.5-1.2-1.2v-0.5c0-0.6,0.5-1.2,1.2-1.2h7.1c0.6,0,1.2,0.5,1.2,1.2v0.5
			C45.4,13.3,44.9,13.8,44.3,13.8z"/>
		<path class="st0" d="M56.5,12.2v10.3c0,0.6-0.5,1.2-1.2,1.2h-0.6c-0.6,0-1.2-0.5-1.2-1.2v-2.7c0-0.6-0.5-1.2-1.2-1.2h-1.7
			c-0.6,0-1.2,0.5-1.2,1.2v2.7c0,0.6-0.5,1.2-1.2,1.2h-0.6c-0.6,0-1.2-0.5-1.2-1.2V12.2c0-0.6,0.5-1.2,1.2-1.2h0.6
			c0.6,0,1.2,0.5,1.2,1.2v2.5c0,0.6,0.5,1.2,1.2,1.2h1.7c0.6,0,1.2-0.5,1.2-1.2v-2.5c0-0.6,0.5-1.2,1.2-1.2h0.6
			C56,11,56.5,11.5,56.5,12.2z"/>
		<path class="st0" d="M67.9,15.3c0,2.4-1.9,4.3-4.4,4.3h-1.9v2.8c0,0.6-0.5,1.2-1.2,1.2h-0.6c-0.6,0-1.2-0.5-1.2-1.2V12.2
			c0-0.6,0.5-1.2,1.2-1.2h3.6C66,11,67.9,12.9,67.9,15.3z M65,15.3c0-0.9-0.7-1.6-1.5-1.6h-1.9V17h1.9C64.3,17,65,16.3,65,15.3z"/>
		<path class="st0" d="M69.3,20.2l0.5-0.3c0.5-0.3,1.1-0.2,1.5,0.2c0.5,0.6,1.2,0.9,2.2,0.9c1.4,0,1.7-0.5,1.7-1
			c0-0.8-0.7-1.1-2.6-1.6s-3.7-1.4-3.7-3.9c0-2.4,2.1-3.9,4.3-3.9c1.6,0,3,0.6,3.9,1.8c0.4,0.5,0.3,1.4-0.3,1.7l-0.4,0.3
			c-0.5,0.3-1.1,0.2-1.4-0.2c-0.4-0.4-0.9-0.7-1.7-0.7c-0.9,0-1.4,0.5-1.4,1c0,0.6,0.3,1,2.3,1.6c1.9,0.6,4.1,1.2,4.1,3.9
			c0,2.4-2,3.9-4.7,3.9c-2.1,0-3.6-0.8-4.5-2.1C68.5,21.3,68.7,20.6,69.3,20.2z"/>
	</g>
</g>
</svg>
