<?xml version="1.0" encoding="utf-8"?>
<!-- Generator: Adobe Illustrator 24.0.0, SVG Export Plug-In . SVG Version: 6.00 Build 0)  -->
<svg version="1.1" id="Capa_1" xmlns="http://www.w3.org/2000/svg" xmlns:xlink="http://www.w3.org/1999/xlink" x="0px" y="0px"
	 viewBox="0 0 1235 600" style="enable-background:new 0 0 1235 600;" xml:space="preserve">
<style type="text/css">
	.st0{fill:url(#SVGID_1_);}
	.st1{fill:#FFFFFF;}
	.st2{fill:#00CC99;}
</style>
<linearGradient id="SVGID_1_" gradientUnits="userSpaceOnUse" x1="0" y1="300" x2="1235" y2="300">
	<stop  offset="0" style="stop-color:#000000"/>
	<stop  offset="1" style="stop-color:#6324F1"/>
</linearGradient>
<rect class="st0" width="1235" height="600"/>
<g>
	<path class="st1" d="M551.9,284.3l-42.6,114.1c0,0.1-0.2,0.2-0.3,0.2h-38.6c-0.1,0-0.3-0.1-0.3-0.2l-42.6-114.1
		c-0.1-0.2,0.1-0.4,0.3-0.4h37.5c0.1,0,0.3,0.1,0.3,0.2l23.3,71.5c0.1,0.3,0.5,0.3,0.6,0l23.3-71.5c0-0.1,0.2-0.2,0.3-0.2h38.3
		C551.8,283.9,551.9,284.1,551.9,284.3z"/>
	<path class="st1" d="M564.6,283.9h33.8c0.2,0,0.3,0.1,0.3,0.3v114.1c0,0.2-0.1,0.3-0.3,0.3h-33.8c-0.2,0-0.3-0.1-0.3-0.3V284.2
		C564.2,284,564.4,283.9,564.6,283.9z"/>
	<path class="st1" d="M742.4,238.3v160c0,0.2-0.1,0.3-0.3,0.3h-33.8c-0.2,0-0.3-0.1-0.3-0.3v-9.6c0-0.3-0.3-0.4-0.5-0.2
		c-7.6,8.1-18.9,13.2-33.9,13.2c-29.8,0-55.1-26.8-55.1-60.4c0-34.4,24.5-60.4,55.1-60.4c14.9,0,26.2,5.1,33.9,13.2
		c0.2,0.2,0.5,0.1,0.5-0.2v-55.5c0-0.2,0.1-0.3,0.3-0.3l33.8,0C742.3,238,742.4,238.1,742.4,238.3z M708,341.2
		c0-17.6-11.5-28.3-27.5-28.3S653,323.6,653,341.2s11.5,28.3,27.5,28.3S708,358.8,708,341.2z"/>
	<path class="st1" d="M761.6,341.2c0-31,21.7-55.2,51.2-59.7c41.8-6.4,78,30.3,70,71.8c-5.5,28.2-29.8,48.3-60,48.3
		C789.1,402.4,761.6,375.6,761.6,341.2z M849.5,341.2c0-16.1-11.5-26.8-26.8-26.8S796,325.1,796,341.2s11.5,26.8,26.8,26.8
		C837.3,368.7,849.5,358,849.5,341.2z"/>
</g>
<g>
	<circle class="st2" cx="399.1" cy="443.7" r="39.8"/>
	<circle class="st2" cx="727.1" cy="130.1" r="39.8"/>
</g>
<g>
	<path class="st1" d="M389.1,163h-6.9c-4.6,0-9.2,3.8-9.2,9.2v58.1c0,4.6-3.8,9.2-9.2,9.2h-4.6c-4.6,0-9.2-3.8-9.2-9.2v-58.1
		c0-4.6-3.8-9.2-9.2-9.2H334c-4.6,0-9.2-3.8-9.2-9.2V150c0-4.6,3.8-9.2,9.2-9.2h54.3c4.6,0,9.2,3.8,9.2,9.2v3.8
		C397.5,159.2,393.7,163,389.1,163z"/>
	<path class="st1" d="M482.4,150.8v78.8c0,4.6-3.8,9.2-9.2,9.2h-4.6c-4.6,0-9.2-3.8-9.2-9.2v-20.6c0-4.6-3.8-9.2-9.2-9.2h-13
		c-4.6,0-9.2,3.8-9.2,9.2v20.6c0,4.6-3.8,9.2-9.2,9.2h-4.6c-4.6,0-9.2-3.8-9.2-9.2v-78.8c0-4.6,3.8-9.2,9.2-9.2h4.6
		c4.6,0,9.2,3.8,9.2,9.2v19.1c0,4.6,3.8,9.2,9.2,9.2h13c4.6,0,9.2-3.8,9.2-9.2v-19.1c0-4.6,3.8-9.2,9.2-9.2h4.6
		C478.6,141.6,482.4,145.4,482.4,150.8z"/>
	<path class="st1" d="M569.6,174.5c0,18.4-14.5,32.9-33.7,32.9h-14.5v21.4c0,4.6-3.8,9.2-9.2,9.2h-4.6c-4.6,0-9.2-3.8-9.2-9.2v-78
		c0-4.6,3.8-9.2,9.2-9.2h27.5C555.1,141.6,569.6,156.1,569.6,174.5z M547.4,174.5c0-6.9-5.4-12.2-11.5-12.2h-14.5v25.2H536
		C542.1,187.5,547.4,182.1,547.4,174.5z"/>
	<path class="st1" d="M580.3,212l3.8-2.3c3.8-2.3,8.4-1.5,11.5,1.5c3.8,4.6,9.2,6.9,16.8,6.9c10.7,0,13-3.8,13-7.6
		c0-6.1-5.4-8.4-19.9-12.2s-28.3-10.7-28.3-29.8c0-18.4,16.1-29.8,32.9-29.8c12.2,0,22.9,4.6,29.8,13.8c3.1,3.8,2.3,10.7-2.3,13
		l-3.1,2.3c-3.8,2.3-8.4,1.5-10.7-1.5c-3.1-3.1-6.9-5.4-13-5.4c-6.9,0-10.7,3.8-10.7,7.6c0,4.6,2.3,7.6,17.6,12.2
		c14.5,4.6,31.4,9.2,31.4,29.8c0,18.4-15.3,29.8-35.9,29.8c-16.1,0-27.5-6.1-34.4-16.1C574.2,220.4,575.7,215,580.3,212z"/>
</g>
</svg>
