<?xml version="1.0" encoding="utf-8"?>
<!-- Generator: Adobe Illustrator 24.0.0, SVG Export Plug-In . SVG Version: 6.00 Build 0)  -->
<svg version="1.1" id="Capa_1" xmlns="http://www.w3.org/2000/svg" xmlns:xlink="http://www.w3.org/1999/xlink" x="0px" y="0px"
	 viewBox="0 0 145 60" style="enable-background:new 0 0 145 60;" xml:space="preserve">
<style type="text/css">
	.st0{fill:#663300;stroke:#993333;stroke-width:0.5;stroke-miterlimit:10;}
	.st1{fill:#FFFFFF;}
	.st2{fill:#3FFF95;}
	.st3{fill:#FF7F7F;}
	.st4{fill:#AB55FF;}
	.st5{fill:#D1FF3F;}
</style>
<g>
	<rect x="3.7" y="19.4" class="st0" width="40.4" height="10.1"/>
	<rect x="87.1" y="19.4" class="st0" width="40.4" height="10.1"/>
	<rect x="48.9" y="29.6" class="st0" width="40.4" height="10.1"/>
	<rect x="13.9" y="29.6" class="st0" width="35" height="10.1"/>
	<rect x="40" y="39.7" class="st0" width="35" height="10.1"/>
	<rect x="46.8" y="49.9" class="st0" width="35" height="10.1"/>
	<rect x="5" y="39.7" class="st0" width="35" height="10.1"/>
	<rect x="81.8" y="49.9" class="st0" width="35" height="10.1"/>
	<rect x="11.8" y="49.9" class="st0" width="35" height="10.1"/>
	<rect x="88.4" y="29.6" class="st0" width="35" height="10.1"/>
	<rect x="44.1" y="19.4" class="st0" width="43.1" height="10.1"/>
	<rect x="75" y="39.7" class="st0" width="43.1" height="10.1"/>
	<rect x="118" y="39.7" class="st0" width="23.3" height="10.1"/>
	<rect x="116.8" y="49.9" class="st0" width="23.3" height="10.1"/>
</g>
<g>
	<g>
		<g>
			<path class="st1" d="M14.2,21.4c-2.6,0-4.2-0.8-4.9-2.4c-0.3-0.7-0.5-1.6-0.6-2.4c-0.1-1,0-2.2,0.1-3.4c0.3-2.3,1.2-4.1,2.7-5.6
				c1.2-1.2,2.6-1.8,4.1-1.8c0.3,0,0.5,0,0.8,0.1c0.3,0,0.5-0.1,0.7-0.1c1.3,0,2.4,0.7,3.1,2.1c0.5,0.9,0.8,1.9,0.9,3.1
				c0.1,1,0.1,2.1-0.1,3.3c-0.4,1.7-1,3.4-1.9,4.9C18.4,20.5,16.7,21.3,14.2,21.4z M13.6,19.7c0.2,0.2,0.5,0.3,0.8,0.3
				c0.5,0,1.1-0.3,1.6-0.9c0.9-0.9,1.6-2.2,2.1-4.1c0.5-1.7,0.7-3.2,0.5-4.6V10c-0.2-1.5-0.7-2.5-1.2-3c-0.1,0-0.2,0-0.3,0
				c-0.6,0-1.4,0.4-2.1,1.2c-0.9,0.9-1.6,2.3-2.2,4.1c-0.5,1.7-0.6,3.2-0.5,4.6v0.4C12.4,18.7,12.9,19.6,13.6,19.7z"/>
			<path class="st1" d="M24.9,18.9c0,0,0.1,0.1,0.3,0.1c0.1,0,0.3,0,0.4,0c0.2,0,0.4,0,0.6,0c0.7,0,1.6-0.1,2.7-0.4
				c1.3-0.6,2.2-1,2.8-1c0.3,0,0.4,0.1,0.4,0.3c0,0.4-0.6,1.4-1.8,2.8c-0.4,0.5-2.2,0.8-5.5,0.9h-0.4c-2.5,0-3.8-0.2-3.8-0.7
				c0-0.1,0-0.2,0.1-0.3c0.5-0.7,1.1-1.7,1.6-3.1s1.2-3.3,2.2-5.9c0.9-2.5,1.7-4.4,2.3-5.6c0.6-0.4,1.5-0.6,2.4-0.6
				c0.3,0,0.7,0,1,0.1c0.8,0.1,1.3,0.2,1.3,0.4c0,0.1-0.2,0.3-0.7,0.5c-1,0.5-2.4,2.9-4.1,7.4C26.4,14.9,25.8,16.5,24.9,18.9z"/>
			<path class="st1" d="M42.4,5.9h0.2c2.2,0,3.6,1,4.2,3c0.2,0.6,0.3,1.3,0.3,2c0,1.1-0.3,2.4-0.8,3.6c-1.1,2.6-2.5,4.4-4.1,5.4
				c-1.5,0.9-3.3,1.3-5.4,1.3h-0.6c-1.6-0.1-3-0.3-3.9-0.7c-0.5-0.3-0.7-0.6-0.7-1c0-0.2,0.1-0.4,0.2-0.6c0.3-0.2,0.5-0.3,0.8-0.3
				c0.2,0,0.4,0.1,0.5,0.2c0.3,0.1,0.5,0.2,0.6,0.2c0-0.1,0.9-2.1,2.5-5.9c1.3-2.9,2-4.6,2.1-5.1c-0.2,0.4-0.3,0.6-0.5,0.6
				c-0.3,0.1-0.6,0.1-0.8,0.1c-0.4,0-0.6-0.1-0.6-0.4c0-0.2,0.2-0.5,0.5-0.9C37.7,6.4,39.5,5.9,42.4,5.9z M36.5,19.1
				c0.2,0,0.4,0,0.6,0c0.9,0,1.8-0.2,2.4-0.6c1.2-0.7,2.3-2.3,3.3-4.8c0.6-1.5,0.9-2.7,0.9-3.7c0-0.4,0-0.8-0.1-1.1
				c-0.4-0.6-1-0.8-1.8-0.8c-0.2,0-0.4,0-0.6,0L36.5,19.1z"/>
			<path class="st1" d="M58.3,9.9c0,0.1,0,0.1,0,0.1v0.1c0,0.3,0.3,0.6,0.7,0.8l0,0c0.1,0.1,0.4,0.2,0.7,0.3s0.8,0.2,1.3,0.4
				c0.9,0.3,1.6,0.7,2.2,1.1c0.5,0.4,0.8,0.9,0.9,1.4v0.3c0,0.1,0,0.2,0,0.3c-0.2,1.9-0.6,3.3-1.2,4.2c-0.3,0.5-0.6,0.8-1,1.2
				c-0.3,0.3-0.6,0.6-1,0.8c-0.4,0.2-0.9,0.3-1.5,0.4c-0.7,0.1-1.4,0.2-2.4,0.3h-0.8c-0.6,0-1.1,0-1.6-0.1c-0.6-0.1-1.1-0.2-1.4-0.4
				c-0.4-0.2-0.8-0.5-1.1-0.9s-0.5-0.8-0.6-1.4V18c0-0.2,0-0.5,0-0.8c0-0.5,0.1-0.9,0.2-1.2c0.1-0.4,0.2-0.7,0.4-0.9
				c0.2-0.3,0.5-0.5,0.8-0.7s0.7-0.2,1.1-0.3h0.2c0.1,0,0.1,0,0.2,0c0.8,0,1.2,0.3,1.3,0.8c0,0.1,0,0.1,0,0.2c0,0.2,0,0.5-0.1,0.8
				c-0.1,0.4-0.2,0.8-0.3,1.2c0,0.3,0,0.6,0,0.8V18c0,0.2,0.1,0.4,0.2,0.5c0.1,0.2,0.2,0.3,0.3,0.4c0.2,0.3,0.6,0.5,1.1,0.5h0.2
				c0.1,0,0.1,0,0.2,0l0,0c1.1-0.2,1.8-0.7,2.3-1.6c0.2-0.3,0.3-0.7,0.4-1.1c0.1-0.4,0.2-1,0.2-1.6l0,0c0-0.1,0.1-0.2,0-0.3
				c0,0,0,0,0-0.1c-0.1-0.4-0.3-0.7-0.7-1c-0.2-0.1-0.4-0.2-0.7-0.3s-0.7-0.3-1.1-0.4c-1.8-0.6-2.7-1.4-2.9-2.3v-0.2
				c0-0.1,0-0.2,0-0.3v-0.1V10c0-0.2,0.1-0.3,0.1-0.4c0.3-1.2,0.9-2.1,1.7-2.8s1.9-1.1,3.2-1.4c0.2,0,0.4,0,0.6,0c0.2,0,0.3,0,0.5,0
				H61c2.2,0,3.3,0.6,3.5,1.9v0.1v0.1c0,0.1,0,0.2,0,0.3l0,0c0,1-0.4,1.5-1.2,1.6c-0.1,0-0.1,0-0.2,0H63c-0.5,0-0.9-0.2-1.1-0.6l0,0
				c-0.1-0.1-0.1-0.3-0.2-0.4V8.3c0-0.2,0.1-0.4,0.1-0.5s0-0.2,0-0.3c-0.1-0.1-0.1-0.2-0.2-0.2c-0.1-0.1-0.2-0.1-0.4-0.1
				C60,7.3,59.1,8,58.5,9.3C58.4,9.5,58.4,9.7,58.3,9.9L58.3,9.9C58.3,9.8,58.3,9.8,58.3,9.9L58.3,9.9L58.3,9.9z"/>
			<path class="st1" d="M76.4,9.4c-0.3,0.8-0.9,1.2-1.7,1.2c-0.1,0-0.2,0-0.3,0c-0.9-0.1-1.3-0.4-1.3-0.8c0-0.1,0-0.2,0-0.3
				c0.3-0.7,0.4-1.2,0.4-1.5s-0.1-0.4-0.3-0.4c-0.1,0-0.3,0-0.4,0.1c-1.2,1-2.2,2.5-3.2,4.3c-0.6,1.2-1.1,2.4-1.5,3.6
				c-0.2,0.8-0.4,1.5-0.4,2s0.1,0.8,0.3,0.9c0.2,0.1,0.4,0.2,0.7,0.2c0.4,0,1-0.1,1.7-0.4c1.2-1,2.1-2.1,2.5-3.3
				c0.2-0.4,0.8-0.7,1.8-0.7h0.2c1,0,1.4,0.2,1.4,0.7c0,0.1,0,0.2,0,0.3c-0.7,1.9-1.5,3.3-2.4,4.2c-1,1.1-2.7,1.6-5,1.6
				c-0.2,0-0.5,0-0.7,0H68c-1,0-1.9-0.2-2.6-0.7s-1.1-1-1.2-1.7c0-0.1,0-0.2,0-0.3c0-1.1,0.4-2.5,1-4.3c0.5-1.2,0.8-2.1,1.1-2.6
				c1.2-1.8,1.9-2.9,2.2-3.3c1.2-1.5,2.6-2.3,4.1-2.5c0.4-0.1,0.7-0.1,1-0.1c1.1,0,1.9,0.4,2.4,1.1c0.3,0.5,0.5,1,0.5,1.5
				C76.6,8.7,76.5,9.1,76.4,9.4z"/>
			<path class="st1" d="M85.6,12.9l1.6-6.1c0.4-0.5,1.1-0.8,2-0.8c0.2,0,0.4,0,0.6,0c0.6,0.1,0.9,0.2,0.9,0.4l0,0
				c0,0.3-0.3,0.6-0.8,1.1c-0.8,2.4-1.4,4.6-1.7,6.5c-0.3,2.2-0.7,4-1,5.6c-0.1,0.9-0.6,1.4-1.3,1.4c-0.6,0.1-1.1,0.1-1.5,0.1
				c-0.8,0-1.2-0.1-1.3-0.4l0,0c0-0.3,0.3-0.8,1-1.4c0.7-2.9,1-4.3,1-4.3c-0.7-0.6-1.4-0.8-2.2-0.8c-0.5,0-1.1,0.1-1.7,0.4
				c0,0.4-0.4,2.1-1,5c0,0.8-0.5,1.3-1.2,1.3C78.4,21,77.9,21,77.5,21c-0.7,0-1.1-0.1-1.2-0.4v-0.1c0-0.3,0.2-0.6,0.7-1.1
				c0.7-2.4,1.1-4.2,1.2-5.4l0.2-1.2c0.6-2.7,1.2-4.7,1.9-6.1c0.4-0.5,1.1-0.8,2-0.8c0.2,0,0.4,0,0.6,0c0.6,0.1,0.9,0.2,0.9,0.4l0,0
				c0,0.3-0.3,0.6-0.8,1.1c-0.7,2.1-1.1,3.4-1.2,3.8c-0.2,0.5-0.3,0.8-0.3,0.8s0,0,0.1,0c0,0,0,0,0.1-0.1c0,0,0.1,0,0.1,0.1
				L85.6,12.9z"/>
			<path class="st1" d="M95.3,21.4c-2.6,0-4.2-0.8-4.9-2.4c-0.3-0.7-0.5-1.6-0.6-2.4c-0.1-1,0-2.2,0.1-3.4c0.3-2.3,1.2-4.1,2.7-5.6
				c1.2-1.2,2.6-1.8,4.1-1.8c0.3,0,0.5,0,0.8,0.1c0.3,0,0.5-0.1,0.7-0.1c1.3,0,2.4,0.7,3.1,2.1c0.5,0.9,0.8,1.9,0.9,3.1
				c0.1,1,0.1,2.1-0.1,3.3c-0.4,1.7-1,3.4-1.9,4.9C99.5,20.5,97.8,21.3,95.3,21.4z M94.7,19.7c0.2,0.2,0.5,0.3,0.8,0.3
				c0.5,0,1-0.3,1.6-0.9c0.9-0.9,1.6-2.2,2.1-4.1c0.5-1.7,0.7-3.2,0.5-4.6V10c-0.2-1.5-0.7-2.5-1.2-3c-0.1,0-0.2,0-0.3,0
				c-0.6,0-1.4,0.4-2.1,1.2c-0.9,0.9-1.6,2.3-2.2,4.1c-0.5,1.7-0.6,3.2-0.5,4.6v0.4C93.6,18.7,94,19.6,94.7,19.7z"/>
			<path class="st1" d="M108.6,21.4c-2.6,0-4.2-0.8-4.9-2.4c-0.3-0.7-0.5-1.6-0.6-2.4c-0.1-1,0-2.2,0.1-3.4c0.3-2.3,1.2-4.1,2.7-5.6
				c1.2-1.2,2.6-1.8,4.1-1.8c0.3,0,0.5,0,0.8,0.1c0.3,0,0.5-0.1,0.7-0.1c1.3,0,2.4,0.7,3.1,2.1c0.5,0.9,0.8,1.9,0.9,3.1
				c0.1,1,0.1,2.1-0.1,3.3c-0.4,1.7-1,3.4-1.9,4.9C112.8,20.5,111.1,21.3,108.6,21.4z M108,19.7c0.2,0.2,0.5,0.3,0.8,0.3
				c0.5,0,1-0.3,1.6-0.9c0.9-0.9,1.6-2.2,2.1-4.1c0.5-1.7,0.7-3.2,0.5-4.6V10c-0.2-1.5-0.7-2.5-1.2-3c-0.1,0-0.2,0-0.3,0
				c-0.6,0-1.4,0.4-2.1,1.2c-0.9,0.9-1.6,2.3-2.2,4.1c-0.5,1.7-0.6,3.2-0.5,4.6v0.4C106.9,18.7,107.3,19.6,108,19.7z"/>
			<path class="st1" d="M119.3,18.9c0,0,0.1,0.1,0.3,0.1c0.1,0,0.3,0,0.4,0c0.2,0,0.4,0,0.6,0c0.7,0,1.6-0.1,2.7-0.4
				c1.3-0.6,2.2-1,2.8-1c0.3,0,0.4,0.1,0.4,0.3c0,0.4-0.6,1.4-1.8,2.8c-0.4,0.5-2.2,0.8-5.5,0.9h-0.4c-2.5,0-3.8-0.2-3.8-0.7
				c0-0.1,0-0.2,0.1-0.3c0.5-0.7,1.1-1.7,1.6-3.1s1.2-3.3,2.2-5.9c0.9-2.5,1.7-4.4,2.3-5.6c0.6-0.4,1.5-0.6,2.4-0.6
				c0.3,0,0.7,0,1,0.1c0.8,0.1,1.3,0.2,1.3,0.4c0,0.1-0.2,0.3-0.7,0.5c-1.1,0.5-2.4,2.9-4.1,7.4C120.8,14.9,120.2,16.5,119.3,18.9z"
				/>
		</g>
	</g>
</g>
<g>
	<path class="st2" d="M101.1,47.5c-0.1,0.5-1.3,0.4-1.3-0.1c0.2-1.5,0.3-3,0.5-4.5c-0.3,0.6-0.6,1.2-0.9,1.8
		c-0.2,0.4-1.2,0.2-1.3-0.2c-0.1-0.6-0.2-1.2-0.2-1.8c-0.3,1.4-0.6,2.8-1,4.1c-0.1,0.5-1.4,0.3-1.3-0.1c0.9-3.3,1.6-6.7,2-10.1
		c0.1-0.5,1.3-0.4,1.3,0.1c-0.1,1.9,0.1,3.9,0.3,5.8c0.8-1.7,1.6-3.4,2.1-5.2c0.1-0.5,1.4-0.4,1.3,0.1
		C101.9,40.6,101.5,44,101.1,47.5z"/>
	<path class="st2" d="M106.5,45.5c-1,1.5-3.3,1.7-4.3,0.1c-0.8-1.2-0.5-2.9,0-4.2c0.3-1,1-2.3,2-2.5c0.5-0.4,1.1-0.7,1.8-0.6
		C108.7,38.8,107.5,44,106.5,45.5z M106.3,42c0-0.5,0.3-2.2-0.2-2.6c-1-0.7-1.5,1.5-1.6,2.1c0,0.2,0,0.4,0,0.5
		c0.1-0.3,0.2-0.5,0.3-0.7c0.2-0.4,1.5-0.2,1.2,0.3c-0.4,0.7-0.6,1.4-0.7,2.2c-0.1,0.4-0.9,0.4-1.2,0.1c0,0-0.1,0-0.1-0.1
		c-0.4-0.4-0.7-0.9-0.8-1.5c-0.2,0.6-0.3,1.3-0.2,2c0.1,0.6,0.3,1.4,0.9,1.6c0.7,0.2,1.3-0.6,1.6-1.2C106,43.9,106.2,42.9,106.3,42z
		"/>
	<path class="st2" d="M112.9,42c-0.5,2.6-1,5.1-1.7,7.6c0,0.3-0.4,0.4-0.8,0.3c-0.3,0-0.6-0.2-0.5-0.4c-0.1-2.4-0.4-4.8-1-7.2
		c-0.2,1.5-0.5,2.9-0.9,4.3c-0.1,0.5-1.4,0.3-1.3-0.1c0.7-2.5,1.1-5.1,1.3-7.6l0,0l0,0c0.2-0.4,1.2-0.3,1.3,0.1
		c0.6,2.1,1.2,4.3,1.5,6.5c0.3-1.2,0.5-2.4,0.8-3.6C111.7,41.4,113,41.6,112.9,42z M113.4,39.4c-0.1,0.5-0.2,1-0.3,1.6
		c-0.1,0.5-1.4,0.4-1.3-0.1s0.2-1,0.3-1.6C112.2,38.8,113.5,38.9,113.4,39.4z"/>
	<path class="st2" d="M117.4,41.6c-0.7-0.1-1.5-0.2-2.3-0.3c-0.6,2.7-1.2,5.4-1.7,8.1c-0.1,0.5-1.4,0.4-1.3-0.1c0.5-2.7,1-5.3,1.6-8
		c-0.4,0-0.8,0.1-1.2,0.2c-0.5,0.1-0.2-1.2,0.3-1.3c1.6-0.4,3.4-0.1,5,0.2C118.3,40.4,117.9,41.7,117.4,41.6z"/>
</g>
<g>
	<path class="st3" d="M19.5,49.3c-1.9,0.5-3.4-1.2-3.9-2.9c-0.5-1.5-0.4-3.7,0.7-4.9c0.7-0.8,1.6-0.9,2.4-0.6c0-0.1,0-0.1,0.1-0.2
		c0.1-0.5,1.4-0.6,1.3-0.2c-0.6,1.7-1,3.6-0.9,5.4c0,0.5-1.2,0.8-1.3,0.4c-0.1-1.4,0.1-2.9,0.5-4.3c-0.4-0.4-0.6-0.7-1-0.3
		c-0.3,0.3-0.4,0.8-0.5,1.2c-0.3,1-0.2,2,0,3c0.2,0.9,1.4,3.2,2.7,2.6c1.3-0.7,1.1-3.2,0.7-4.3c-0.2-0.5,1.1-0.8,1.3-0.4
		C22,45.8,21.7,48.7,19.5,49.3z"/>
	<path class="st3" d="M27,47.1c-0.5,0.9-2.6,1.4-3.6,1.2c-1.1-0.3-1.8-1.4-1.8-2.5c-0.1-1.1,0.4-2,1.1-2.6c-1,0-1.8-0.5-1.1-1.8
		c0.8-1.4,1.9-1.7,2.9-1.1c0-0.2,0-0.3,0-0.5c0-0.5,1.3-0.7,1.3-0.2c0,0.6,0.1,1.5,0.3,2.3c0.1,0.2-0.1,0.3-0.3,0.4
		c-0.4,0.2-0.9,0.2-0.9-0.1c-0.2-0.3-0.4-0.7-0.7-1c-0.1-0.2-0.4-0.5-0.6-0.5s-0.7,0.8-0.8,1c-0.3,1,0.6,0.8,1.3,0.7
		c0.4-0.1,1.1,0.2,0.5,0.6c-1.4,0.8-2.5,3.2-0.8,4.4c0.7,0.5,2,0.3,2.2-0.5s-0.3-1.9-0.5-2.6c-0.1-0.5,1.1-0.8,1.2-0.4
		C26.8,44.7,27.4,46.3,27,47.1z"/>
	<path class="st3" d="M30.4,44c0.2-0.1-0.1,0.1-0.2,0.1c-0.2,0.1-0.4,0.3-0.6,0.5c-0.7,0.7-1.1,1.7-1.4,2.7c0,0.4-0.9,0.6-1.2,0.4
		c-0.1,0-0.1-0.1-0.1-0.2c-0.6-2.7-0.5-5.7-0.3-8.3c0-0.5,1.3-0.7,1.3-0.2c-0.2,2-0.2,4.2,0,6.2c0.5-0.8,1.1-1.4,1.9-1.8
		C30.5,43.1,31.2,43.6,30.4,44z"/>
</g>
<g>
	<path class="st4" d="M45.2,30.3c-0.7-0.1-1.5-0.2-2.3-0.2c-0.1,0.7-0.3,1.4-0.4,2c0.5,0,1,0.1,1.5,0.1s0.1,1.3-0.4,1.3
		c-0.4,0-0.9-0.1-1.3-0.1c-0.3,1.6-0.5,3.2-0.8,4.8c-0.1,0.5-1.4,0.4-1.3-0.1c0.2-1.6,0.5-3.1,0.8-4.7c-0.3,0-0.7,0.1-1,0.2
		c-0.5,0.1-0.2-1.1,0.2-1.3c0.3-0.1,0.7-0.1,1-0.2c0.1-0.7,0.3-1.4,0.4-2.1c-0.4,0-0.8,0.1-1.2,0.2c-0.5,0.1-0.2-1.1,0.2-1.3
		c1.6-0.4,3.4-0.2,5,0C46.1,29.1,45.7,30.4,45.2,30.3z"/>
	<path class="st4" d="M48.2,38.1c-0.2-0.8-0.4-1.6-0.6-2.4c-0.8,0.1-1.6,0.1-2.4,0.1c-0.3,0.5-0.7,1-1.1,1.5
		c-0.3,0.4-1.5,0.1-1.2-0.3c0.3-0.5,0.7-1,1-1.4c-0.1-0.4,0.1-1.1,0.5-1.1c0.1,0,0.1,0,0.2,0c1-1.6,1.8-3.3,2.4-5.2
		c0.1-0.2,0.5-0.3,0.8-0.2c0.3,0,0.6,0.2,0.6,0.4c0,1.6,0.1,3.2,0.3,4.7c0.2,0,0.4-0.1,0.6-0.1c0.5-0.1,0.3,1.2-0.2,1.3
		c-0.1,0-0.1,0-0.2,0c0.2,0.8,0.4,1.6,0.6,2.5C49.6,38.5,48.3,38.5,48.2,38.1z M47.4,34.5c-0.1-0.7-0.2-1.4-0.3-2.1
		c-0.3,0.7-0.7,1.5-1.1,2.2C46.4,34.6,46.9,34.5,47.4,34.5z"/>
	<path class="st4" d="M53.9,36.4c0.2,0.3-0.1,0.5-0.5,0.5C53.1,38,52.7,39,52.3,40c-0.1,0.4-1.1,0.3-1.2-0.1l0,0
		c-0.5-0.5-1-0.7-1.7-0.4c-0.3,0.1-0.7,0.1-0.9-0.1c-0.1-0.1-0.2-0.2-0.1-0.3V39c0.2-0.7,0.6-1.3,1-1.9c0.3-0.4,1.5-0.2,1.2,0.3
		c-0.3,0.4-0.6,0.9-0.8,1.3c0.6,0,1.1,0.1,1.6,0.4c0.3-0.9,0.7-1.8,0.9-2.8c-0.5-0.4-1.2-0.5-1.9-0.3c-0.2,0.1-1.2,0-0.9-0.5
		c1-1.6,1.4-3.5,1.5-5.3c0-0.5,1.3-0.4,1.3,0.1c0,1.7-0.4,3.4-1.2,4.9c0.5,0,1,0.1,1.5,0.3c0.5-1.6,0.8-3.2,1.1-4.9
		c0.1-0.5,1.4-0.4,1.3,0.1c-0.3,1.9-0.7,3.7-1.3,5.5C53.8,36.2,53.9,36.3,53.9,36.4z"/>
	<path class="st4" d="M59.1,32.3c-0.7-0.1-1.5-0.2-2.3-0.2c-0.5,2.3-0.9,4.6-1.2,6.8c-0.1,0.5-1.4,0.4-1.3-0.1
		c0.3-2.3,0.8-4.5,1.2-6.8c-0.4,0-0.8,0.1-1.2,0.2c-0.5,0.1-0.2-1.1,0.2-1.3c1.6-0.4,3.4-0.2,5,0C59.9,31.1,59.6,32.4,59.1,32.3z"/>
	<path class="st4" d="M61.6,39.5c-0.8,0.7-2.9,0.5-3.8-0.1c-1-0.6-1.2-1.9-0.9-2.9s1-1.7,1.9-2.1c-1-0.4-1.6-1.1-0.4-2.1
		c1.2-1.1,2.3-0.9,3.1-0.1c0-0.2,0.1-0.3,0.1-0.5c0.1-0.4,1.4-0.3,1.2,0.3s-0.4,1.5-0.5,2.2c0,0.2-0.2,0.3-0.4,0.3
		c-0.4,0.1-0.9-0.1-0.9-0.4c-0.1-0.4-0.2-0.8-0.3-1.1c-0.1-0.2-0.2-0.6-0.4-0.7c-0.2-0.1-0.9,0.5-1.1,0.7c-0.6,0.8,0.3,1,1,1.1
		c0.4,0,1,0.6,0.3,0.7c-1.6,0.3-3.4,2.2-2.2,3.9c0.5,0.7,1.8,1,2.2,0.2c0.4-0.7,0.3-1.9,0.4-2.6c0-0.5,1.3-0.4,1.3,0.1
		C62.2,37.1,62.3,38.8,61.6,39.5z"/>
</g>
<g>
	<path class="st5" d="M59.5,55.5c-1.9,0.5-3.4-1.3-3.8-3c-0.4-1.5-0.3-3.7,0.9-4.9c0.7-0.8,1.6-0.9,2.4-0.5c0-0.1,0.1-0.1,0.1-0.2
		c0.2-0.4,1.4-0.6,1.3-0.1c-0.6,1.7-1.1,3.6-1.1,5.4c0,0.5-1.2,0.8-1.3,0.3c-0.1-1.4,0.2-2.9,0.6-4.3c-0.4-0.4-0.6-0.7-1-0.3
		c-0.3,0.2-0.5,0.8-0.6,1.1c-0.3,1-0.3,2-0.1,3c0.2,0.9,1.3,3.2,2.6,2.7c1.4-0.6,1.2-3.2,0.8-4.2c-0.1-0.5,1.1-0.8,1.3-0.3
		C62.1,52.1,61.7,55,59.5,55.5z"/>
	<path class="st5" d="M64.8,46.3c0.3,3.2,0.7,6.4,1.1,9.6c0.1,0.5-1.2,0.8-1.3,0.3c-0.2-1.6-0.4-3.2-0.6-4.8
		c-0.2,0.1-0.5,0.2-0.7,0.3c0.1,0.9,0.1,1.8,0.1,2.7c0,0.5-1.2,0.8-1.3,0.3c0-0.9-0.1-1.7-0.1-2.6c-0.5,0-0.5-1.1-0.1-1.3
		c-0.1-0.9-0.2-1.7-0.4-2.6c-0.1-0.5,1.2-0.8,1.3-0.3c0.2,0.8,0.3,1.6,0.4,2.5c0.2-0.1,0.5-0.2,0.7-0.3c-0.1-1.2-0.3-2.3-0.4-3.5
		C63.5,46.1,64.7,45.9,64.8,46.3z"/>
	<path class="st5" d="M70.7,53.6c-0.5-0.7-0.9-1.4-1.3-2.1c-0.7,0.3-1.5,0.6-2.3,0.8c-0.2,0.6-0.4,1.2-0.6,1.8
		c-0.2,0.5-1.4,0.6-1.3,0.1c0.2-0.6,0.4-1.1,0.5-1.7c-0.2-0.3-0.2-1.1,0.1-1.2c0.1,0,0.1,0,0.2-0.1c0.4-1.8,0.7-3.7,0.8-5.6
		c0-0.2,0.4-0.4,0.7-0.4c0.3-0.1,0.6,0,0.7,0.2c0.4,1.5,1,3,1.7,4.4c0.2-0.1,0.4-0.2,0.5-0.3c0.5-0.3,0.6,1,0.2,1.3
		c0,0-0.1,0-0.1,0.1c0.4,0.7,0.8,1.5,1.3,2.2C72.1,53.6,70.9,54,70.7,53.6z M68.8,50.4c-0.3-0.6-0.6-1.3-0.9-1.9
		c-0.1,0.8-0.3,1.6-0.4,2.4C67.9,50.7,68.4,50.6,68.8,50.4z"/>
	<path class="st5" d="M75.7,52.7c-1.4,1-4,1-4.7-0.9s1.2-2.8,2.8-2.5c0.7,0.2-0.3,0.8-0.8,0.7c-1.6-0.4-0.8,2.4,0.7,2.6
		c1.7,0.1,2-1.7,1.1-2.8c-1.1-1.4-3.5-0.9-4.5-2.5c-0.5-0.8-0.1-1.8,0.8-2.2s1.8,0,2.6,0.6c0-0.3,0.1-0.5,0.1-0.8
		c0.1-0.5,1.4-0.6,1.2-0.1c-0.2,0.8-0.2,1.7-0.1,2.5c0,0.1,0,0.2-0.1,0.2l0,0l0,0c-0.2,0.2-0.7,0.3-1,0.2c-0.1,0-0.1-0.1-0.2-0.2
		c-0.3-0.6-1.3-1.9-2-1.8c-0.5,0.1-0.4,0.6-0.3,1c0.5,1.1,2.2,1.1,3.2,1.6C76.4,49.1,77.4,51.4,75.7,52.7z"/>
	<path class="st5" d="M81.6,51.4c-0.5,0.9-2.6,1.3-3.6,1.1c-1.1-0.3-1.7-1.4-1.7-2.5s0.5-1.9,1.2-2.6c-1-0.1-1.8-0.6-1-1.9
		c0.9-1.4,2-1.6,2.9-1c0-0.2,0-0.3,0-0.5c0-0.5,1.3-0.7,1.3-0.1c0,0.6,0.1,1.6,0.2,2.3c0.1,0.2-0.1,0.3-0.3,0.4
		c-0.4,0.2-0.9,0.2-0.9-0.1c-0.2-0.3-0.4-0.7-0.6-1c-0.1-0.2-0.4-0.5-0.6-0.6c-0.2,0-0.7,0.7-0.8,1c-0.3,1,0.6,0.9,1.3,0.7
		c0.4-0.1,1.1,0.2,0.5,0.6c-1.5,0.8-2.6,3.1-1,4.4c0.7,0.5,2,0.4,2.2-0.4c0.2-0.8-0.2-1.9-0.4-2.6c-0.1-0.5,1.1-0.8,1.3-0.3
		C81.4,48.9,82.1,50.5,81.6,51.4z"/>
</g>
</svg>
