<?xml version="1.0" encoding="utf-8"?>
<!-- Generator: Adobe Illustrator 23.0.5, SVG Export Plug-In . SVG Version: 6.00 Build 0)  -->
<svg version="1.1" id="Capa_1" xmlns="http://www.w3.org/2000/svg" xmlns:xlink="http://www.w3.org/1999/xlink" x="0px" y="0px"
	 viewBox="0 0 145 60" style="enable-background:new 0 0 145 60;" xml:space="preserve">
<style type="text/css">
	.st0{fill:#663300;stroke:#993333;stroke-width:0.5;stroke-miterlimit:10;}
	.st1{fill:#FFFFFF;}
</style>
<g>
	<rect x="3.7" y="19.4" class="st0" width="40.4" height="10.1"/>
	<rect x="87.1" y="19.4" class="st0" width="40.4" height="10.1"/>
	<rect x="48.9" y="29.6" class="st0" width="40.4" height="10.1"/>
	<rect x="13.9" y="29.6" class="st0" width="35" height="10.1"/>
	<rect x="40" y="39.7" class="st0" width="35" height="10.1"/>
	<rect x="46.8" y="49.9" class="st0" width="35" height="10.1"/>
	<rect x="5" y="39.7" class="st0" width="35" height="10.1"/>
	<rect x="81.8" y="49.9" class="st0" width="35" height="10.1"/>
	<rect x="11.8" y="49.9" class="st0" width="35" height="10.1"/>
	<rect x="88.4" y="29.6" class="st0" width="35" height="10.1"/>
	<rect x="44.1" y="19.4" class="st0" width="43.1" height="10.1"/>
	<rect x="75" y="39.7" class="st0" width="43.1" height="10.1"/>
	<rect x="118" y="39.7" class="st0" width="23.3" height="10.1"/>
	<rect x="116.8" y="49.9" class="st0" width="23.3" height="10.1"/>
</g>
<g>
	
		<image style="overflow:visible;opacity:0.75;enable-background:new    ;" width="151" height="55" xlink:href="9E24A9C267355DF9.png"  transform="matrix(1 0 0 1 -7 -12)">
	</image>
	<g>
		<g>
			<path class="st1" d="M14.2,21.4c-2.6,0-4.2-0.8-4.9-2.4c-0.3-0.7-0.5-1.6-0.6-2.4c-0.1-1,0-2.2,0.1-3.4c0.3-2.3,1.2-4.1,2.7-5.6
				c1.2-1.2,2.6-1.8,4.1-1.8c0.3,0,0.5,0,0.8,0.1c0.3,0,0.5-0.1,0.7-0.1c1.3,0,2.4,0.7,3.1,2.1c0.5,0.9,0.8,1.9,0.9,3.1
				c0.1,1,0.1,2.1-0.1,3.3c-0.4,1.7-1,3.4-1.9,4.9C18.4,20.5,16.7,21.3,14.2,21.4z M13.6,19.7c0.2,0.2,0.5,0.3,0.8,0.3
				c0.5,0,1.1-0.3,1.6-0.9c0.9-0.9,1.6-2.2,2.1-4.1c0.5-1.7,0.7-3.2,0.5-4.6V10c-0.2-1.5-0.7-2.5-1.2-3c-0.1,0-0.2,0-0.3,0
				c-0.6,0-1.4,0.4-2.1,1.2c-0.9,0.9-1.6,2.3-2.2,4.1c-0.5,1.7-0.6,3.2-0.5,4.6v0.4C12.4,18.7,12.9,19.6,13.6,19.7z"/>
			<path class="st1" d="M24.9,18.9c0,0,0.1,0.1,0.3,0.1c0.1,0,0.3,0,0.4,0c0.2,0,0.4,0,0.6,0c0.7,0,1.6-0.1,2.7-0.4
				c1.3-0.6,2.2-1,2.8-1c0.3,0,0.4,0.1,0.4,0.3c0,0.4-0.6,1.4-1.8,2.8c-0.4,0.5-2.2,0.8-5.5,0.9h-0.4c-2.5,0-3.8-0.2-3.8-0.7
				c0-0.1,0-0.2,0.1-0.3c0.5-0.7,1.1-1.7,1.6-3.1s1.2-3.3,2.2-5.9c0.9-2.5,1.7-4.4,2.3-5.6c0.6-0.4,1.5-0.6,2.4-0.6
				c0.3,0,0.7,0,1,0.1c0.8,0.1,1.3,0.2,1.3,0.4c0,0.1-0.2,0.3-0.7,0.5c-1,0.5-2.4,2.9-4.1,7.4C26.4,14.9,25.8,16.5,24.9,18.9z"/>
			<path class="st1" d="M42.4,5.9h0.2c2.2,0,3.6,1,4.2,3c0.2,0.6,0.3,1.3,0.3,2c0,1.1-0.3,2.4-0.8,3.6c-1.1,2.6-2.5,4.4-4.1,5.4
				c-1.5,0.9-3.3,1.3-5.4,1.3h-0.6c-1.6-0.1-3-0.3-3.9-0.7c-0.5-0.3-0.7-0.6-0.7-1c0-0.2,0.1-0.4,0.2-0.6c0.3-0.2,0.5-0.3,0.8-0.3
				c0.2,0,0.4,0.1,0.5,0.2c0.3,0.1,0.5,0.2,0.6,0.2c0-0.1,0.9-2.1,2.5-5.9c1.3-2.9,2-4.6,2.1-5.1c-0.2,0.4-0.3,0.6-0.5,0.6
				c-0.3,0.1-0.6,0.1-0.8,0.1c-0.4,0-0.6-0.1-0.6-0.4c0-0.2,0.2-0.5,0.5-0.9C37.7,6.4,39.5,5.9,42.4,5.9z M36.5,19.1
				c0.2,0,0.4,0,0.6,0c0.9,0,1.8-0.2,2.4-0.6c1.2-0.7,2.3-2.3,3.3-4.8c0.6-1.5,0.9-2.7,0.9-3.7c0-0.4,0-0.8-0.1-1.1
				c-0.4-0.6-1-0.8-1.8-0.8c-0.2,0-0.4,0-0.6,0L36.5,19.1z"/>
			<path class="st1" d="M58.3,9.9c0,0.1,0,0.1,0,0.1v0.1c0,0.3,0.3,0.6,0.7,0.8l0,0c0.1,0.1,0.4,0.2,0.7,0.3s0.8,0.2,1.3,0.4
				c0.9,0.3,1.6,0.7,2.2,1.1c0.5,0.4,0.8,0.9,0.9,1.4v0.3c0,0.1,0,0.2,0,0.3c-0.2,1.9-0.6,3.3-1.2,4.2c-0.3,0.5-0.6,0.8-1,1.2
				c-0.3,0.3-0.6,0.6-1,0.8c-0.4,0.2-0.9,0.3-1.5,0.4c-0.7,0.1-1.4,0.2-2.4,0.3h-0.8c-0.6,0-1.1,0-1.6-0.1c-0.6-0.1-1.1-0.2-1.4-0.4
				c-0.4-0.2-0.8-0.5-1.1-0.9s-0.5-0.8-0.6-1.4V18c0-0.2,0-0.5,0-0.8c0-0.5,0.1-0.9,0.2-1.2c0.1-0.4,0.2-0.7,0.4-0.9
				c0.2-0.3,0.5-0.5,0.8-0.7s0.7-0.2,1.1-0.3h0.2c0.1,0,0.1,0,0.2,0c0.8,0,1.2,0.3,1.3,0.8c0,0.1,0,0.1,0,0.2c0,0.2,0,0.5-0.1,0.8
				c-0.1,0.4-0.2,0.8-0.3,1.2c0,0.3,0,0.6,0,0.8V18c0,0.2,0.1,0.4,0.2,0.5c0.1,0.2,0.2,0.3,0.3,0.4c0.2,0.3,0.6,0.5,1.1,0.5h0.2
				c0.1,0,0.1,0,0.2,0l0,0c1.1-0.2,1.8-0.7,2.3-1.6c0.2-0.3,0.3-0.7,0.4-1.1c0.1-0.4,0.2-1,0.2-1.6l0,0c0-0.1,0.1-0.2,0-0.3
				c0,0,0,0,0-0.1c-0.1-0.4-0.3-0.7-0.7-1c-0.2-0.1-0.4-0.2-0.7-0.3s-0.7-0.3-1.1-0.4c-1.8-0.6-2.7-1.4-2.9-2.3v-0.2
				c0-0.1,0-0.2,0-0.3v-0.1V10c0-0.2,0.1-0.3,0.1-0.4c0.3-1.2,0.9-2.1,1.7-2.8s1.9-1.1,3.2-1.4c0.2,0,0.4,0,0.6,0c0.2,0,0.3,0,0.5,0
				H61c2.2,0,3.3,0.6,3.5,1.9v0.1v0.1c0,0.1,0,0.2,0,0.3l0,0c0,1-0.4,1.5-1.2,1.6c-0.1,0-0.1,0-0.2,0H63c-0.5,0-0.9-0.2-1.1-0.6l0,0
				c-0.1-0.1-0.1-0.3-0.2-0.4V8.3c0-0.2,0.1-0.4,0.1-0.5s0-0.2,0-0.3c-0.1-0.1-0.1-0.2-0.2-0.2c-0.1-0.1-0.2-0.1-0.4-0.1
				C60,7.3,59.1,8,58.5,9.3C58.4,9.5,58.4,9.7,58.3,9.9C58.3,9.9,58.3,9.9,58.3,9.9C58.3,9.8,58.3,9.8,58.3,9.9L58.3,9.9L58.3,9.9z"
				/>
			<path class="st1" d="M76.4,9.4c-0.3,0.8-0.9,1.2-1.7,1.2c-0.1,0-0.2,0-0.3,0c-0.9-0.1-1.3-0.4-1.3-0.8c0-0.1,0-0.2,0-0.3
				c0.3-0.7,0.4-1.2,0.4-1.5s-0.1-0.4-0.3-0.4c-0.1,0-0.3,0-0.4,0.1c-1.2,1-2.2,2.5-3.2,4.3c-0.6,1.2-1.1,2.4-1.5,3.6
				c-0.2,0.8-0.4,1.5-0.4,2s0.1,0.8,0.3,0.9c0.2,0.1,0.4,0.2,0.7,0.2c0.4,0,1-0.1,1.7-0.4c1.2-1,2.1-2.1,2.5-3.3
				c0.2-0.4,0.8-0.7,1.8-0.7h0.2c1,0,1.4,0.2,1.4,0.7c0,0.1,0,0.2,0,0.3c-0.7,1.9-1.5,3.3-2.4,4.2c-1,1.1-2.7,1.6-5,1.6
				c-0.2,0-0.5,0-0.7,0H68c-1,0-1.9-0.2-2.6-0.7s-1.1-1-1.2-1.7c0-0.1,0-0.2,0-0.3c0-1.1,0.4-2.5,1-4.3c0.5-1.2,0.8-2.1,1.1-2.6
				c1.2-1.8,1.9-2.9,2.2-3.3c1.2-1.5,2.6-2.3,4.1-2.5c0.4-0.1,0.7-0.1,1-0.1c1.1,0,1.9,0.4,2.4,1.1c0.3,0.5,0.5,1,0.5,1.5
				C76.6,8.7,76.5,9.1,76.4,9.4z"/>
			<path class="st1" d="M85.6,12.9l1.6-6.1c0.4-0.5,1.1-0.8,2-0.8c0.2,0,0.4,0,0.6,0c0.6,0.1,0.9,0.2,0.9,0.4l0,0
				c0,0.3-0.3,0.6-0.8,1.1c-0.8,2.4-1.4,4.6-1.7,6.5c-0.3,2.2-0.7,4-1,5.6c-0.1,0.9-0.6,1.4-1.3,1.4c-0.6,0.1-1.1,0.1-1.5,0.1
				c-0.8,0-1.2-0.1-1.3-0.4l0,0c0-0.3,0.3-0.8,1-1.4c0.7-2.9,1-4.3,1-4.3c-0.7-0.6-1.4-0.8-2.2-0.8c-0.5,0-1.1,0.1-1.7,0.4
				c0,0.4-0.4,2.1-1,5c0,0.8-0.5,1.3-1.2,1.3C78.4,21,77.9,21,77.5,21c-0.7,0-1.1-0.1-1.2-0.4v-0.1c0-0.3,0.2-0.6,0.7-1.1
				c0.7-2.4,1.1-4.2,1.2-5.4l0.2-1.2c0.6-2.7,1.2-4.7,1.9-6.1c0.4-0.5,1.1-0.8,2-0.8c0.2,0,0.4,0,0.6,0c0.6,0.1,0.9,0.2,0.9,0.4l0,0
				c0,0.3-0.3,0.6-0.8,1.1c-0.7,2.1-1.1,3.4-1.2,3.8c-0.2,0.5-0.3,0.8-0.3,0.8s0,0,0.1,0c0,0,0,0,0.1-0.1c0,0,0.1,0,0.1,0.1
				L85.6,12.9z"/>
			<path class="st1" d="M95.3,21.4c-2.6,0-4.2-0.8-4.9-2.4c-0.3-0.7-0.5-1.6-0.6-2.4c-0.1-1,0-2.2,0.1-3.4c0.3-2.3,1.2-4.1,2.7-5.6
				c1.2-1.2,2.6-1.8,4.1-1.8c0.3,0,0.5,0,0.8,0.1c0.3,0,0.5-0.1,0.7-0.1c1.3,0,2.4,0.7,3.1,2.1c0.5,0.9,0.8,1.9,0.9,3.1
				c0.1,1,0.1,2.1-0.1,3.3c-0.4,1.7-1,3.4-1.9,4.9C99.5,20.5,97.8,21.3,95.3,21.4z M94.7,19.7c0.2,0.2,0.5,0.3,0.8,0.3
				c0.5,0,1-0.3,1.6-0.9c0.9-0.9,1.6-2.2,2.1-4.1c0.5-1.7,0.7-3.2,0.5-4.6V10c-0.2-1.5-0.7-2.5-1.2-3c-0.1,0-0.2,0-0.3,0
				c-0.6,0-1.4,0.4-2.1,1.2c-0.9,0.9-1.6,2.3-2.2,4.1c-0.5,1.7-0.6,3.2-0.5,4.6v0.4C93.6,18.7,94,19.6,94.7,19.7z"/>
			<path class="st1" d="M108.6,21.4c-2.6,0-4.2-0.8-4.9-2.4c-0.3-0.7-0.5-1.6-0.6-2.4c-0.1-1,0-2.2,0.1-3.4c0.3-2.3,1.2-4.1,2.7-5.6
				c1.2-1.2,2.6-1.8,4.1-1.8c0.3,0,0.5,0,0.8,0.1c0.3,0,0.5-0.1,0.7-0.1c1.3,0,2.4,0.7,3.1,2.1c0.5,0.9,0.8,1.9,0.9,3.1
				c0.1,1,0.1,2.1-0.1,3.3c-0.4,1.7-1,3.4-1.9,4.9C112.8,20.5,111.1,21.3,108.6,21.4z M108,19.7c0.2,0.2,0.5,0.3,0.8,0.3
				c0.5,0,1-0.3,1.6-0.9c0.9-0.9,1.6-2.2,2.1-4.1c0.5-1.7,0.7-3.2,0.5-4.6V10c-0.2-1.5-0.7-2.5-1.2-3c-0.1,0-0.2,0-0.3,0
				c-0.6,0-1.4,0.4-2.1,1.2c-0.9,0.9-1.6,2.3-2.2,4.1c-0.5,1.7-0.6,3.2-0.5,4.6v0.4C106.9,18.7,107.3,19.6,108,19.7z"/>
			<path class="st1" d="M119.3,18.9c0,0,0.1,0.1,0.3,0.1c0.1,0,0.3,0,0.4,0c0.2,0,0.4,0,0.6,0c0.7,0,1.6-0.1,2.7-0.4
				c1.3-0.6,2.2-1,2.8-1c0.3,0,0.4,0.1,0.4,0.3c0,0.4-0.6,1.4-1.8,2.8c-0.4,0.5-2.2,0.8-5.5,0.9h-0.4c-2.5,0-3.8-0.2-3.8-0.7
				c0-0.1,0-0.2,0.1-0.3c0.5-0.7,1.1-1.7,1.6-3.1s1.2-3.3,2.2-5.9c0.9-2.5,1.7-4.4,2.3-5.6c0.6-0.4,1.5-0.6,2.4-0.6
				c0.3,0,0.7,0,1,0.1c0.8,0.1,1.3,0.2,1.3,0.4c0,0.1-0.2,0.3-0.7,0.5c-1.1,0.5-2.4,2.9-4.1,7.4C120.8,14.9,120.2,16.5,119.3,18.9z"
				/>
		</g>
	</g>
</g>
<g>
	<path class="st1" d="M17.6,37.6c0.4,0.1,0.4,1.2,0.1,3.5c0,0.1,0,0.2-0.1,0.2V42l-0.3,2c0,0.2-0.1,0.3-0.3,0.2h-0.1
		c-0.3-0.1-0.2-1-0.2-3.1L15,48.6l1.4-1.7l0.5,0.1c0.1,0,0.2,0.1,0.2,0.3c-0.1,0.3-0.4,0.7-0.9,1.2c-0.6,0.8-1.2,1.9-1.8,3.4h-0.3
		c-0.2-0.2-0.3-0.5-0.2-0.8c0.2-1.1,1-4.9,2.4-11.4c0-0.5,0.1-0.9,0.1-1.2c0.1,0,0.2,0,0.4,0c0.2,0,0.4,0.5,0.5,1.3l0.1-0.5
		c0.1-0.7,0.1-1-0.1-1L17.6,37.6z"/>
	<path class="st1" d="M22.8,38.3L22.8,38.3c-0.9,1.9-1.4,3.1-1.5,3.8l-0.1,0.6c0,0.4,0,0.7,0,0.8H21c-0.4-0.3-0.6-0.6-0.5-1.1l0.2-1
		c0.3-0.8,0.7-1.6,1.1-2.4c0,0,0,0,0-0.1c-0.9,0.1-1.4,0.3-1.5,0.3c0,0.2,0,0.3,0,0.4v0.1l-0.2,1c0,0,0,0,0.1,0
		c0,0.1-0.1,0.2-0.1,0.2l0,0c0,0.1,0,0.1,0,0.1l0,0c-0.2,0.6-0.3,1.1-0.4,1.3l-0.6,3l0,0c0.1,0,0.3,0,0.7-0.2l0.1,0.4
		c-0.1,0.2-0.4,0.4-1,0.5l-0.2,0.9c-0.2,1-0.4,1.7-0.5,2.3c-0.1,0.5-0.1,0.9-0.1,1.1h0.1l0.7,0.2l0.1-1c0.6-2,1.1-2.9,1.6-2.8
		l0.2,0.3c-0.4,1.1-0.7,1.8-0.8,2l-0.2,1v0.1c0,0.3-0.1,0.7-0.1,1.2l-0.3,0.4c-0.4-0.3-0.6-0.5-0.8-0.6c-0.2,0-0.3,0-0.5-0.1
		c-0.1,0-0.2,0-0.2-0.1l-0.1,0.5c0,0.1-0.2,0.2-0.5,0.1c-0.2,0-0.3,0-0.5-0.5c-0.5,0.2-0.7,0.2-0.9,0.2c-0.1-0.1-0.2-0.2-0.2-0.3
		l0.1-0.5c0.5-0.1,0.9-0.1,1.2-0.3l0.1-0.8c0.1-0.9,0.3-1.7,0.5-2.7v-0.2c0.1-0.1,0.1-0.1,0.1-0.2c0-0.1,0-0.2,0-0.2l0,0h-0.1
		c-0.1,0-0.3,0-0.5,0c-0.3-0.1-0.5-0.3-0.6-0.7c0-0.2,0.1-0.2,0.2-0.2l0,0l0.3,0.1c0.1,0,0.1,0.1,0.1,0.1c0.5,0,0.8-0.1,0.8-0.2
		c0.1-0.2,0.5-2,1.2-5.4c0,0,0-0.1,0-0.2l0,0l0.1-0.6c-0.3,0-0.5,0-0.5,0.2l0,0.2h-0.1c0,0-0.1,0-0.2,0c-0.2-0.1-0.2-0.4-0.2-0.7
		c0.2,0,0.4-0.1,0.5,0h0.1v0.1c1.7-0.1,2.9-0.3,3.5-0.6L22.8,38.3z"/>
	<path class="st1" d="M23.1,38l0.3,0.1c0.1,0,0.3,0.2,0.3,0.6c-0.6,2.5-1.1,4.2-1.4,5.1c0,0,0,0,0.1,0c-0.3,1.3-0.6,2.2-0.7,2.8l0,0
		c-0.2,0.8-0.3,1.4-0.4,1.8l-0.4,2.7c0.3-0.1,0.7-0.2,1.2-0.3c0.1-1.6,0.2-2.7,0.3-3.5c0.1-0.1,0.1-0.1,0.1-0.2h-0.1l0.9-2.8
		c0.2,0,0.4-0.1,0.4-0.2c0.3,0.2,0.5,0.4,0.5,0.6c-0.5,0.9-0.8,2.1-1.1,3.6c0,0.2,0,0.3,0,0.4l0,0c0,0.1,0,0.1,0,0.2l0,0V49L23,49.4
		c-0.1,0.5-0.1,1.1,0.1,2v0.2c0,0.2-0.4,0.3-1.2,0.2c-0.6,0.3-1.1,0.6-1.5,1.1h-0.3c0-0.1-0.1-0.3-0.3-0.4c0.2-0.7,0.4-1.5,0.6-2.5
		l0.2-1.4l0.1-0.1h-0.1l0.2-0.2h-0.1l0.2-0.2l0.2-1.2c0.2-1.1,0.9-3.6,2.1-7.8c0-0.1-0.1-0.2,0-0.4L23.1,38z"/>
</g>
<g>
	<path class="st1" d="M92.7,34.1v0.3l-0.1,0.2l0.1,0.2L92.6,35l0.1,0.2l-0.1,0.2c0,0,0,0,0.1,0c0,0.1,0,0.3-0.1,0.4
		c-0.2,2.9-0.3,4.7-0.2,5.3c0.1,0,0.6-2.2,1.4-6.8l0.1-0.8l0,0v-0.1v-0.3c0-0.2,0.1-0.3,0.2-0.2h0.1c0.3,0.1,0.5,0.2,0.5,0.4
		c-0.1,0.9-0.3,3.2-0.8,7.2v0.8h-0.1l0.1,0.1c-0.2,2.6-0.2,6.2,0.1,10.9c-0.1,0.3-0.3,0.4-0.6,0.3h-0.1c-0.3,0-0.4-1.4-0.4-4.1
		c-0.1-0.9-0.1-3,0-6.3c-0.4,1.9-0.8,2.9-1.1,2.9c-0.4-0.7-0.2-1.3-0.2-6c-0.5,2.2-1.2,4.7-1.9,7.3h0.1c-0.1,1.1-0.3,1.6-0.7,1.6
		h-0.2c0-0.3,0-0.4-0.1-0.4c0.1-0.5,0.2-0.8,0.2-0.9h-0.1c1.2-4.4,2.3-8.5,3-12.4l0.1-1.1c0-0.1,0.1-0.2,0.3-0.3
		C92.6,32.8,92.8,33.2,92.7,34.1z"/>
	<path class="st1" d="M98.3,35.3c0.1,0,0.2,0.2,0.2,0.5l-0.1,0.7c-1,5.1-0.8,5-1.1,8.1c-0.2,1.9-0.3,4-0.4,6.5v0.1
		c0,0.2-0.1,0.3-0.3,0.3h-0.4h-0.1l0,0c-0.6-0.2-0.9-0.3-0.9-0.4c0,0-0.2,0.2-0.5,0.7h-0.1c-0.4,0-0.5-0.3-0.4-0.9l0.5-4.4l-0.1-0.3
		h0.1c0-0.2,0-0.6,0-1.2c0-0.2,0.1-0.4,0.1-0.6l0.5-4.2c0-0.1,0-0.2,0.1-0.2v-0.1c0-0.1,0-0.2,0.1-0.2v-0.2l0.3-3.2l0.1-0.7
		c0.1-0.2,0.1-0.3,0.1-0.4l1.1,0.3c0.4-0.1,0.8-0.1,1.1-0.1L98.3,35.3z M96.7,36.4l-0.2,1.4c0,0.2-0.1,0.4-0.1,0.5
		c0,0.4,0,0.7,0,0.9c-0.1,0.7-0.2,1.2-0.3,1.7L95.7,44c-0.2,2.3-0.3,3.6-0.3,3.7l-0.3,2.2l0.3,0.1l0.6,0.1c0.2-2.7,0.3-4.8,0.5-6.4
		c0.1-1.1,0.2-2,0.2-2.5l-0.1-0.3c0.1-0.2,0.1-0.3,0.1-0.5c0,0,0,0-0.1,0l0.1-0.3c0.1-0.5,0.3-1.8,0.6-3.8L96.7,36.4z"/>
	<path class="st1" d="M99.2,33.8L99.2,33.8c0.5,0,1,2.4,1.5,7.2l0.5,3.6c0-0.6,0.1-1.2,0.1-1.8h-0.1c0.1-4.8,0.1-7.4,0.1-7.8v-0.5
		c0,0,0,0,0-0.1s0.1-0.3,0.3-0.4l0.3-0.1l0,0c0.1,0,0.2,0.1,0.4,0.4c-0.2,6.9-0.1,11.8,0.2,14.7c0.1,0.4,0.2,0.8,0.2,1.3
		c-0.1,0.4-0.2,0.6-0.3,0.6L102,51c-0.3,0-1.3-3.5-2.4-12.1h-0.1l0.1-0.4l-0.2-0.6c0,0-0.1,0.2-0.1,0.7c-0.1,1.1-0.2,3.3-0.4,6.8
		c-0.1,1.1-0.1,2-0.1,2.7c-0.1,1.7-0.4,2.6-0.6,2.7H98c-0.1,0-0.2-0.1-0.4-0.4c0.2-1.2,0.3-2.4,0.4-3.6c0-0.4,0-0.9,0.1-1.3l0.2-3
		c0.3-3.7,0.5-6.6,0.5-8.6L99.2,33.8z"/>
	<path class="st1" d="M106.8,35.5l0.1,0.5c-0.1,0.3-0.4,1.4-0.7,3.4l-0.2,0.1h-0.1c-0.2,0-0.3-0.2-0.3-0.5c0.2-1.1,0.3-1.9,0.4-2.4
		v-0.2c-0.1,0-0.2,0-0.3,0c-0.3,0-0.5-0.1-0.7-0.2c0,0-0.2,1.1-0.4,3.3h0.1l-1.2,9.5c0.4-0.5,0.9-1,1.4-1.4c0.5-2.7,0.9-4.6,1.1-5.9
		h-0.1h-0.3c-0.4,0-0.6-0.3-0.6-0.9l0.2-0.1h0.2h0.1c0,0,0.1,0,0.1,0.1c0.2-0.1,0.5-0.4,0.9-0.7c0.3,0,0.5,0.2,0.5,0.4
		c-1,5-1.5,8.2-1.6,9.7c0,0.1,0,0.3,0,0.4v1.2c0,0.1,0,0.2,0.1,0.3c0,0.1-0.1,0.2-0.1,0.3s0,0.1,0,0.1h-0.5c-0.1,0-0.2-0.1-0.3-0.4
		l0.1-0.2l0.2-2.5l-0.3-0.5h-0.1c-0.6,0.7-1.2,1.8-1.5,3.5c-0.2,0.1-0.3,0.1-0.3,0.1c-0.1,0-0.3-0.2-0.4-0.6
		c0.1-0.2,0.2-1.4,0.4-3.6c0.7-5.4,1.2-9.1,1.4-11.1c0-0.4,0.1-0.8,0.1-1.1V35c0.1,0,0.2,0,0.2-0.1
		C104.8,35.1,105.6,35.3,106.8,35.5z"/>
	<path class="st1" d="M110,36.2c0.1,0,0.2,0.2,0.2,0.5l-0.1,0.7c-1,5.1-0.8,5-1.1,8.1c-0.2,1.9-0.3,4-0.4,6.5v0.1
		c0,0.2-0.1,0.3-0.3,0.3h-0.4h-0.1l0,0c-0.6-0.2-0.9-0.3-0.9-0.4c0,0-0.2,0.2-0.5,0.7h-0.1c-0.4,0-0.5-0.3-0.4-0.9l0.5-4.4l-0.1-0.3
		h0.1c0-0.2,0-0.6,0-1.2c0-0.2,0.1-0.4,0.1-0.6l0.5-4.2c0-0.1,0-0.2,0.1-0.2v-0.1c0-0.1,0-0.2,0.1-0.2v-0.2l0.3-3.2l0.1-0.7
		c0.1-0.2,0.1-0.3,0.1-0.4l1.1,0.3c0.4-0.1,0.8-0.1,1.1-0.1L110,36.2z M108.3,37.3l-0.2,1.4c0,0.2-0.1,0.4-0.1,0.5
		c0,0.4,0,0.7,0,0.9c-0.1,0.7-0.2,1.2-0.3,1.7l-0.4,3.1c-0.2,2.3-0.3,3.6-0.3,3.7l-0.3,2.2l0.3,0.1l0.6,0.1c0.2-2.7,0.3-4.8,0.5-6.4
		c0.1-1.1,0.2-2,0.2-2.5l-0.1-0.3c0.1-0.2,0.1-0.3,0.1-0.5c0,0,0,0-0.1,0l0.1-0.3c0.1-0.5,0.3-1.8,0.6-3.8L108.3,37.3z"/>
	<path class="st1" d="M113.1,36.5c0.1,0,0.2,0.2,0.2,0.5l-0.1,0.7c-1,5.1-0.8,5-1.1,8.1c-0.2,1.9-0.3,4-0.4,6.5v0.1
		c0,0.2-0.1,0.3-0.3,0.3H111h-0.1l0,0c-0.6-0.2-0.9-0.3-0.9-0.4c0,0-0.2,0.2-0.5,0.7h-0.1c-0.4,0-0.5-0.3-0.4-0.9l0.5-4.4l-0.1-0.3
		h0.1c0-0.2,0-0.6,0-1.2c0-0.2,0.1-0.4,0.1-0.6l0.5-4.2c0-0.1,0-0.2,0.1-0.2v-0.1c0-0.1,0-0.2,0.1-0.2v-0.2l0.3-3.2l0.1-0.7
		c0.1-0.2,0.1-0.3,0.1-0.4l1.1,0.3c0.4-0.1,0.8-0.1,1.1-0.1L113.1,36.5z M111.5,37.5l-0.2,1.4c0,0.2-0.1,0.4-0.1,0.5
		c0,0.4,0,0.7,0,0.9c-0.1,0.7-0.2,1.2-0.3,1.7l-0.4,3.1c-0.2,2.3-0.3,3.6-0.3,3.7l-0.3,2.2l0.3,0.1l0.6,0.1c0.2-2.7,0.3-4.8,0.5-6.4
		c0.1-1.1,0.2-2,0.2-2.5l-0.1-0.3c0.1-0.2,0.1-0.3,0.1-0.5c0,0,0,0-0.1,0l0.1-0.3c0.1-0.5,0.3-1.8,0.6-3.8L111.5,37.5z"/>
	<path class="st1" d="M114.1,36.9L114.1,36.9c0.3,0.2,1.2,0.4,2.7,0.5h0.2c0.3,0,0.8-0.1,1.5-0.2c0.1,0.3,0.1,0.6,0.1,0.8
		c-0.5,0.4-0.9,0.5-1.3,0.5l-2.6-0.2c0.8,2.1,1.5,7.2,1.5,14.2l-0.3,0.2h-0.1c-0.6-0.2-1.3-2.1-2.2-5.7c-0.3-1.3-0.6-3.5-1-6.5
		l0.6-0.2c0.3,0,0.6,1.3,0.8,3.7c0.5,3.2,1,5.2,1.4,5.8v-0.3c0.1-1.5-0.2-4.6-0.9-9.2c-0.4-1.9-0.9-2.9-1.3-2.9l-0.2-0.5
		c0.1-0.3,0.3-0.4,0.7-0.4C113.8,36.7,114,36.8,114.1,36.9z"/>
	<path class="st1" d="M123,37v0.2c-0.8,2-1.2,3.4-1.4,4.3l-0.1,0.7c0,0.5,0,0.8,0,0.9l-0.2,0.1c-0.5-0.3-0.7-0.7-0.7-1.2l0.1-1.1
		c0.3-0.9,0.6-1.8,1-2.8c0,0,0,0,0-0.1c-1,0.2-1.5,0.4-1.6,0.5c0,0.2,0.1,0.3,0.1,0.5v0.1l-0.1,1.1c0,0,0,0,0.1,0
		c0,0.1-0.1,0.2-0.1,0.2l0,0c0,0.1,0,0.1,0,0.1l0,0c-0.1,0.7-0.2,1.2-0.3,1.5l-0.4,3.4l0,0c0.1,0,0.3-0.1,0.8-0.2l0.2,0.4
		c0,0.2-0.4,0.5-1.1,0.7l-0.1,1c-0.2,1.1-0.3,2-0.3,2.6s-0.1,1,0,1.2h0.1l0.8,0.2l0.1-1.1c0.5-2.3,1-3.3,1.5-3.3l0.2,0.3
		c-0.4,1.3-0.6,2-0.7,2.3l-0.2,1.2v0.2c0,0.3,0,0.8,0,1.3l-0.3,0.4c-0.4-0.3-0.8-0.5-0.9-0.6c-0.2,0-0.4,0-0.5,0s-0.2,0-0.2,0
		l-0.1,0.6c0,0.1-0.2,0.2-0.5,0.2c-0.2,0-0.3,0-0.5-0.6c-0.5,0.2-0.8,0.3-0.9,0.3c-0.1-0.1-0.2-0.2-0.3-0.3v-0.5
		c0.5-0.1,1-0.2,1.3-0.4l0.1-0.9c0.1-1,0.2-2,0.3-3v-0.2c0.1-0.1,0.1-0.2,0.1-0.2c0-0.1,0-0.2,0-0.2l0,0h-0.1c-0.1,0-0.3,0-0.6,0.1
		c-0.3-0.1-0.6-0.3-0.7-0.7c0-0.2,0.1-0.3,0.2-0.3l0,0l0.3,0.1c0.1,0,0.1,0.1,0.1,0.1c0.6,0,0.9-0.1,0.9-0.3
		c0.1-0.3,0.3-2.3,0.9-6.1c0,0-0.1-0.1,0-0.2l0,0l0.1-0.7c-0.4,0-0.6,0.1-0.6,0.2l-0.2-0.2h-0.1c0,0-0.1,0-0.2,0.1
		c-0.2-0.1-0.3-0.4-0.3-0.8c0.3-0.1,0.5-0.1,0.6-0.1h0.1v0.1c1.8-0.2,3.1-0.6,3.9-0.9L123,37z"/>
</g>
<g>
	<path class="st1" d="M34.9,28.4c0.1,0,0.2,0.1,0.3,0.3v0.2c-1.2,2.8-1.7,4.9-1.6,6.2c0.1,0.5,0.2,0.8,0.3,0.8
		c0.3-0.1,0.5-0.1,0.6-0.1l0.2,0.3v0.1c0,0.1-0.1,0.3-0.5,0.6H34c-0.7-0.2-1.1-0.7-1.1-1.6c-0.1-1.1,0.2-2.5,0.7-4.2
		c0.3-0.7,0.4-1.1,0.4-1.2l-0.5,0.1h-0.2c-0.3,0-0.6,0-1.1,0l0,0c0,0.4,0.1,2.9,0.3,7.4v0.4c0,0.1,0.1,0.1,0.1,0.1l1-0.2
		c0.3,0.1,0.4,0.2,0.4,0.3c0,0.2-0.5,0.5-1.5,0.7V39l0.4,5.6c0,0.1-0.1,0.2-0.2,0.4c-0.3,0-0.5-0.4-0.6-1.3c0-0.1,0.1-0.2,0.1-0.3
		c0,0,0,0-0.1,0l0.1-0.5L32,39.7c0-0.1,0-0.2,0-0.2v-0.1V39l-0.1-0.1h-0.4c-0.5,0-0.8-0.1-1.1-0.5v-0.1c0-0.2,0.1-0.3,0.3-0.4
		c0.5,0.1,0.8,0.1,1,0.1H32c-0.1-4.6-0.2-7.6-0.3-9l0.2-0.1h0.2c0.7,0.2,1.2,0.3,1.4,0.3c0.5-0.1,1-0.4,1.5-0.8L34.9,28.4z"/>
	<path class="st1" d="M36.7,30l0.3,0.2l0.1,0.3L37,31c-0.1,0.5-0.1,1.4-0.1,2.7c0.1,0,0.2,0.1,0.2,0.3v0.1c-0.3,0.2-0.4,1.1-0.2,2.7
		l0.1,0.9c0.2,3,0.7,5,1.5,6c0.1,0.2,0.1,0.3,0.1,0.5c-0.1,0.1-0.2,0.2-0.3,0.2c-1.1-0.7-1.8-3-2.1-6.9L36,35l-0.6,0.2
		c0.1,2-0.1,4.6-0.7,7.7h-0.2L34,42.4V42c0.4-2.7,0.6-4.9,0.5-6.8c-0.1,0-0.2-0.1-0.3-0.4v-0.3c0.2,0,0.3-0.1,0.3-0.3l-0.2-3
		c0-0.2-0.1-0.4-0.1-0.7s0.4-0.4,1.3-0.5H36.7z M35.2,31.1c0,0.2,0,1.1,0.1,3c0.1,0,0.1,0,0.1,0.1c0.5,0,0.7-0.3,0.7-0.8l0.1-2.3
		L36,31L35.2,31.1z"/>
	<path class="st1" d="M40.2,29.6c0.3,0.1,0.4,0.3,0.4,0.4c-0.2,1.2-0.3,3-0.2,5.7c0.1,0.2,0.1,0.3,0.2,0.5l-0.1,0.6l0.1,1.2
		c0.1,1.1,0.3,2,0.6,2.7l0.7,1.8c-0.1,0.4-0.2,0.7-0.3,0.7c-1,0.1-1.5-2.9-1.6-2.9c-0.3-0.3-0.5-0.5-0.7-0.5
		c-0.6,0.2-0.9,0.6-0.9,1.3v0.7c0,0.3,0.2,0.5,0.5,0.8h0.3l0.6-0.8H40l0.1,0.5c-0.1,0.8-0.4,1.3-0.9,1.3H39c-0.7,0-1.2-0.4-1.4-1.4
		l-0.1-0.8c-0.1-1.3,0.4-2.1,1.4-2.4h0.2c0.2,0,0.4,0,0.7,0.2l-0.1-1.5c0-0.3-0.1-0.5-0.1-0.5c-0.2,0.2-0.6,0.4-1.2,0.7
		c-0.2,0-0.4-0.1-0.6-0.4c0-0.2,0.1-1.6,0.3-4.2v-1.5v-0.4c0-0.3-0.1-0.6-0.3-1V30l0.5-0.1c0.3,0.2,0.5,0.5,0.6,1l0.1,1.2
		c0,0.3-0.1,1.8-0.3,4.5c0.7-0.3,1-0.6,0.9-1.1c0-3.5,0.1-5.5,0.4-5.9L40.2,29.6z"/>
	<path class="st1" d="M44,29.2c0.8,0,1.4,0.1,1.7,0.2c-0.2,1-0.3,2-0.2,2.9l0.1,1.2L45,33.7c-0.1,0-0.2-0.1-0.3-0.4
		c0-0.5,0-0.9,0-1.1v-0.6v-0.1h-0.1c0.1-0.6,0.1-0.9,0.1-1c0-0.2-0.2-0.3-0.6-0.3c-0.1,0-0.1,0.1-0.1,0.1l0.1,1.8v0.4
		c0,0,0.1,0.1,0.1,0.2l-0.1,0.2c0.1,1.8,0.3,5,0.5,9.8v0.1c-0.1,0.3-0.2,0.5-0.3,0.5h-0.1c-0.3,0-0.5-0.1-0.5-0.3v-0.3
		c0-3.6-0.2-7.8-0.5-12.7H43l-0.1,0.1H43c0,0.5,0.1,1.5,0.2,2.8c0.1,1.3-0.1,1.9-0.6,2c-0.2-0.1-0.3-0.3-0.3-0.7s0-0.9,0.1-1.5
		l-0.1-1.2v-0.4c0-0.7-0.1-1.3-0.2-1.6c0.1-0.2,0.3-0.4,0.5-0.4h0.9L44,29.2z"/>
	<path class="st1" d="M49.8,28.9L49.8,28.9c-0.5,2-0.6,3.2-0.6,3.9v0.6c0.1,0.4,0.1,0.7,0.1,0.8l-0.1,0.1c-0.5-0.2-0.7-0.5-0.7-0.9
		v-0.9c0.1-0.8,0.3-1.6,0.5-2.6l0,0c-0.8,0.3-1.3,0.5-1.3,0.6c0.1,0.2,0.1,0.3,0.1,0.4v0.1v0.9c0,0,0,0,0.1,0c0,0.1,0,0.2,0,0.2l0,0
		c0,0.1,0,0.1,0,0.1l0,0c0,0.6,0,1.1,0,1.3l0.1,3l0,0c0.1,0,0.3-0.1,0.7-0.3l0.2,0.3c0,0.2-0.3,0.4-0.8,0.7v0.9c0,1,0,1.7,0,2.3
		c0,0.5,0.1,0.8,0.1,1.1h0.1h0.7l-0.1-1c0.1-2,0.4-3,0.8-3l0.2,0.2c-0.2,1.2-0.2,1.8-0.3,2v1v0.1c0,0.3,0.1,0.7,0.2,1.1l-0.2,0.4
		c-0.4-0.2-0.7-0.4-0.9-0.4s-0.3,0-0.4,0c-0.1,0-0.2,0-0.2,0v0.5c0,0.1-0.1,0.2-0.4,0.2c-0.2,0-0.2,0.1-0.5-0.4
		c-0.4,0.3-0.6,0.4-0.8,0.4c-0.1-0.1-0.2-0.2-0.3-0.2v-0.5c0.4-0.2,0.8-0.3,1.1-0.5L47,40.5c-0.1-0.9-0.1-1.7-0.1-2.6l-0.1-0.2
		c0-0.1,0.1-0.2,0.1-0.2c0-0.1-0.1-0.1-0.1-0.2l0,0h-0.1c-0.1,0-0.2,0.1-0.5,0.1s-0.5-0.2-0.7-0.5c0-0.2,0.1-0.3,0.1-0.3l0,0h0.3
		c0.1,0,0.1,0,0.1,0.1c0.5-0.1,0.7-0.2,0.7-0.4s0-2,0-5.3c0,0-0.1-0.1-0.1-0.2l0,0v-0.6c-0.3,0.1-0.5,0.1-0.5,0.3l-0.2-0.1h-0.1
		c0,0-0.1,0-0.2,0.1c-0.2-0.1-0.3-0.3-0.3-0.7c0.2-0.1,0.4-0.2,0.5-0.2h0.1v0.1c1.6-0.4,2.6-0.9,3.2-1.3L49.8,28.9z"/>
</g>
<g>
	<path class="st1" d="M59.4,42.8c0.4,0,0.6,1.1,0.5,3.2c0,0.1,0,0.2-0.1,0.1l0,0.6l-0.1,1.9c0,0.2-0.1,0.2-0.2,0.2l-0.1,0
		c-0.3,0-0.3-0.9-0.6-2.8l-0.7,7l1.1-1.7l0.5,0c0.1,0,0.2,0.1,0.2,0.3c0,0.3-0.2,0.7-0.7,1.2c-0.5,0.8-0.9,1.9-1.2,3.3l-0.3,0
		c-0.2-0.2-0.3-0.4-0.3-0.7c0-1.1,0.3-4.6,0.9-10.6c0-0.5,0-0.8,0-1.1c0.1,0,0.2,0,0.3-0.1c0.2,0,0.4,0.4,0.6,1.2l0-0.5
		c0-0.6,0-0.9-0.2-0.9L59.4,42.8z"/>
	<path class="st1" d="M60.6,42c0.2,0,0.4,0.1,0.4,0.2l0,0.2l0,0.2c0,0.5-0.2,2.1-0.4,4.7c0,0.3,0,0.6,0,0.8c0,0.3,0,0.4,0,0.6l0,0.1
		c0.1,0.1,0.2,0.2,0.3,0.2c0,0,0.1,0,0.1,0c0.3-2.7,0.6-4.7,0.9-6.2l0.2-0.1c0.1,0,0.2,0.1,0.5,0.4c-0.4,1.3-0.6,2.9-0.8,5.1
		c-0.1,0.4-0.1,0.6-0.1,0.8c0,0.1,0,0.2,0,0.2l0,0c0.1,0,0.1,0.1,0.1,0.2l0,0.1c0,0.1,0,0.1,0,0.2c0,0.2-0.1,0.5-0.3,0.8
		c0,0.5,0,0.8-0.1,1.2c-0.1,2,0,3.5,0.2,4.5l0,0.1c0,0.3,0.3,0.4,0.2,0.8c0,0.6-0.2,0.6-0.3,0.6c-0.2,0-0.3-0.2-0.4-0.5l0-0.3
		c-0.3-1.6-0.4-3.3-0.3-5.4c0-0.5,0-1.1,0.1-1.7c-0.1-0.1-0.2-0.1-0.3-0.1c-0.1,0-0.1,0.8-0.1,1.1c0,1.3,0,2.9,0.1,4.7l-0.2,0.2
		l-0.1,0c-0.1,0-0.2-0.1-0.5-0.3c-0.1-1.7-0.1-4,0-6.9c0.1-3.8,0.4-6,0.5-6.4L60.6,42z"/>
	<path class="st1" d="M64.9,43.1l0.2,0.2l0.1,0.3L65.1,44c-0.1,0.5-0.2,1.3-0.3,2.5c0.1,0,0.1,0.1,0.1,0.3l0,0.1
		c-0.3,0.2-0.4,1-0.5,2.5l0,0.9c-0.1,2.8,0.2,4.8,0.8,5.9c0,0.2,0.1,0.3,0.1,0.5c-0.1,0.1-0.2,0.1-0.3,0.1c-1-0.7-1.4-3-1.3-6.7
		l0.1-2.4l-0.6,0.1c-0.1,1.9-0.5,4.3-1.4,7.2l-0.2,0l-0.3-0.5l0-0.4c0.7-2.5,1.1-4.6,1.1-6.4c-0.1,0-0.2-0.1-0.2-0.4l0-0.3
		c0.2,0,0.3-0.1,0.3-0.3l0.1-2.8c0-0.2,0-0.4,0-0.6c0-0.3,0.5-0.4,1.3-0.3L64.9,43.1z M63.4,44c0,0.2-0.1,1.1-0.2,2.8
		c0,0,0.1,0,0.1,0.1c0.5,0,0.7-0.2,0.7-0.7l0.3-2.1L64.2,44L63.4,44z"/>
	<path class="st1" d="M66,43.4L66,43.4c0.3,0.1,1,0.3,2.3,0.3l0.2,0c0.2,0,0.6-0.1,1.2-0.2c0.1,0.2,0.1,0.5,0.1,0.7
		c-0.4,0.3-0.7,0.5-1,0.5l-2.2-0.1c0.7,1.7,1.5,5.9,1.8,11.7l-0.2,0.2l-0.1,0c-0.5-0.1-1.2-1.6-2-4.6c-0.3-1.1-0.6-2.9-1.1-5.3
		l0.4-0.2c0.3,0,0.6,1,0.8,3.1c0.6,2.7,1,4.2,1.4,4.8l0-0.2c0-1.3-0.3-3.8-1.1-7.6c-0.4-1.6-0.8-2.3-1.1-2.3l-0.2-0.4
		c0-0.3,0.2-0.4,0.6-0.4C65.8,43.3,65.9,43.3,66,43.4z"/>
	<path class="st1" d="M73.4,43.2l0,0.1c-0.6,1.7-0.9,2.9-1,3.6l-0.1,0.6c0,0.4,0.1,0.6,0.1,0.7l-0.2,0.1c-0.4-0.2-0.6-0.5-0.6-0.9
		l0.1-0.9c0.2-0.7,0.4-1.5,0.7-2.4c0,0,0,0,0-0.1c-0.8,0.2-1.2,0.4-1.3,0.4c0,0.2,0.1,0.3,0.1,0.4l0,0.1l-0.1,0.9c0,0,0,0,0.1,0
		c0,0.1,0,0.2-0.1,0.2l0,0c0,0,0,0.1,0,0.1h0c-0.1,0.6-0.1,1-0.2,1.3l-0.2,2.8h0c0.1,0,0.3-0.1,0.7-0.2l0.1,0.3
		c0,0.2-0.3,0.4-0.9,0.6l-0.1,0.8c-0.1,0.9-0.2,1.6-0.2,2.2c0,0.5,0,0.8,0,1l0.1,0l0.7,0.1l0-0.9c0.3-1.9,0.7-2.8,1.1-2.7l0.2,0.2
		c-0.3,1.1-0.4,1.7-0.5,1.9l-0.1,1l0,0.1c0,0.3,0,0.6,0.1,1.1L71.9,56c-0.4-0.3-0.6-0.4-0.8-0.4c-0.2,0-0.3,0-0.4,0
		c-0.1,0-0.2,0-0.2,0l-0.1,0.5c0,0.1-0.1,0.2-0.4,0.2c-0.2,0-0.2,0-0.5-0.4c-0.4,0.2-0.6,0.3-0.8,0.3c-0.1-0.1-0.2-0.2-0.2-0.2
		l0-0.4c0.4-0.1,0.8-0.2,1.1-0.4l0-0.8c0-0.8,0.1-1.6,0.2-2.5l0-0.2c0.1-0.1,0.1-0.1,0.1-0.2c0-0.1,0-0.1,0-0.2c0,0,0,0,0,0l-0.1,0
		c-0.1,0-0.2,0-0.5,0.1c-0.3,0-0.5-0.2-0.6-0.5c0-0.2,0.1-0.2,0.2-0.2l0,0l0.3,0c0.1,0,0.1,0.1,0.1,0.1c0.5,0,0.7-0.1,0.7-0.3
		c0-0.2,0.2-1.9,0.5-5c0,0,0-0.1,0-0.2l0,0l0-0.6c-0.3,0-0.5,0.1-0.5,0.2l-0.2-0.2l-0.1,0c0,0-0.1,0-0.2,0.1
		c-0.2-0.1-0.3-0.3-0.2-0.7c0.2-0.1,0.4-0.1,0.5-0.1l0.1,0l0,0.1c1.5-0.3,2.6-0.6,3.2-0.9L73.4,43.2z"/>
</g>
</svg>
