<?xml version="1.0" encoding="utf-8"?>
<!-- Generator: Adobe Illustrator 23.0.5, SVG Export Plug-In . SVG Version: 6.00 Build 0)  -->
<svg version="1.1" id="Capa_1" xmlns="http://www.w3.org/2000/svg" xmlns:xlink="http://www.w3.org/1999/xlink" x="0px" y="0px"
	 viewBox="0 0 145 60" style="enable-background:new 0 0 145 60;" xml:space="preserve">
<style type="text/css">
	.st0{fill:#999999;}
</style>
<g>
	<path class="st0" d="M23.5,40.5c0.3,0.5,0.9,0.5,1.4,0.6C24.5,40.6,24.1,40.4,23.5,40.5z"/>
	<polygon class="st0" points="24.9,41.1 25,41.1 24.9,41.1 	"/>
	<path class="st0" d="M129.2,23.5c-0.1,0-0.3,0-0.5-0.1C128.9,23.5,129.1,23.5,129.2,23.5z"/>
	<path class="st0" d="M50.5,42.4l0.1-0.8c1.3,0,0.4,0.9,1.5,0.7c0.5-1.1,1.9,0.1,2.3-0.5c0,0.1,0.6,0.1,0.5,0.5
		c0.2-0.6,0.6-0.1,0.9-0.3c0.1-0.2-0.1-0.2-0.2-0.4l0.8-0.2c0.3,0.2,0.4,0.6,0.1,0.6c2.1,0.2,12.4,0.8,14.7,0.5
		c-0.3-0.5-1-0.1-1.3-0.9c0.6-0.4,0.9,0.1,1.2-0.3c0.2,1.1,1.3,0.3,1.8,1.4l0.2-0.6l0.3,0.4c2.7-0.6,0.6-0.3,3-0.2
		c1.4-0.1,2-0.9,2.8-0.6c-0.1,0-0.4-0.4-0.1-0.5c0.1,0.5,0.9-0.4,1.1,0.2c0.3-0.1,1.5,0,1.1-0.7c0.2,0.4,1.2,0.5,0.6,0.8
		c0.3,0,0.7,0.1,0.9,0l-0.4-0.2c1.1-0.1,1.7,0.5,2.5-0.2l-0.4-0.3c0.7,0,1.2-0.1,1.5,0.7l-0.7,0.2c1.1,0,1.8,0,2.7-0.4l-0.3,0
		c1.2-0.7,7.4-1.1,8.5-2l-0.5-0.6l1-0.4c-0.1,0-0.5,1.8-0.6,1.6c1,0,4.1,0,7.1,0.2c3.1,0.1,6.1,0.4,6.9,0.7c0.7,0.4,0,0.9,0,1
		c0.9-0.1,0.4-0.6,1.2-0.4c0.2,0.1-0.1,0.4-0.2,0.5c0.3,0,0.6,0.2,0.7-0.1c-0.4-0.3-0.1-0.9-0.3-1.4l1,0.2l-0.1,0.4
		c0.2,0,0.7-1.1,1.6-0.8c1.6,0.4,3.3,0.5,4.9,0.8c-0.1,0.3-0.4,0.4-0.8,0.5c0.2,0,0.6,0,0.7,0.2c-0.3-0.5,0.7-0.2,0.4-0.4
		c1.3-0.9,2.7,0.3,3.9-0.2c0.1-0.5,1.4-4.5,2.8-8.5c1.3-4,2.7-8.1,2.9-8.6c0.4,0.1,0.7,0.2,0.8,0.3c0-0.3-0.7-0.5-1.1-0.5l-0.2,0.6
		c-0.9,0.1-0.1-0.4-1-0.5c0-0.5,0.8-0.5,1.5-0.4c-0.6-0.2-1.1-0.7-1.5-0.2c-0.5-0.3,0.2-0.6-0.5-0.9c-0.5,0.1-1.3,0.4-1.8,0l0-0.1
		c-1.3-0.7-2.2,0.4-3.4-0.3l0.2-0.1c-0.4-0.4-1.3-0.1-2.1-0.5c0.2,0.1,0.4,0.5-0.1,0.5c-0.9-0.4-1.6-0.2-2.2-0.7l-0.7,0.4
		c-1.6-0.2-5.6-0.6-9.6-0.7c-4-0.2-7.9-0.2-9.5-0.2l0.1-0.1c-4.9,0-14.7-0.2-19.6,0.4c-0.8-0.5-1.8-0.4-2.6-0.5
		c0.4,0.2,0.3,0.6-0.1,0.5c-2.4-0.1-0.2,0.3-2.6,0.5c-2.8,0.5-13.4-0.1-15.9-0.5c-1.3,0.7-3,0.2-4.3,0.6l0.1-0.2
		c-1.4,0.3-9.3-0.4-10.9-0.1l0.2,0.1C40.8,22,41,21.2,39.9,21c0.1,0.8-1.1,1.3-1.5,1.3l0-0.2c-0.7,0.1-2.3,0.8-3.4,1l0-0.4
		c-1,0.5-2.8,0.3-3.4,0.3c-1.6-0.2-4-1-6.1-0.4l-1.4-1.3l-0.2,0.1c0,0-2.2,15.3,0.6,18.5l0,0.4l0.5-0.1c0.7,0.2,1-0.3,0.9,0.1
		L25,40.5c0.7,0.1,0.2,0.4-0.1,0.6c0.3,0,0.5,0.1,0.8,0.2c0.1-0.2-0.1-0.2-0.2-0.3c0.4-0.2,0.9-0.6,1.3-0.4c0.7,0,0,0.7,0.8,0.8
		c4.2,0.3,8.2,0.8,12.4,0.7c0.1,0.2,0,0.2-0.1,0.3c1.3-0.2,2.4-0.1,3.6-0.3c0.3,0.2,0.4,0.5,0.5,0.7C43.8,42.4,50.4,42.4,50.5,42.4z
		"/>
</g>
<g>
	<path d="M40,35c-0.1,0.1-0.2,0.2-0.4,0.2s-0.3,0.1-0.4,0.1c-0.2,0-0.3-0.1-0.4-0.2s-0.1-0.3-0.1-0.6v-0.9c0-0.3,0.1-0.5,0.2-0.7
		c0.1-0.1,0.3-0.2,0.5-0.2c0.3,0,0.5,0.1,0.7,0.4c0.1,0.1,0.2,0.3,0.3,0.3c0.2,0.2,0.5,0.4,0.8,0.5c0.3,0.1,0.6,0.2,1,0.2
		c0.3,0,0.6-0.1,0.8-0.2s0.3-0.3,0.3-0.5c0-0.4-0.5-0.6-1.6-0.8c-0.2,0-0.4-0.1-0.6-0.1c-0.8-0.1-1.4-0.3-1.8-0.7
		c-0.4-0.3-0.6-0.8-0.6-1.3c0-0.7,0.2-1.2,0.7-1.5c0.5-0.4,1.2-0.5,2-0.5c0.3,0,0.6,0,0.9,0.1s0.6,0.1,1,0.2
		c0.1-0.1,0.2-0.2,0.3-0.3s0.2-0.1,0.4-0.1c0.2,0,0.3,0.1,0.4,0.2s0.2,0.3,0.2,0.5V30c0,0.2-0.1,0.4-0.2,0.5
		c-0.1,0.1-0.2,0.2-0.4,0.2c-0.2,0-0.5-0.2-1-0.5c-0.5-0.3-0.9-0.5-1.4-0.5c-0.4,0-0.6,0.1-0.8,0.2c-0.2,0.1-0.3,0.3-0.3,0.5
		c0,0.3,0.4,0.5,1.3,0.7c0.2,0,0.4,0.1,0.6,0.1c1.1,0.2,1.8,0.4,2.2,0.7c0.4,0.3,0.6,0.8,0.6,1.4c0,0.7-0.3,1.2-0.8,1.6
		c-0.5,0.4-1.3,0.6-2.2,0.6c-0.4,0-0.7,0-1.1-0.1C40.7,35.1,40.4,35,40,35z"/>
	<path d="M51.6,30.1h-0.1c-0.3,0-0.4-0.1-0.6-0.2c-0.1-0.1-0.2-0.3-0.2-0.6c0-0.3,0.1-0.5,0.2-0.6c0.1-0.1,0.4-0.2,0.7-0.2h1.3
		c0.1,0,0.2,0,0.3,0.1c0.1,0.1,0.1,0.1,0.1,0.2v4.6h0.1c0.3,0,0.4,0.1,0.6,0.2s0.2,0.3,0.2,0.6c0,0.3-0.1,0.5-0.2,0.6
		c-0.1,0.1-0.4,0.2-0.7,0.2h-1.2c-0.1,0-0.2,0-0.3-0.1c-0.1-0.1-0.1-0.1-0.1-0.2v-0.5c-0.2,0.3-0.5,0.6-0.8,0.8
		c-0.3,0.2-0.7,0.3-1.1,0.3c-0.8,0-1.3-0.2-1.7-0.7c-0.4-0.5-0.5-1.1-0.5-2.1v-2.3h-0.1c-0.3,0-0.4-0.1-0.6-0.2
		c-0.1-0.1-0.2-0.3-0.2-0.6c0-0.3,0.1-0.5,0.2-0.6c0.1-0.1,0.4-0.2,0.7-0.2h1.3c0.1,0,0.2,0,0.3,0.1s0.1,0.1,0.1,0.2v3.3
		c0,0.6,0.1,1,0.2,1.2s0.4,0.3,0.8,0.3c0.4,0,0.7-0.1,1-0.4c0.2-0.3,0.4-0.7,0.4-1.1V30.1z"/>
	<path d="M57.8,29.2c0.2-0.2,0.5-0.3,0.8-0.5c0.3-0.1,0.6-0.2,1-0.2c1,0,1.8,0.3,2.4,1s0.9,1.5,0.9,2.5c0,0.9-0.3,1.7-0.9,2.3
		c-0.6,0.6-1.4,0.9-2.4,0.9c-0.5,0-0.8-0.1-1.2-0.2s-0.6-0.4-0.8-0.7v0.5c0,0.1,0,0.2-0.1,0.2c-0.1,0.1-0.2,0.1-0.3,0.1h-1.1
		c-0.3,0-0.5-0.1-0.7-0.2c-0.1-0.1-0.2-0.3-0.2-0.6c0-0.2,0.1-0.4,0.2-0.6s0.3-0.2,0.6-0.2h0.1v-6.1H56c-0.3,0-0.4-0.1-0.6-0.2
		c-0.1-0.1-0.2-0.3-0.2-0.6c0-0.3,0.1-0.5,0.2-0.6c0.1-0.1,0.4-0.2,0.7-0.2h1.3c0.1,0,0.3,0,0.3,0.1c0.1,0.1,0.1,0.2,0.1,0.4V29.2z
		 M59.4,30.1c-0.5,0-0.8,0.2-1.1,0.5c-0.3,0.3-0.5,0.8-0.5,1.3c0,0.5,0.1,1,0.4,1.3c0.3,0.3,0.7,0.5,1.1,0.5c0.5,0,0.8-0.2,1.1-0.5
		c0.3-0.3,0.5-0.8,0.5-1.3c0-0.5-0.2-1-0.5-1.3C60.2,30.3,59.8,30.1,59.4,30.1z"/>
	<path d="M68.1,29.1c0.2-0.2,0.4-0.4,0.7-0.5s0.5-0.2,0.8-0.2c0.6,0,1.1,0.2,1.4,0.6c0.3,0.4,0.4,1,0.4,1.9v2.7h0.1
		c0.2,0,0.4,0.1,0.5,0.2c0.1,0.1,0.2,0.3,0.2,0.6c0,0.3-0.1,0.5-0.2,0.6c-0.1,0.1-0.3,0.2-0.6,0.2h-1.2c-0.1,0-0.2,0-0.3-0.1
		c-0.1-0.1-0.1-0.1-0.1-0.2v-4c0-0.3,0-0.5-0.1-0.7c-0.1-0.2-0.2-0.2-0.4-0.2c-0.2,0-0.4,0.1-0.5,0.3c-0.1,0.2-0.2,0.5-0.2,0.9v2.4
		h0.1c0.2,0,0.4,0.1,0.5,0.2c0.1,0.1,0.2,0.3,0.2,0.6c0,0.3-0.1,0.5-0.2,0.6c-0.1,0.1-0.3,0.2-0.6,0.2h-1.2c-0.1,0-0.2,0-0.3-0.1
		c-0.1-0.1-0.1-0.1-0.1-0.2v-4c0-0.3,0-0.5-0.1-0.7c-0.1-0.2-0.2-0.2-0.4-0.2c-0.2,0-0.4,0.1-0.5,0.3c-0.1,0.2-0.2,0.5-0.2,0.9v2.4
		h0.1c0.2,0,0.4,0.1,0.5,0.2c0.1,0.1,0.2,0.3,0.2,0.6c0,0.3-0.1,0.5-0.2,0.6c-0.1,0.1-0.3,0.2-0.6,0.2H64c-0.3,0-0.5-0.1-0.6-0.2
		c-0.1-0.1-0.2-0.3-0.2-0.6c0-0.2,0.1-0.4,0.2-0.6s0.3-0.2,0.5-0.2H64v-3.4h-0.1c-0.2,0-0.4-0.1-0.5-0.2s-0.2-0.3-0.2-0.6
		c0-0.3,0.1-0.5,0.2-0.6c0.1-0.1,0.3-0.2,0.6-0.2H65c0.2,0,0.3,0,0.4,0.1c0.1,0.1,0.1,0.2,0.1,0.4c0.2-0.2,0.4-0.4,0.6-0.5
		c0.2-0.1,0.5-0.2,0.8-0.2c0.3,0,0.5,0.1,0.7,0.2C67.8,28.7,68,28.8,68.1,29.1z"/>
	<path d="M77.2,33.5h1.5c0.3,0,0.6,0.1,0.7,0.2c0.1,0.1,0.2,0.3,0.2,0.6c0,0.3-0.1,0.5-0.2,0.6c-0.1,0.1-0.4,0.2-0.7,0.2H74
		c-0.3,0-0.5-0.1-0.7-0.2c-0.1-0.1-0.2-0.3-0.2-0.6c0-0.3,0.1-0.5,0.2-0.6c0.1-0.1,0.4-0.2,0.7-0.2h1.5v-3.4h-0.8
		c-0.3,0-0.5-0.1-0.7-0.2c-0.1-0.1-0.2-0.3-0.2-0.6s0.1-0.5,0.2-0.6c0.1-0.1,0.4-0.2,0.7-0.2h2.1c0.1,0,0.2,0,0.3,0.1
		s0.1,0.1,0.1,0.2V33.5z M76.2,25.4c0.3,0,0.6,0.1,0.7,0.2c0.1,0.1,0.2,0.4,0.2,0.9c0,0.5-0.1,0.8-0.2,0.9c-0.1,0.1-0.3,0.2-0.7,0.2
		c-0.4,0-0.6-0.1-0.7-0.2c-0.1-0.1-0.2-0.3-0.2-0.6c0-0.6,0.1-1,0.2-1.1C75.6,25.5,75.9,25.4,76.2,25.4z"/>
	<path d="M84.4,29h2.1c0.3,0,0.6,0.1,0.7,0.2c0.1,0.1,0.2,0.3,0.2,0.6c0,0.3-0.1,0.5-0.2,0.6c-0.1,0.1-0.4,0.2-0.7,0.2h-2.1v1.8
		c0,0.5,0.1,0.8,0.2,1c0.2,0.2,0.4,0.3,0.8,0.3c0.4,0,0.8-0.1,1.3-0.3c0.5-0.2,0.8-0.3,1-0.3c0.2,0,0.4,0.1,0.5,0.2
		c0.1,0.2,0.2,0.3,0.2,0.5c0,0.4-0.3,0.7-1,1c-0.7,0.3-1.4,0.4-2.2,0.4c-0.5,0-0.9-0.1-1.3-0.2c-0.4-0.1-0.7-0.3-0.9-0.6
		c-0.2-0.2-0.3-0.4-0.3-0.7c-0.1-0.3-0.1-0.7-0.1-1.3v-0.2v-1.8H82c-0.3,0-0.5-0.1-0.7-0.2c-0.1-0.1-0.2-0.3-0.2-0.6
		c0-0.3,0.1-0.5,0.2-0.6C81.5,29,81.7,29,82,29h0.7v-1.6c0-0.3,0.1-0.5,0.2-0.7c0.1-0.1,0.4-0.2,0.7-0.2s0.5,0.1,0.7,0.2
		c0.1,0.1,0.2,0.4,0.2,0.7V29z"/>
	<path d="M93,29h2.1c0.3,0,0.6,0.1,0.7,0.2s0.2,0.3,0.2,0.6c0,0.3-0.1,0.5-0.2,0.6c-0.1,0.1-0.4,0.2-0.7,0.2H93v1.8
		c0,0.5,0.1,0.8,0.2,1c0.2,0.2,0.4,0.3,0.8,0.3c0.4,0,0.8-0.1,1.3-0.3c0.5-0.2,0.8-0.3,1-0.3c0.2,0,0.4,0.1,0.5,0.2
		c0.1,0.2,0.2,0.3,0.2,0.5c0,0.4-0.3,0.7-1,1c-0.7,0.3-1.4,0.4-2.2,0.4c-0.5,0-0.9-0.1-1.3-0.2c-0.4-0.1-0.7-0.3-0.9-0.6
		c-0.2-0.2-0.3-0.4-0.3-0.7c-0.1-0.3-0.1-0.7-0.1-1.3v-0.2v-1.8h-0.7c-0.3,0-0.5-0.1-0.7-0.2c-0.1-0.1-0.2-0.3-0.2-0.6
		c0-0.3,0.1-0.5,0.2-0.6C90,29,90.3,29,90.6,29h0.7v-1.6c0-0.3,0.1-0.5,0.2-0.7c0.1-0.1,0.4-0.2,0.7-0.2s0.5,0.1,0.7,0.2
		c0.1,0.1,0.2,0.4,0.2,0.7V29z"/>
	<path d="M100.1,32.2c0.1,0.5,0.4,0.9,0.7,1.2c0.3,0.3,0.8,0.4,1.4,0.4c0.6,0,1.1-0.1,1.7-0.4s0.9-0.4,1-0.4c0.2,0,0.3,0.1,0.4,0.2
		s0.2,0.3,0.2,0.5c0,0.4-0.3,0.8-1,1.1c-0.6,0.3-1.5,0.5-2.4,0.5c-1.1,0-2-0.3-2.8-1s-1.1-1.5-1.1-2.4c0-1,0.4-1.8,1.1-2.4
		s1.6-1,2.8-1c1,0,1.8,0.3,2.5,0.9s1,1.3,1,2.2c0,0.3-0.1,0.5-0.2,0.6c-0.1,0.1-0.4,0.2-0.8,0.2H100.1z M103.9,31.1
		c-0.1-0.4-0.3-0.8-0.6-1c-0.3-0.2-0.8-0.4-1.3-0.4c-0.5,0-0.9,0.1-1.2,0.3c-0.3,0.2-0.5,0.6-0.6,1H103.9z"/>
	<path d="M113.6,33.5h0.1c0.3,0,0.4,0.1,0.6,0.2s0.2,0.3,0.2,0.6c0,0.3-0.1,0.5-0.2,0.6c-0.1,0.1-0.4,0.2-0.7,0.2h-1.1
		c-0.1,0-0.2,0-0.3-0.1c-0.1-0.1-0.1-0.1-0.1-0.2v-0.5c-0.2,0.3-0.5,0.6-0.9,0.7c-0.4,0.2-0.8,0.2-1.2,0.2c-0.9,0-1.7-0.3-2.3-0.9
		c-0.6-0.6-0.9-1.4-0.9-2.3c0-1,0.3-1.8,0.9-2.4c0.6-0.6,1.4-1,2.4-1c0.3,0,0.7,0.1,1,0.2c0.3,0.1,0.6,0.3,0.9,0.5v-1.8H111
		c-0.3,0-0.6-0.1-0.7-0.2c-0.1-0.1-0.2-0.3-0.2-0.6c0-0.3,0.1-0.5,0.2-0.6c0.1-0.1,0.4-0.2,0.7-0.2h2.2c0.2,0,0.3,0,0.3,0.1
		s0.1,0.2,0.1,0.4V33.5z M110.3,30.1c-0.5,0-0.8,0.2-1.1,0.5c-0.3,0.3-0.5,0.8-0.5,1.3c0,0.5,0.1,1,0.4,1.3c0.3,0.3,0.7,0.5,1.1,0.5
		s0.8-0.2,1.1-0.5c0.3-0.3,0.5-0.8,0.5-1.3c0-0.5-0.2-1-0.5-1.3C111.2,30.3,110.8,30.1,110.3,30.1z"/>
</g>
</svg>
