<?xml version="1.0" encoding="utf-8"?>
<!-- Generator: Adobe Illustrator 23.0.5, SVG Export Plug-In . SVG Version: 6.00 Build 0)  -->
<svg version="1.1" id="Capa_1" xmlns="http://www.w3.org/2000/svg" xmlns:xlink="http://www.w3.org/1999/xlink" x="0px" y="0px"
	 viewBox="0 0 145 60" style="enable-background:new 0 0 145 60;" xml:space="preserve">
<style type="text/css">
	.st0{fill:#FFCC33;}
	.st1{fill:#009966;}
	.st2{fill:#00CC99;}
	.st3{fill:#006633;}
	.st4{fill:#FFFFFF;stroke:#211915;stroke-width:0.5;stroke-miterlimit:10;}
	.st5{fill:#FFFFFF;}
</style>
<polygon class="st0" points="91.4,16.9 93.3,16.9 93.3,14.5 107.6,14.5 107.6,16.9 109.8,16.9 109.8,21.9 103.1,21.9 103.1,19.4 
	97.1,19.4 97.1,22.4 107.6,22.4 107.6,24.4 109.8,24.4 109.8,31.8 107.1,31.8 107.1,34.5 92.7,34.5 92.7,31.8 90.3,31.5 90.3,27.2 
	92.7,27.1 92.7,24 90.2,23.8 90.2,16.9 "/>
<polygon class="st0" points="68.3,14.5 85.3,14.5 85.3,16.9 87.8,16.9 87.8,26.8 85.3,26.8 85.3,29.3 75.4,29.3 75.4,34.2 
	68.3,34.2 "/>
<polygon class="st0" points="46.2,14.5 53.1,14.5 53.1,21.9 58.6,21.9 58.6,14.5 65.5,14.5 65.5,34.2 58.1,34.2 58.1,27.1 
	53.1,27.1 53.1,34.2 46.2,34.2 "/>
<g>
	<polygon class="st1" points="17.4,43.7 5.7,41.1 9.3,52.5 21,55.1 	"/>
	<polygon class="st2" points="5.7,41.1 17.4,43.7 25.4,34.8 13.7,32.3 	"/>
	<polygon class="st3" points="25.4,34.8 29,46.2 21,55.1 17.4,43.7 	"/>
	<path class="st4" d="M5.7,41.1"/>
</g>
<g>
	<polygon class="st1" points="37.7,12.2 34.9,21.1 44,19.1 46.8,10.2 	"/>
	<polygon class="st2" points="31.5,5.3 37.7,12.2 46.8,10.2 40.6,3.3 	"/>
	<polygon class="st3" points="31.5,5.3 28.6,14.2 34.9,21.1 37.7,12.2 	"/>
	<path class="st4" d="M46.8,10.2"/>
</g>
<g>
	<polygon class="st1" points="113.6,44 106.5,52.5 117.4,54.4 124.4,45.9 	"/>
	<polygon class="st2" points="109.8,33.7 113.6,44 124.4,45.9 120.6,35.6 	"/>
	<polygon class="st3" points="102.8,42.1 106.5,52.5 113.6,44 109.8,33.7 	"/>
	<path class="st4" d="M124.4,45.9"/>
</g>
<polygon class="st2" points="289,146.5 266,159.8 245.7,148.1 225.5,159.8 202.4,146.5 245.7,121.5 "/>
<polygon class="st3" points="289,146.5 289,196.5 245.7,221.5 245.7,194.9 266,183.2 266,159.8 "/>
<polygon class="st1" points="245.7,194.9 245.7,221.5 202.4,196.5 202.4,146.5 225.5,159.8 225.5,183.2 "/>
<polygon class="st2" points="266,183.2 245.7,194.9 225.5,183.2 245.7,171.5 "/>
<polygon class="st3" points="245.7,148.1 245.7,171.5 225.5,183.2 225.5,159.8 "/>
<polygon class="st1" points="266,159.8 266,183.2 245.7,171.5 245.7,148.1 "/>
<g>
	<polygon class="st0" points="25.9,14.5 25.9,20 30.9,20 30.9,34.2 38.3,34.2 38.3,19.9 43.2,19.9 43.2,14.5 	"/>
	<rect x="37" y="13.2" width="2.5" height="2.5"/>
	<rect x="39.5" y="13.2" width="2.5" height="2.5"/>
	<rect x="42" y="13.2" width="2.5" height="2.5"/>
	<rect x="34.6" y="13.2" width="2.5" height="2.5"/>
	<rect x="32.1" y="13.2" width="2.4" height="2.5"/>
	<rect x="24.7" y="13.2" width="2.5" height="2.5"/>
	<rect x="24.7" y="15.7" width="2.5" height="2.4"/>
	<rect x="42" y="15.7" width="2.5" height="2.4"/>
	<rect x="27.2" y="13.2" width="2.5" height="2.5"/>
	<rect x="29.6" y="13.2" width="2.5" height="2.5"/>
	<rect x="42" y="18.1" width="2.5" height="2.5"/>
	<rect x="37" y="25.6" width="2.5" height="2.5"/>
	<rect x="37" y="28.1" width="2.5" height="2.5"/>
	<rect x="37" y="30.5" width="2.5" height="2.5"/>
	<rect x="37" y="33" width="2.5" height="2.4"/>
	<rect x="34.6" y="33" width="2.5" height="2.4"/>
	<rect x="24.7" y="18.1" width="2.5" height="2.5"/>
	<rect x="39.5" y="18.1" width="2.5" height="2.5"/>
	<rect x="37" y="23.1" width="2.5" height="2.5"/>
	<rect x="37" y="18.1" width="2.5" height="2.5"/>
	<rect x="37" y="20.6" width="2.5" height="2.5"/>
	<rect x="34.6" y="35.5" width="2.5" height="2.4"/>
	<rect x="39.5" y="25.6" width="2.5" height="2.5"/>
	<rect x="39.5" y="28.1" width="2.5" height="2.5"/>
	<rect x="39.5" y="33" width="2.5" height="2.4"/>
	<rect x="39.5" y="30.5" width="2.5" height="2.5"/>
	<rect x="39.5" y="23.1" width="2.5" height="2.5"/>
	<rect x="39.5" y="35.5" width="2.5" height="2.4"/>
	<rect x="44.5" y="18.1" width="2.5" height="2.5"/>
	<rect x="44.5" y="15.7" width="2.5" height="2.4"/>
	<rect x="44.5" y="20.6" width="2.5" height="2.5"/>
	<rect x="27.2" y="18.1" width="2.5" height="2.5"/>
	<rect x="39.5" y="20.6" width="2.5" height="2.5"/>
	<rect x="42" y="20.6" width="2.5" height="2.5"/>
	<rect x="29.6" y="23.1" width="2.5" height="2.5"/>
	<rect x="29.6" y="25.6" width="2.5" height="2.5"/>
	<rect x="29.6" y="28.1" width="2.5" height="2.5"/>
	<rect x="29.6" y="20.6" width="2.5" height="2.5"/>
	<rect x="29.6" y="18.1" width="2.5" height="2.5"/>
	<rect x="29.6" y="33" width="2.5" height="2.4"/>
	<rect x="29.6" y="30.5" width="2.5" height="2.5"/>
	<rect x="32.1" y="35.5" width="2.4" height="2.4"/>
	<rect x="32.1" y="33" width="2.4" height="2.4"/>
	<rect x="37" y="35.5" width="2.5" height="2.4"/>
	<path d="M44.5,15.7v-2.5H47v2.5H44.5z M44.5,18.1v-2.4H47v2.4H44.5z M44.5,20.6v-2.5H47v2.5H44.5z M44.5,23.1v-2.5H47v2.5H44.5z
		 M44.5,25.6v-2.5H47v2.5H44.5z M44.5,28.1v-2.5H47v2.5H44.5z M44.5,30.5v-2.5H47v2.5H44.5z M44.5,33v-2.5H47V33H44.5z M44.5,35.5
		V33H47v2.4H44.5z M47,15.7v-2.5h2.5v2.5H47z M47,35.5V33h2.5v2.4H47z M49.4,35.5v2.4H47v-2.4H49.4z M49.4,15.7v-2.5h2.5v2.5H49.4z
		 M49.4,35.5V33h2.5v2.4H49.4z M51.9,35.5v2.4h-2.5v-2.4H51.9z M51.9,15.7v-2.5h2.4v2.5H51.9z M51.9,18.1v-2.4h2.4v2.4H51.9z
		 M51.9,20.6v-2.5h2.4v2.5H51.9z M51.9,23.1v-2.5h2.4v2.5H51.9z M51.9,28.1v-2.5h2.4v2.5H51.9z M51.9,30.5v-2.5h2.4v2.5H51.9z
		 M51.9,33v-2.5h2.4V33H51.9z M51.9,35.5V33h2.4v2.4H51.9z M54.3,35.5v2.4h-2.4v-2.4H54.3z M54.3,18.1v-2.4h2.5v2.4H54.3z
		 M54.3,20.6v-2.5h2.5v2.5H54.3z M54.3,23.1v-2.5h2.5v2.5H54.3z M54.3,28.1v-2.5h2.5v2.5H54.3z M54.3,30.5v-2.5h2.5v2.5H54.3z
		 M54.3,33v-2.5h2.5V33H54.3z M54.3,35.5V33h2.5v2.4H54.3z M56.8,35.5v2.4h-2.5v-2.4H56.8z M56.8,15.7v-2.5h2.5v2.5H56.8z
		 M56.8,18.1v-2.4h2.5v2.4H56.8z M56.8,20.6v-2.5h2.5v2.5H56.8z M56.8,23.1v-2.5h2.5v2.5H56.8z M56.8,28.1v-2.5h2.5v2.5H56.8z
		 M56.8,30.5v-2.5h2.5v2.5H56.8z M56.8,33v-2.5h2.5V33H56.8z M56.8,35.5V33h2.5v2.4H56.8z M59.3,15.7v-2.5h2.5v2.5H59.3z M59.3,35.5
		V33h2.5v2.4H59.3z M61.8,35.5v2.4h-2.5v-2.4H61.8z M61.8,15.7v-2.5h2.5v2.5H61.8z M61.8,35.5V33h2.5v2.4H61.8z M64.3,35.5v2.4h-2.5
		v-2.4H64.3z M64.3,15.7v-2.5h2.5v2.5H64.3z M64.3,18.1v-2.4h2.5v2.4H64.3z M64.3,20.6v-2.5h2.5v2.5H64.3z M64.3,23.1v-2.5h2.5v2.5
		H64.3z M64.3,25.6v-2.5h2.5v2.5H64.3z M64.3,28.1v-2.5h2.5v2.5H64.3z M64.3,30.5v-2.5h2.5v2.5H64.3z M64.3,33v-2.5h2.5V33H64.3z
		 M64.3,35.5V33h2.5v2.4H64.3z M66.7,35.5v2.4h-2.5v-2.4H66.7z M66.7,18.1v-2.4h2.4v2.4H66.7z M66.7,20.6v-2.5h2.4v2.5H66.7z
		 M66.7,23.1v-2.5h2.4v2.5H66.7z M66.7,25.6v-2.5h2.4v2.5H66.7z M66.7,28.1v-2.5h2.4v2.5H66.7z M66.7,30.5v-2.5h2.4v2.5H66.7z
		 M66.7,33v-2.5h2.4V33H66.7z M66.7,35.5V33h2.4v2.4H66.7z M69.2,35.5v2.4h-2.4v-2.4H69.2z"/>
	<path d="M66.7,15.7v-2.5h2.5v2.5H66.7z M66.7,18.1v-2.4h2.5v2.4H66.7z M66.7,20.6v-2.5h2.5v2.5H66.7z M66.7,23.1v-2.5h2.5v2.5H66.7
		z M66.7,25.6v-2.5h2.5v2.5H66.7z M66.7,28.1v-2.5h2.5v2.5H66.7z M66.7,30.5v-2.5h2.5v2.5H66.7z M66.7,33v-2.5h2.5V33H66.7z
		 M66.7,35.5V33h2.5v2.4H66.7z M69.2,15.7v-2.5h2.5v2.5H69.2z M69.2,35.5V33h2.5v2.4H69.2z M71.7,35.5v2.4h-2.5v-2.4H71.7z
		 M71.7,15.7v-2.5h2.5v2.5H71.7z M71.7,35.5V33h2.5v2.4H71.7z M74.2,35.5v2.4h-2.5v-2.4H74.2z M74.2,15.7v-2.5h2.4v2.5H74.2z
		 M74.2,20.6v-2.5h2.4v2.5H74.2z M74.2,23.1v-2.5h2.4v2.5H74.2z M74.2,25.6v-2.5h2.4v2.5H74.2z M74.2,30.5v-2.5h2.4v2.5H74.2z
		 M74.2,33v-2.5h2.4V33H74.2z M74.2,35.5V33h2.4v2.4H74.2z M76.6,35.5v2.4h-2.4v-2.4H76.6z M76.6,15.7v-2.5h2.5v2.5H76.6z
		 M76.6,20.6v-2.5h2.5v2.5H76.6z M76.6,23.1v-2.5h2.5v2.5H76.6z M76.6,25.6v-2.5h2.5v2.5H76.6z M76.6,30.5v-2.5h2.5v2.5H76.6z
		 M76.6,33v-2.5h2.5V33H76.6z M76.6,35.5V33h2.5v2.4H76.6z M79.1,35.5v2.4h-2.5v-2.4H79.1z M79.1,15.7v-2.5h2.5v2.5H79.1z
		 M79.1,20.6v-2.5h2.5v2.5H79.1z M79.1,23.1v-2.5h2.5v2.5H79.1z M79.1,25.6v-2.5h2.5v2.5H79.1z M79.1,30.5v-2.5h2.5v2.5H79.1z
		 M79.1,33v-2.5h2.5V33H79.1z M81.6,15.7v-2.5h2.5v2.5H81.6z M81.6,30.5v-2.5h2.5v2.5H81.6z M81.6,33v-2.5h2.5V33H81.6z M84.1,15.7
		v-2.5h2.5v2.5H84.1z M84.1,18.1v-2.4h2.5v2.4H84.1z M84.1,28.1v-2.5h2.5v2.5H84.1z M84.1,30.5v-2.5h2.5v2.5H84.1z M84.1,33v-2.5
		h2.5V33H84.1z M86.5,18.1v-2.4H89v2.4H86.5z M86.5,20.6v-2.5H89v2.5H86.5z M86.5,23.1v-2.5H89v2.5H86.5z M86.5,25.6v-2.5H89v2.5
		H86.5z M86.5,28.1v-2.5H89v2.5H86.5z M86.5,30.5v-2.5H89v2.5H86.5z M86.5,33v-2.5H89V33H86.5z M89,20.6v-2.5h2.4v2.5H89z M89,23.1
		v-2.5h2.4v2.5H89z M89,25.6v-2.5h2.4v2.5H89z M89,28.1v-2.5h2.4v2.5H89z M89,30.5v-2.5h2.4v2.5H89z"/>
	<rect x="106.3" y="33" width="2.5" height="2.4"/>
	<rect x="103.8" y="33" width="2.5" height="2.4"/>
	<rect x="101.4" y="33" width="2.5" height="2.4"/>
	<rect x="98.9" y="33" width="2.5" height="2.4"/>
	<rect x="91.5" y="25.6" width="2.5" height="2.5"/>
	<rect x="96.5" y="33" width="2.4" height="2.4"/>
	<rect x="108.8" y="28.1" width="2.5" height="2.5"/>
	<rect x="108.8" y="20.6" width="2.5" height="2.5"/>
	<rect x="108.8" y="18.1" width="2.5" height="2.5"/>
	<rect x="108.8" y="15.7" width="2.5" height="2.4"/>
	<rect x="108.8" y="23.1" width="2.5" height="2.5"/>
	<rect x="108.8" y="25.6" width="2.5" height="2.5"/>
	<rect x="108.8" y="30.5" width="2.5" height="2.5"/>
	<rect x="94" y="25.6" width="2.5" height="2.5"/>
	<rect x="106.3" y="30.5" width="2.5" height="2.5"/>
	<rect x="101.4" y="20.6" width="2.5" height="2.5"/>
	<rect x="106.3" y="15.7" width="2.5" height="2.4"/>
	<rect x="96.5" y="20.6" width="2.4" height="2.5"/>
	<rect x="96.5" y="25.6" width="2.4" height="2.5"/>
	<rect x="96.5" y="18.1" width="2.4" height="2.5"/>
	<rect x="106.3" y="23.1" width="2.5" height="2.5"/>
	<rect x="98.9" y="18.1" width="2.5" height="2.5"/>
	<rect x="101.4" y="18.1" width="2.5" height="2.5"/>
	<rect x="98.9" y="20.6" width="2.5" height="2.5"/>
	<rect x="101.4" y="25.6" width="2.5" height="2.5"/>
	<rect x="98.9" y="25.6" width="2.5" height="2.5"/>
	<rect x="103.8" y="20.6" width="2.5" height="2.5"/>
	<rect x="101.4" y="28.1" width="2.5" height="2.5"/>
	<rect x="98.9" y="28.1" width="2.5" height="2.5"/>
	<rect x="91.5" y="23.1" width="2.5" height="2.5"/>
	<rect x="96.5" y="28.1" width="2.4" height="2.5"/>
	<rect x="106.3" y="20.6" width="2.5" height="2.5"/>
	<rect x="106.3" y="13.2" width="2.5" height="2.5"/>
	<rect x="108.8" y="33" width="2.5" height="2.4"/>
	<rect x="108.8" y="35.5" width="2.5" height="2.4"/>
	<rect x="101.4" y="35.5" width="2.5" height="2.4"/>
	<rect x="103.8" y="35.5" width="2.5" height="2.4"/>
	<rect x="94" y="35.5" width="2.5" height="2.4"/>
	<rect x="98.9" y="35.5" width="2.5" height="2.4"/>
	<rect x="96.5" y="35.5" width="2.4" height="2.4"/>
	<rect x="111.3" y="28.1" width="2.4" height="2.5"/>
	<rect x="111.3" y="33" width="2.4" height="2.4"/>
	<rect x="111.3" y="20.6" width="2.4" height="2.5"/>
	<rect x="111.3" y="18.1" width="2.4" height="2.5"/>
	<rect x="111.3" y="23.1" width="2.4" height="2.5"/>
	<rect x="111.3" y="30.5" width="2.4" height="2.5"/>
	<rect x="111.3" y="25.6" width="2.4" height="2.5"/>
	<rect x="94" y="33" width="2.5" height="2.4"/>
	<rect x="106.3" y="35.5" width="2.5" height="2.4"/>
	<rect x="91.5" y="13.2" width="2.5" height="2.5"/>
	<rect x="94" y="13.2" width="2.5" height="2.5"/>
	<rect x="89" y="15.7" width="2.5" height="2.4"/>
	<rect x="96.5" y="13.2" width="2.4" height="2.5"/>
	<rect x="91.5" y="15.7" width="2.5" height="2.4"/>
	<rect x="98.9" y="13.2" width="2.5" height="2.5"/>
	<rect x="91.5" y="33" width="2.5" height="2.4"/>
	<rect x="101.4" y="13.2" width="2.5" height="2.5"/>
	<rect x="103.8" y="13.2" width="2.5" height="2.5"/>
	<rect x="89" y="30.5" width="2.5" height="2.5"/>
	<rect x="89" y="28.1" width="2.5" height="2.5"/>
	<rect x="91.5" y="30.5" width="2.5" height="2.5"/>
	<rect x="89" y="23.1" width="2.5" height="2.5"/>
	<rect x="89" y="20.6" width="2.5" height="2.5"/>
	<rect x="89" y="18.1" width="2.5" height="2.5"/>
	<rect x="89" y="25.6" width="2.5" height="2.5"/>
</g>
<g>
	<path class="st5" d="M26.6,40.5l2.9,10.4l3-10.4h2.1l-3.9,12.4h-2.4l-3.9-12.4H26.6z"/>
	<path class="st5" d="M36.9,43.4h4.8v8h2.6v1.5h-7.4v-1.5h2.8v-6.5h-2.7V43.4z M41.2,39.1c0.2,0.2,0.4,0.5,0.4,0.9
		c0,0.4-0.1,0.7-0.4,0.9c-0.2,0.2-0.6,0.4-1,0.4c-0.4,0-0.7-0.1-0.9-0.4c-0.2-0.2-0.4-0.5-0.4-0.9c0-0.4,0.1-0.7,0.4-0.9
		s0.6-0.4,0.9-0.4C40.6,38.8,40.9,38.9,41.2,39.1z"/>
	<path class="st5" d="M52.8,39.4l2,0.2v13.3H53l-0.1-1.2c-0.3,0.5-0.7,0.8-1.2,1c-0.5,0.2-1,0.4-1.5,0.4c-1.2,0-2.1-0.4-2.7-1.3
		c-0.6-0.9-0.9-2.1-0.9-3.6c0-1,0.1-1.8,0.4-2.6c0.3-0.8,0.7-1.3,1.3-1.8s1.2-0.6,2-0.6c1,0,1.8,0.3,2.4,1V39.4z M49.3,45.5
		c-0.4,0.6-0.6,1.4-0.6,2.6c0,2.3,0.7,3.4,2,3.4c0.8,0,1.5-0.4,2-1.3v-4.5c-0.2-0.3-0.5-0.6-0.8-0.8c-0.3-0.2-0.7-0.3-1-0.3
		C50.2,44.7,49.7,45,49.3,45.5z"/>
	<path class="st5" d="M59.6,48.8c0.1,0.9,0.3,1.6,0.8,2.1c0.5,0.5,1.1,0.7,1.8,0.7c0.4,0,0.9-0.1,1.3-0.2c0.4-0.1,0.8-0.3,1.2-0.6
		l0.9,1.2c-0.4,0.4-1,0.7-1.6,0.9c-0.6,0.2-1.2,0.3-1.9,0.3c-1,0-1.8-0.2-2.5-0.6c-0.7-0.4-1.2-1-1.6-1.7c-0.4-0.7-0.5-1.6-0.5-2.6
		c0-1,0.2-1.8,0.5-2.6c0.3-0.8,0.9-1.4,1.5-1.8s1.4-0.7,2.3-0.7c0.8,0,1.6,0.2,2.2,0.6c0.6,0.4,1.1,0.9,1.4,1.6
		c0.3,0.7,0.5,1.6,0.5,2.5c0,0.3,0,0.6,0,0.9H59.6z M60.3,45.3c-0.4,0.5-0.6,1.2-0.7,2.1H64c0-0.9-0.2-1.6-0.6-2.1
		c-0.4-0.5-0.9-0.7-1.5-0.7C61.2,44.6,60.7,44.9,60.3,45.3z"/>
	<path class="st5" d="M74.8,43.8c0.6,0.4,1.1,1,1.5,1.7c0.3,0.7,0.5,1.6,0.5,2.6c0,1-0.2,1.9-0.5,2.6c-0.3,0.8-0.8,1.3-1.5,1.7
		c-0.6,0.4-1.4,0.6-2.3,0.6c-0.9,0-1.7-0.2-2.3-0.6s-1.1-1-1.5-1.7c-0.3-0.7-0.5-1.6-0.5-2.7c0-1,0.2-1.9,0.5-2.6
		c0.3-0.8,0.8-1.3,1.5-1.8c0.6-0.4,1.4-0.6,2.3-0.6C73.4,43.1,74.2,43.3,74.8,43.8z M70.9,45.5c-0.4,0.6-0.5,1.4-0.5,2.6
		s0.2,2,0.5,2.6c0.4,0.6,0.9,0.8,1.6,0.8c0.7,0,1.3-0.3,1.6-0.8c0.4-0.6,0.5-1.4,0.5-2.6c0-1.2-0.2-2-0.5-2.6
		c-0.4-0.6-0.9-0.8-1.6-0.8C71.8,44.7,71.2,45,70.9,45.5z"/>
	<path class="st5" d="M88,43.9c-0.4,0.1-0.7,0.2-1.2,0.2s-1,0.1-1.6,0.1c0.6,0.3,1,0.6,1.3,1s0.4,0.9,0.4,1.4c0,0.6-0.2,1.2-0.5,1.7
		c-0.3,0.5-0.7,0.9-1.3,1.1c-0.6,0.3-1.2,0.4-2,0.4c-0.5,0-0.9-0.1-1.3-0.2c-0.1,0.1-0.2,0.2-0.3,0.3c-0.1,0.1-0.1,0.3-0.1,0.4
		c0,0.2,0.1,0.4,0.3,0.5c0.2,0.1,0.5,0.2,0.9,0.2h1.7c0.7,0,1.3,0.1,1.8,0.3c0.5,0.2,0.9,0.5,1.2,0.9s0.4,0.8,0.4,1.3
		c0,0.6-0.2,1.2-0.5,1.6c-0.4,0.4-0.9,0.8-1.6,1c-0.7,0.2-1.6,0.3-2.6,0.3c-1.1,0-1.9-0.1-2.5-0.3c-0.6-0.2-1.1-0.5-1.3-1
		c-0.3-0.4-0.4-1-0.4-1.6h1.8c0,0.4,0.1,0.6,0.2,0.8c0.1,0.2,0.4,0.4,0.7,0.5s0.9,0.2,1.5,0.2c1,0,1.6-0.1,2.1-0.3
		c0.4-0.2,0.6-0.6,0.6-1c0-0.4-0.2-0.7-0.5-0.9c-0.3-0.2-0.8-0.3-1.3-0.3h-1.6c-0.6,0-1.1-0.1-1.4-0.2c-0.4-0.2-0.7-0.4-0.9-0.7
		c-0.2-0.3-0.3-0.6-0.3-0.9c0-0.3,0.1-0.6,0.3-0.9s0.4-0.6,0.8-0.8c-0.6-0.3-1-0.7-1.2-1.1c-0.3-0.4-0.4-0.9-0.4-1.6
		c0-0.7,0.2-1.2,0.5-1.7c0.3-0.5,0.8-0.9,1.4-1.2s1.3-0.4,2.1-0.4c0.7,0,1.3,0,1.8-0.1c0.5-0.1,0.9-0.2,1.3-0.3
		c0.4-0.1,0.8-0.3,1.2-0.5L88,43.9z M81.7,45.1c-0.3,0.4-0.5,0.8-0.5,1.4c0,0.6,0.2,1.1,0.5,1.4c0.3,0.4,0.8,0.5,1.5,0.5
		c0.6,0,1-0.2,1.4-0.5c0.3-0.3,0.5-0.8,0.5-1.5c0-1.3-0.6-1.9-1.9-1.9C82.5,44.5,82,44.7,81.7,45.1z"/>
	<path class="st5" d="M97.5,50.5c0,0.4,0.1,0.6,0.2,0.8c0.1,0.2,0.3,0.3,0.6,0.4l-0.4,1.4c-0.5-0.1-0.9-0.2-1.2-0.4
		c-0.3-0.2-0.6-0.5-0.7-0.9c-0.3,0.4-0.8,0.8-1.3,1c-0.5,0.2-1.1,0.3-1.7,0.3c-0.6,0-1.2-0.1-1.7-0.4c-0.5-0.2-0.8-0.6-1.1-1
		s-0.4-1-0.4-1.5c0-1,0.4-1.8,1.2-2.3s1.9-0.8,3.3-0.8h1.4v-0.6c0-0.6-0.2-1-0.5-1.3s-0.9-0.4-1.6-0.4c-0.3,0-0.7,0-1.2,0.1
		s-0.9,0.2-1.4,0.4l-0.5-1.4c0.6-0.2,1.1-0.4,1.7-0.5c0.6-0.1,1.1-0.2,1.6-0.2c1.2,0,2.2,0.3,2.8,0.8c0.6,0.6,1,1.3,1,2.3V50.5z
		 M94.6,51.3c0.4-0.2,0.7-0.5,0.9-0.9v-2.1h-1.1c-0.9,0-1.6,0.2-2,0.5s-0.6,0.7-0.6,1.3c0,0.5,0.1,0.9,0.4,1.2
		c0.3,0.3,0.7,0.4,1.2,0.4C93.8,51.6,94.2,51.5,94.6,51.3z"/>
	<path class="st5" d="M108.9,43.7c0.3,0.4,0.5,1.1,0.5,2.1v7h-1.8v-6.8c0-0.4,0-0.6,0-0.8c0-0.2-0.1-0.3-0.2-0.4s-0.2-0.1-0.4-0.1
		c-0.5,0-1,0.3-1.4,0.9v7.2H104v-6.8c0-0.4,0-0.6,0-0.8c0-0.2-0.1-0.3-0.2-0.4s-0.2-0.1-0.4-0.1c-0.3,0-0.5,0.1-0.7,0.2
		c-0.2,0.1-0.5,0.4-0.7,0.7v7.2h-1.8v-9.5h1.5l0.1,1c0.3-0.4,0.6-0.7,0.9-1c0.3-0.2,0.7-0.3,1.1-0.3c0.8,0,1.4,0.4,1.6,1.2
		c0.3-0.4,0.6-0.7,0.9-0.9c0.3-0.2,0.7-0.3,1.1-0.3C108.1,43.1,108.6,43.3,108.9,43.7z"/>
	<path class="st5" d="M113.4,48.8c0.1,0.9,0.3,1.6,0.8,2.1c0.5,0.5,1.1,0.7,1.8,0.7c0.4,0,0.9-0.1,1.3-0.2s0.8-0.3,1.2-0.6l0.9,1.2
		c-0.4,0.4-1,0.7-1.6,0.9c-0.6,0.2-1.2,0.3-1.9,0.3c-1,0-1.8-0.2-2.5-0.6c-0.7-0.4-1.2-1-1.6-1.7c-0.4-0.7-0.5-1.6-0.5-2.6
		c0-1,0.2-1.8,0.5-2.6c0.4-0.8,0.9-1.4,1.5-1.8c0.7-0.4,1.4-0.7,2.3-0.7c0.8,0,1.6,0.2,2.2,0.6c0.6,0.4,1.1,0.9,1.4,1.6
		c0.3,0.7,0.5,1.6,0.5,2.5c0,0.3,0,0.6,0,0.9H113.4z M114.1,45.3c-0.4,0.5-0.6,1.2-0.7,2.1h4.4c0-0.9-0.2-1.6-0.6-2.1
		c-0.4-0.5-0.9-0.7-1.5-0.7C115,44.6,114.5,44.9,114.1,45.3z"/>
</g>
</svg>
