<?xml version="1.0" encoding="utf-8"?>
<!-- Generator: Adobe Illustrator 23.0.5, SVG Export Plug-In . SVG Version: 6.00 Build 0)  -->
<svg version="1.1" id="Capa_1" xmlns="http://www.w3.org/2000/svg" xmlns:xlink="http://www.w3.org/1999/xlink" x="0px" y="0px"
	 viewBox="0 0 145 60" style="enable-background:new 0 0 145 60;" xml:space="preserve">
<style type="text/css">
	.st0{fill:#FFFFFF;stroke:#000000;stroke-miterlimit:10;}
	.st1{fill:#CC6600;stroke:#000000;stroke-miterlimit:10;}
</style>
<g>
	<g>
		<path class="st0" d="M57.1,12.2l-2.1,14.9h-5.4l2.1-14.9h-3.1l0.6-4.6h11.5l-0.6,4.6H57.1z"/>
		<path class="st0" d="M58.6,27.1l2.7-19.5h5.4l-1,7.2h1.2l1-7.2h5.4l-2.7,19.5h-5.4l1.1-7.7h-1.2L64,27.1H58.6z"/>
		<path class="st0" d="M71.3,27.1L74,7.6h6.1c1.7,0,2.9,0.1,3.6,0.4c0.8,0.3,1.3,0.8,1.5,1.6c0.2,0.8,0.2,1.8,0,3.1l-0.5,3.5
			c-0.1,1.1-0.3,1.9-0.6,2.5s-0.6,1.1-1.1,1.5c-0.5,0.4-1.1,0.7-1.9,0.8c-0.8,0.1-1.8,0.2-3,0.2h-0.7l-0.8,5.7H71.3z M79.5,11.9
			h-0.7l-0.7,5.2h0.7c0.3,0,0.4-0.2,0.5-0.5l0.6-4.1C79.9,12.1,79.8,11.9,79.5,11.9z"/>
		<path class="st0" d="M92.1,7.5L92.1,7.5c1.3,0,2.3,0.1,3,0.2c0.7,0.1,1.2,0.4,1.6,0.8c0.4,0.4,0.6,0.9,0.6,1.6
			c0,0.7,0,1.5-0.1,2.5L97,14.3h-5.4l0.3-1.9c0.1-0.4-0.1-0.5-0.4-0.5h-0.1c-0.3,0-0.5,0.2-0.5,0.5l-0.1,0.8
			c-0.1,0.6-0.1,0.9,0.1,1.1s0.6,0.4,1.4,0.7l1.5,0.6c0.3,0.1,0.6,0.2,0.8,0.3c0.2,0.1,0.4,0.2,0.6,0.3c0.2,0.1,0.4,0.3,0.5,0.4
			c0.1,0.1,0.2,0.3,0.3,0.5c0.1,0.2,0.2,0.4,0.2,0.7c0,0.3,0.1,0.5,0.1,0.9c0,0.3,0,0.7-0.1,1.2L96,22.1c-0.2,1.4-0.5,2.5-0.9,3.1
			c-0.4,0.7-1,1.1-1.8,1.4c-0.8,0.3-2.1,0.5-3.8,0.6c-1.7,0.1-3,0-3.8-0.3c-0.8-0.3-1.3-0.8-1.5-1.6c-0.2-0.8-0.2-1.9,0-3.2l0.2-1.7
			h5.3l-0.3,2c-0.1,0.4,0.1,0.5,0.4,0.5h0.1c0.3,0,0.4-0.2,0.5-0.5l0.2-1.2c0-0.1,0-0.2,0-0.3s0-0.2,0-0.2c0-0.1,0-0.1-0.1-0.2
			c0,0-0.1-0.1-0.2-0.2c-0.1-0.1-0.2-0.1-0.2-0.1S90.1,20.1,90,20c-0.2-0.1-0.3-0.1-0.4-0.2l-1.8-0.7c-0.3-0.1-0.5-0.2-0.7-0.3
			c-0.2-0.1-0.4-0.2-0.6-0.3c-0.2-0.1-0.4-0.2-0.5-0.3s-0.2-0.2-0.4-0.4c-0.1-0.2-0.2-0.3-0.3-0.5c-0.1-0.2-0.1-0.4-0.2-0.7
			c-0.1-0.3-0.1-0.5-0.1-0.8c0-0.3,0-0.6,0.1-1l0.3-2.2c0.1-1.1,0.3-1.9,0.6-2.5c0.2-0.6,0.6-1.1,1.1-1.5s1.1-0.7,1.9-0.8
			S90.8,7.5,92.1,7.5z"/>
		<path class="st1" d="M28.1,49l2.7-19.5h6.1c1.7,0,2.9,0.1,3.6,0.4c0.8,0.3,1.3,0.8,1.5,1.6c0.2,0.8,0.2,1.8,0,3.1l-0.5,3.5
			c-0.1,1.1-0.3,1.9-0.6,2.5c-0.2,0.6-0.6,1.1-1.1,1.5S38.8,43,38,43.1c-0.8,0.1-1.8,0.2-3,0.2h-0.7L33.5,49H28.1z M36.3,33.8h-0.7
			L34.9,39h0.7c0.3,0,0.4-0.2,0.5-0.5l0.6-4.1C36.8,34,36.6,33.8,36.3,33.8z"/>
		<path class="st1" d="M49.1,29.4h0.3c1.7,0,2.9,0.1,3.7,0.4c0.8,0.3,1.2,0.8,1.5,1.6c0.2,0.8,0.2,1.8,0,3.1L53.2,44
			c-0.1,1.1-0.3,1.9-0.6,2.5c-0.2,0.6-0.6,1.1-1.1,1.5c-0.5,0.4-1.1,0.7-1.9,0.8c-0.8,0.1-1.8,0.2-3,0.2h-0.3
			c-1.7,0-2.9-0.1-3.6-0.4c-0.8-0.3-1.3-0.8-1.5-1.6c-0.2-0.8-0.2-1.8,0-3.1l1.3-9.5c0.1-1.1,0.3-1.9,0.6-2.5
			c0.2-0.6,0.6-1.1,1.1-1.5s1.1-0.7,1.9-0.8C46.8,29.5,47.8,29.4,49.1,29.4z M46.9,44.8h0.3c0.3,0,0.5-0.2,0.5-0.5l1.4-10.1
			c0.1-0.4-0.1-0.5-0.4-0.5h-0.3c-0.3,0-0.4,0.2-0.5,0.5l-1.4,10.1C46.5,44.7,46.6,44.8,46.9,44.8z"/>
		<path class="st1" d="M53.1,49l2.7-19.5h6.1c1.7,0,2.9,0.1,3.7,0.4c0.8,0.3,1.2,0.8,1.5,1.6c0.2,0.8,0.2,1.8,0,3.1l-1.3,9.2
			c-0.1,1.1-0.3,1.9-0.6,2.5C65,47,64.6,47.5,64.1,48c-0.5,0.4-1.1,0.7-1.9,0.8c-0.8,0.1-1.8,0.2-3,0.2H53.1z M61.4,33.8h-0.7
			l-1.5,10.9h0.7c0.3,0,0.5-0.2,0.5-0.5l1.4-9.8C61.8,34,61.7,33.8,61.4,33.8z"/>
		<path class="st1" d="M74.1,29.4h0.3c1.7,0,2.9,0.1,3.7,0.4s1.2,0.8,1.5,1.6c0.2,0.8,0.2,1.8,0,3.1L79,38.2h-5.4l0.6-4
			c0.1-0.4-0.1-0.5-0.4-0.5h-0.3c-0.3,0-0.5,0.2-0.5,0.5l-1.4,10.1c-0.1,0.4,0.1,0.5,0.4,0.5h0.3c0.3,0,0.4-0.2,0.5-0.5l0.6-4.5h5.4
			L78.2,44c-0.2,1.4-0.5,2.5-0.9,3.2c-0.4,0.7-1,1.2-1.9,1.5s-2.2,0.5-4,0.5c-1.7,0-2.9-0.1-3.7-0.4c-0.8-0.3-1.2-0.8-1.5-1.6
			c-0.2-0.8-0.2-1.8,0-3.1l1.3-9.5c0.1-1.1,0.3-1.9,0.6-2.5c0.2-0.6,0.6-1.1,1.1-1.5s1.1-0.7,1.9-0.8C71.8,29.5,72.9,29.4,74.1,29.4
			z"/>
		<path class="st1" d="M91.3,29.5L90.8,49h-5.4l0.3-2.9h-1.8L83.3,49h-5.4l5-19.5H91.3z M86.4,34.1l-1.6,7.4h1.3l0.5-7.4H86.4z"/>
		<path class="st1" d="M99.4,29.4L99.4,29.4c1.3,0,2.3,0.1,3,0.2c0.7,0.1,1.2,0.4,1.6,0.8c0.4,0.4,0.6,0.9,0.6,1.6
			c0,0.7,0,1.5-0.1,2.5l-0.2,1.7h-5.4l0.3-1.9c0.1-0.4-0.1-0.5-0.4-0.5h-0.1c-0.3,0-0.5,0.2-0.5,0.5L98.2,35
			c-0.1,0.6-0.1,0.9,0.1,1.1c0.1,0.2,0.6,0.4,1.4,0.7l1.5,0.6c0.3,0.1,0.6,0.2,0.8,0.3c0.2,0.1,0.4,0.2,0.6,0.3
			c0.2,0.1,0.4,0.3,0.5,0.4s0.2,0.3,0.3,0.5c0.1,0.2,0.2,0.4,0.2,0.7c0,0.2,0.1,0.5,0.1,0.9s0,0.7-0.1,1.2l-0.3,2.3
			c-0.2,1.4-0.5,2.5-0.9,3.1c-0.4,0.7-1,1.1-1.8,1.4c-0.8,0.3-2.1,0.5-3.8,0.6c-1.7,0.1-3,0-3.8-0.3c-0.8-0.3-1.3-0.8-1.5-1.6
			c-0.2-0.8-0.2-1.9,0-3.2l0.2-1.7h5.3l-0.3,2c-0.1,0.4,0.1,0.5,0.4,0.5h0.1c0.3,0,0.4-0.2,0.5-0.5l0.2-1.2c0-0.1,0-0.2,0-0.3
			c0-0.1,0-0.2,0-0.2s0-0.1-0.1-0.2c0,0-0.1-0.1-0.2-0.2c-0.1-0.1-0.2-0.1-0.2-0.1c0,0-0.1-0.1-0.3-0.1c-0.2-0.1-0.3-0.1-0.4-0.2
			l-1.8-0.7c-0.3-0.1-0.5-0.2-0.7-0.3c-0.2-0.1-0.4-0.2-0.6-0.3s-0.4-0.2-0.5-0.3s-0.2-0.2-0.4-0.4c-0.1-0.2-0.2-0.3-0.3-0.5
			c-0.1-0.2-0.1-0.4-0.2-0.7c-0.1-0.2-0.1-0.5-0.1-0.8c0-0.3,0-0.6,0.1-1l0.3-2.2c0.1-1.1,0.3-1.9,0.6-2.5c0.2-0.6,0.6-1.1,1.1-1.5
			s1.1-0.7,1.9-0.8S98.1,29.4,99.4,29.4z"/>
		<path class="st1" d="M113.2,34.1L111.1,49h-5.4l2.1-14.9h-3.1l0.6-4.6h11.5l-0.6,4.6H113.2z"/>
	</g>
</g>
</svg>
