<?xml version="1.0" encoding="utf-8"?>
<!-- Generator: Adobe Illustrator 23.0.5, SVG Export Plug-In . SVG Version: 6.00 Build 0)  -->
<svg version="1.1" id="Capa_1" xmlns="http://www.w3.org/2000/svg" xmlns:xlink="http://www.w3.org/1999/xlink" x="0px" y="0px"
	 viewBox="0 0 145 60" style="enable-background:new 0 0 145 60;" xml:space="preserve">
<style type="text/css">
	.st0{fill:#CCCCCC;}
	.st1{fill:#FFFFFF;}
</style>
<g>
	<g>
		<path class="st0" d="M43.4,40c-1.1,0-2.2-0.2-3.2-0.6c-1-0.4-1.8-1-2.6-1.7c-0.7-0.7-1.3-1.6-1.7-2.5c-0.4-1-0.6-2-0.6-3.1v-28
			h16.2v3.3H41.3v26.2c0,1,0.2,1.8,0.7,2.4c0.5,0.6,1,0.9,1.5,0.9c0.5,0,1-0.3,1.5-0.9c0.5-0.6,0.7-1.4,0.7-2.4v-7.4h5.9v6
			c0,1.1-0.2,2.1-0.6,3.1s-1,1.8-1.7,2.5c-0.7,0.7-1.6,1.3-2.6,1.7C45.6,39.8,44.6,40,43.4,40z"/>
		<path class="st0" d="M65.1,23.4h-4.4V40h-6V4.1h6v16.1H65V4.1h5.9V40h-5.8V23.4z"/>
		<path class="st0" d="M82.1,31c-0.8,0-1.5-0.1-2.1-0.3v9.2h-6.1V4.1h8.2c1.1,0,2.2,0.2,3.2,0.6c1,0.4,1.8,1,2.6,1.7
			c0.7,0.7,1.3,1.6,1.7,2.5c0.4,1,0.6,2,0.6,3.1v11.1c0,1.1-0.2,2.1-0.6,3.1c-0.4,1-1,1.8-1.7,2.5c-0.7,0.7-1.6,1.3-2.6,1.7
			C84.2,30.8,83.2,31,82.1,31z M84.4,10.5c0-1-0.2-1.8-0.7-2.4c-0.5-0.6-1-1-1.5-1h-2.3V28h2.2c0.5,0,1.1-0.3,1.5-0.9
			c0.5-0.6,0.7-1.4,0.7-2.4V10.5z"/>
		<path class="st0" d="M109.4,32.1c0,1.1-0.2,2.1-0.6,3.1c-0.4,1-1,1.8-1.7,2.5c-0.7,0.7-1.6,1.3-2.5,1.7c-1,0.4-2,0.6-3.2,0.6
			c-1.1,0-2.2-0.2-3.2-0.6c-1-0.4-1.8-1-2.6-1.7c-0.7-0.7-1.3-1.6-1.7-2.5c-0.4-1-0.6-2-0.6-3.1v-6h5.8v7.4c0,1,0.2,1.8,0.7,2.4
			c0.5,0.6,1,1,1.5,1c0.5,0,1-0.3,1.5-1c0.5-0.6,0.7-1.4,0.7-2.4c0.1-0.7,0.1-1.3,0.1-1.8s0-1,0-1.6c0-0.6,0-1.1-0.1-1.6
			c-0.2-0.9-0.5-1.7-1-2.3c-0.5-0.6-1.1-1.2-1.8-1.7c-0.7-0.5-1.4-1-2.2-1.4c-0.8-0.4-1.5-0.9-2.2-1.4c-0.7-0.5-1.3-1.1-1.8-1.8
			c-0.5-0.7-0.9-1.5-1.1-2.5c-0.1-0.5-0.2-1.1-0.2-1.7c0-0.6,0-1.2,0-1.8c0-0.6,0.1-1.1,0.1-1.5c0.1-0.4,0.1-0.7,0.1-0.7
			c0-1.1,0.2-2.1,0.6-3.1c0.4-1,1-1.8,1.7-2.5c0.7-0.7,1.6-1.3,2.5-1.7c1-0.4,2-0.6,3.2-0.6c1.1,0,2.2,0.2,3.2,0.6
			c1,0.4,1.8,1,2.6,1.7s1.3,1.6,1.7,2.5c0.4,1,0.6,2,0.6,3.1v6h-5.8v-7.4c0-1-0.2-1.8-0.7-2.4s-1-1-1.5-1c-0.5,0-1.1,0.3-1.5,1
			c-0.5,0.6-0.7,1.4-0.7,2.4c-0.1,0.7-0.1,1.3-0.1,1.8c0,0.5,0,1,0,1.6c0,0.6,0,1.1,0.2,1.5c0.2,0.9,0.5,1.7,1,2.3
			c0.5,0.6,1.1,1.2,1.8,1.6c0.7,0.5,1.4,0.9,2.2,1.4c0.8,0.4,1.5,0.9,2.2,1.4c0.7,0.5,1.3,1.1,1.8,1.8c0.5,0.7,0.9,1.5,1.1,2.5
			c0.1,0.5,0.2,1.1,0.2,1.7c0,0.6,0,1.2,0,1.8c0,0.5-0.1,1-0.1,1.4C109.5,31.8,109.4,32,109.4,32.1z"/>
	</g>
	<g>
		<path class="st1" d="M51.8,55.9V43.5h2v11.3h0.8c0.2,0,0.4-0.1,0.5-0.3c0.2-0.2,0.2-0.5,0.2-0.8V43.5h2.1v9.6
			c0,0.4-0.1,0.7-0.2,1.1c-0.1,0.3-0.3,0.6-0.6,0.9c-0.3,0.2-0.5,0.4-0.9,0.6c-0.3,0.1-0.7,0.2-1.1,0.2H51.8z"/>
		<path class="st1" d="M58.4,43.5h2.1v12.4h-2.1V43.5z"/>
		<path class="st1" d="M61.6,55.9V43.5h2.8c0.4,0,0.8,0.1,1.1,0.2c0.3,0.1,0.6,0.3,0.9,0.6c0.3,0.2,0.5,0.5,0.6,0.9
			c0.1,0.3,0.2,0.7,0.2,1.1v6.9c0,0.4-0.1,0.7-0.2,1.1c-0.1,0.3-0.3,0.6-0.6,0.9c-0.3,0.2-0.5,0.4-0.9,0.6c-0.3,0.1-0.7,0.2-1.1,0.2
			H61.6z M65.2,45.8c0-0.3-0.1-0.6-0.2-0.8c-0.2-0.2-0.3-0.3-0.5-0.3h-0.8v10.3h0.8c0.2,0,0.4-0.1,0.5-0.3c0.2-0.2,0.2-0.5,0.2-0.8
			V45.8z"/>
		<path class="st1" d="M71,55.9c-0.4,0-0.8-0.1-1.1-0.2c-0.3-0.1-0.6-0.3-0.9-0.6c-0.3-0.2-0.5-0.5-0.6-0.9
			c-0.1-0.3-0.2-0.7-0.2-1.1v-6.9c0-0.4,0.1-0.7,0.2-1.1c0.1-0.3,0.3-0.6,0.6-0.9c0.3-0.2,0.5-0.4,0.9-0.6c0.3-0.1,0.7-0.2,1.1-0.2
			c0.4,0,0.8,0.1,1.1,0.2c0.3,0.1,0.6,0.3,0.9,0.6c0.3,0.2,0.5,0.5,0.6,0.9c0.1,0.3,0.2,0.7,0.2,1.1v2.1h-2v-2.6
			c0-0.3-0.1-0.6-0.2-0.8c-0.2-0.2-0.3-0.3-0.5-0.3c-0.2,0-0.4,0.1-0.5,0.3c-0.2,0.2-0.2,0.5-0.2,0.8v3.3h3.5v1.1h-3.5v3.5
			c0,0.3,0.1,0.6,0.2,0.8c0.2,0.2,0.3,0.3,0.5,0.3c0.2,0,0.4-0.1,0.5-0.3s0.2-0.5,0.2-0.8v-2.6h2v2.1c0,0.4-0.1,0.7-0.2,1.1
			c-0.1,0.3-0.3,0.6-0.6,0.9c-0.3,0.2-0.5,0.4-0.9,0.6C71.8,55.9,71.4,55.9,71,55.9z"/>
		<path class="st1" d="M77.7,55.9c-0.4,0-0.8-0.1-1.1-0.2c-0.3-0.1-0.6-0.3-0.9-0.6c-0.3-0.2-0.5-0.5-0.6-0.9
			c-0.1-0.3-0.2-0.7-0.2-1.1v-6.9c0-0.4,0.1-0.7,0.2-1.1c0.1-0.3,0.3-0.6,0.6-0.9c0.3-0.2,0.5-0.4,0.9-0.6c0.3-0.1,0.7-0.2,1.1-0.2
			c0.4,0,0.8,0.1,1.1,0.2c0.3,0.1,0.6,0.3,0.9,0.6c0.3,0.2,0.5,0.5,0.6,0.9c0.1,0.3,0.2,0.7,0.2,1.1v6.9c0,0.4-0.1,0.7-0.2,1.1
			c-0.1,0.3-0.3,0.6-0.6,0.9c-0.3,0.2-0.5,0.4-0.9,0.6C78.4,55.9,78.1,55.9,77.7,55.9z M78.5,45.8c0-0.3-0.1-0.6-0.2-0.8
			c-0.2-0.2-0.3-0.3-0.5-0.3c-0.2,0-0.4,0.1-0.5,0.3c-0.2,0.2-0.2,0.5-0.2,0.8v8c0,0.3,0.1,0.6,0.2,0.8c0.2,0.2,0.3,0.3,0.5,0.3
			c0.2,0,0.4-0.1,0.5-0.3c0.2-0.2,0.2-0.5,0.2-0.8V45.8z"/>
		<path class="st1" d="M87.1,53.2c0,0.4-0.1,0.7-0.2,1.1c-0.1,0.3-0.3,0.6-0.6,0.9c-0.2,0.2-0.5,0.4-0.9,0.6
			c-0.3,0.1-0.7,0.2-1.1,0.2c-0.4,0-0.8-0.1-1.1-0.2c-0.3-0.1-0.6-0.3-0.9-0.6c-0.3-0.2-0.5-0.5-0.6-0.9c-0.1-0.3-0.2-0.7-0.2-1.1
			v-2.1h2v2.6c0,0.3,0.1,0.6,0.2,0.8c0.2,0.2,0.3,0.3,0.5,0.3c0.2,0,0.3-0.1,0.5-0.3c0.2-0.2,0.2-0.5,0.3-0.8c0-0.2,0-0.5,0-0.6
			c0-0.2,0-0.4,0-0.5c0-0.2,0-0.4,0-0.5c-0.1-0.3-0.2-0.6-0.4-0.8c-0.2-0.2-0.4-0.4-0.6-0.6c-0.2-0.2-0.5-0.3-0.8-0.5
			c-0.3-0.1-0.5-0.3-0.8-0.5c-0.2-0.2-0.5-0.4-0.6-0.6c-0.2-0.2-0.3-0.5-0.4-0.9c0-0.2-0.1-0.4-0.1-0.6s0-0.4,0-0.6
			c0-0.2,0-0.4,0-0.5c0-0.1,0-0.2,0-0.2c0-0.4,0.1-0.7,0.2-1.1c0.1-0.3,0.3-0.6,0.6-0.9c0.2-0.2,0.5-0.4,0.9-0.6
			c0.3-0.1,0.7-0.2,1.1-0.2c0.4,0,0.8,0.1,1.1,0.2c0.3,0.1,0.6,0.3,0.9,0.6c0.3,0.2,0.5,0.5,0.6,0.9c0.1,0.3,0.2,0.7,0.2,1.1v2.1h-2
			v-2.6c0-0.3-0.1-0.6-0.2-0.8c-0.2-0.2-0.3-0.3-0.5-0.3c-0.2,0-0.4,0.1-0.5,0.3c-0.2,0.2-0.2,0.5-0.2,0.8c0,0.2,0,0.5,0,0.6
			c0,0.2,0,0.4,0,0.6c0,0.2,0,0.4,0.1,0.5c0.1,0.3,0.2,0.6,0.4,0.8c0.2,0.2,0.4,0.4,0.6,0.6c0.2,0.2,0.5,0.3,0.8,0.5
			c0.3,0.1,0.5,0.3,0.8,0.5s0.5,0.4,0.6,0.6c0.2,0.2,0.3,0.5,0.4,0.9c0,0.2,0.1,0.4,0.1,0.6c0,0.2,0,0.4,0,0.6c0,0.2,0,0.4,0,0.5
			C87.1,53.1,87.1,53.2,87.1,53.2z"/>
	</g>
</g>
</svg>
