<?xml version="1.0" encoding="utf-8"?>
<!-- Generator: Adobe Illustrator 24.0.0, SVG Export Plug-In . SVG Version: 6.00 Build 0)  -->
<svg version="1.1" id="Capa_1" xmlns="http://www.w3.org/2000/svg" xmlns:xlink="http://www.w3.org/1999/xlink" x="0px" y="0px"
	 viewBox="0 0 145 60" style="enable-background:new 0 0 145 60;" xml:space="preserve">
<style type="text/css">
	.st0{fill:#00CC99;}
	.st1{fill:#006633;}
	.st2{fill:#009966;}
	.st3{fill:#FFCC33;}
	.st4{fill:#FFFFFF;stroke:#211915;stroke-width:0.5;stroke-miterlimit:10;}
	.st5{fill:#FFFFFF;}
</style>
<polygon class="st0" points="289.4,69.1 266.4,82.4 246.1,70.7 225.9,82.4 202.8,69.1 246.1,44.1 "/>
<polygon class="st1" points="289.4,69.1 289.4,119.1 246.1,144.1 246.1,117.5 266.4,105.8 266.4,82.4 "/>
<polygon class="st2" points="246.1,117.5 246.1,144.1 202.8,119.1 202.8,69.1 225.9,82.4 225.9,105.8 "/>
<polygon class="st0" points="266.4,105.8 246.1,117.5 225.9,105.8 246.1,94.1 "/>
<polygon class="st1" points="246.1,70.7 246.1,94.1 225.9,105.8 225.9,82.4 "/>
<polygon class="st2" points="266.4,82.4 266.4,105.8 246.1,94.1 246.1,70.7 "/>
<polygon class="st3" points="91.8,-60.5 93.7,-60.5 93.7,-62.9 108,-62.9 108,-60.5 110.2,-60.5 110.2,-55.5 103.5,-55.5 103.5,-58 
	97.5,-58 97.5,-55 108,-55 108,-53 110.2,-53 110.2,-45.6 107.5,-45.6 107.5,-42.9 93.1,-42.9 93.1,-45.6 90.7,-45.9 90.7,-50.2 
	93.1,-50.3 93.1,-53.4 90.6,-53.6 90.6,-60.5 "/>
<polygon class="st3" points="68.7,-62.9 85.7,-62.9 85.7,-60.5 88.2,-60.5 88.2,-50.6 85.7,-50.6 85.7,-48.1 75.8,-48.1 75.8,-43.2 
	68.7,-43.2 "/>
<polygon class="st3" points="46.6,-62.9 53.5,-62.9 53.5,-55.5 59,-55.5 59,-62.9 65.9,-62.9 65.9,-43.2 58.5,-43.2 58.5,-50.3 
	53.5,-50.3 53.5,-43.2 46.6,-43.2 "/>
<g>
	<polygon class="st2" points="17.8,-33.7 6.1,-36.3 9.7,-24.9 21.4,-22.3 	"/>
	<polygon class="st0" points="6.1,-36.3 17.8,-33.7 25.8,-42.6 14.1,-45.1 	"/>
	<polygon class="st1" points="25.8,-42.6 29.4,-31.2 21.4,-22.3 17.8,-33.7 	"/>
	<path class="st4" d="M6.1-36.3"/>
</g>
<g>
	<polygon class="st2" points="38.1,-65.2 35.3,-56.3 44.4,-58.3 47.2,-67.2 	"/>
	<polygon class="st0" points="31.9,-72.1 38.1,-65.2 47.2,-67.2 41,-74.1 	"/>
	<polygon class="st1" points="31.9,-72.1 29,-63.2 35.3,-56.3 38.1,-65.2 	"/>
	<path class="st4" d="M47.2-67.2"/>
</g>
<g>
	<polygon class="st2" points="114,-33.4 106.9,-24.9 117.8,-23 124.8,-31.5 	"/>
	<polygon class="st0" points="110.2,-43.7 114,-33.4 124.8,-31.5 121,-41.8 	"/>
	<polygon class="st1" points="103.2,-35.3 106.9,-24.9 114,-33.4 110.2,-43.7 	"/>
	<path class="st4" d="M124.8-31.5"/>
</g>
<g>
	<polygon class="st3" points="26.3,-62.9 26.3,-57.4 31.3,-57.4 31.3,-43.2 38.7,-43.2 38.7,-57.5 43.6,-57.5 43.6,-62.9 	"/>
	<rect x="37.4" y="-64.2" width="2.5" height="2.5"/>
	<rect x="39.9" y="-64.2" width="2.5" height="2.5"/>
	<rect x="42.4" y="-64.2" width="2.5" height="2.5"/>
	<rect x="35" y="-64.2" width="2.5" height="2.5"/>
	<rect x="32.5" y="-64.2" width="2.4" height="2.5"/>
	<rect x="25.1" y="-64.2" width="2.5" height="2.5"/>
	<rect x="25.1" y="-61.7" width="2.5" height="2.4"/>
	<rect x="42.4" y="-61.7" width="2.5" height="2.4"/>
	<rect x="27.6" y="-64.2" width="2.5" height="2.5"/>
	<rect x="30" y="-64.2" width="2.5" height="2.5"/>
	<rect x="42.4" y="-59.3" width="2.5" height="2.5"/>
	<rect x="37.4" y="-51.8" width="2.5" height="2.5"/>
	<rect x="37.4" y="-49.3" width="2.5" height="2.5"/>
	<rect x="37.4" y="-46.9" width="2.5" height="2.5"/>
	<rect x="37.4" y="-44.4" width="2.5" height="2.4"/>
	<rect x="35" y="-44.4" width="2.5" height="2.4"/>
	<rect x="25.1" y="-59.3" width="2.5" height="2.5"/>
	<rect x="39.9" y="-59.3" width="2.5" height="2.5"/>
	<rect x="37.4" y="-54.3" width="2.5" height="2.5"/>
	<rect x="37.4" y="-59.3" width="2.5" height="2.5"/>
	<rect x="37.4" y="-56.8" width="2.5" height="2.5"/>
	<rect x="35" y="-41.9" width="2.5" height="2.4"/>
	<rect x="39.9" y="-51.8" width="2.5" height="2.5"/>
	<rect x="39.9" y="-49.3" width="2.5" height="2.5"/>
	<rect x="39.9" y="-44.4" width="2.5" height="2.4"/>
	<rect x="39.9" y="-46.9" width="2.5" height="2.5"/>
	<rect x="39.9" y="-54.3" width="2.5" height="2.5"/>
	<rect x="39.9" y="-41.9" width="2.5" height="2.4"/>
	<rect x="44.9" y="-59.3" width="2.5" height="2.5"/>
	<rect x="44.9" y="-61.7" width="2.5" height="2.4"/>
	<rect x="44.9" y="-56.8" width="2.5" height="2.5"/>
	<rect x="27.6" y="-59.3" width="2.5" height="2.5"/>
	<rect x="39.9" y="-56.8" width="2.5" height="2.5"/>
	<rect x="42.4" y="-56.8" width="2.5" height="2.5"/>
	<rect x="30" y="-54.3" width="2.5" height="2.5"/>
	<rect x="30" y="-51.8" width="2.5" height="2.5"/>
	<rect x="30" y="-49.3" width="2.5" height="2.5"/>
	<rect x="30" y="-56.8" width="2.5" height="2.5"/>
	<rect x="30" y="-59.3" width="2.5" height="2.5"/>
	<rect x="30" y="-44.4" width="2.5" height="2.4"/>
	<rect x="30" y="-46.9" width="2.5" height="2.5"/>
	<rect x="32.5" y="-41.9" width="2.4" height="2.4"/>
	<rect x="32.5" y="-44.4" width="2.4" height="2.4"/>
	<rect x="37.4" y="-41.9" width="2.5" height="2.4"/>
	<path d="M44.9-61.7v-2.5h2.5v2.5H44.9z M44.9-59.3v-2.4h2.5v2.4H44.9z M44.9-56.8v-2.5h2.5v2.5H44.9z M44.9-54.3v-2.5h2.5v2.5H44.9
		z M44.9-51.8v-2.5h2.5v2.5H44.9z M44.9-49.3v-2.5h2.5v2.5H44.9z M44.9-46.9v-2.5h2.5v2.5H44.9z M44.9-44.4v-2.5h2.5v2.5H44.9z
		 M44.9-41.9v-2.5h2.5v2.4L44.9-41.9L44.9-41.9z M47.4-61.7v-2.5h2.5v2.5H47.4z M47.4-41.9v-2.5h2.5v2.4L47.4-41.9L47.4-41.9z
		 M49.8-41.9v2.4h-2.4v-2.4H49.8z M49.8-61.7v-2.5h2.5v2.5H49.8z M49.8-41.9v-2.5h2.5v2.4L49.8-41.9L49.8-41.9z M52.3-41.9v2.4h-2.5
		v-2.4H52.3z M52.3-61.7v-2.5h2.4v2.5H52.3z M52.3-59.3v-2.4h2.4v2.4H52.3z M52.3-56.8v-2.5h2.4v2.5H52.3z M52.3-54.3v-2.5h2.4v2.5
		H52.3z M52.3-49.3v-2.5h2.4v2.5H52.3z M52.3-46.9v-2.5h2.4v2.5H52.3z M52.3-44.4v-2.5h2.4v2.5H52.3z M52.3-41.9v-2.5h2.4v2.4
		L52.3-41.9L52.3-41.9z M54.7-41.9v2.4h-2.4v-2.4H54.7z M54.7-59.3v-2.4h2.5v2.4H54.7z M54.7-56.8v-2.5h2.5v2.5H54.7z M54.7-54.3
		v-2.5h2.5v2.5H54.7z M54.7-49.3v-2.5h2.5v2.5H54.7z M54.7-46.9v-2.5h2.5v2.5H54.7z M54.7-44.4v-2.5h2.5v2.5H54.7z M54.7-41.9v-2.5
		h2.5v2.4L54.7-41.9L54.7-41.9z M57.2-41.9v2.4h-2.5v-2.4H57.2z M57.2-61.7v-2.5h2.5v2.5H57.2z M57.2-59.3v-2.4h2.5v2.4H57.2z
		 M57.2-56.8v-2.5h2.5v2.5H57.2z M57.2-54.3v-2.5h2.5v2.5H57.2z M57.2-49.3v-2.5h2.5v2.5H57.2z M57.2-46.9v-2.5h2.5v2.5H57.2z
		 M57.2-44.4v-2.5h2.5v2.5H57.2z M57.2-41.9v-2.5h2.5v2.4L57.2-41.9L57.2-41.9z M59.7-61.7v-2.5h2.5v2.5H59.7z M59.7-41.9v-2.5h2.5
		v2.4L59.7-41.9L59.7-41.9z M62.2-41.9v2.4h-2.5v-2.4H62.2z M62.2-61.7v-2.5h2.5v2.5H62.2z M62.2-41.9v-2.5h2.5v2.4L62.2-41.9
		L62.2-41.9z M64.7-41.9v2.4h-2.5v-2.4H64.7z M64.7-61.7v-2.5h2.5v2.5H64.7z M64.7-59.3v-2.4h2.5v2.4H64.7z M64.7-56.8v-2.5h2.5v2.5
		H64.7z M64.7-54.3v-2.5h2.5v2.5H64.7z M64.7-51.8v-2.5h2.5v2.5H64.7z M64.7-49.3v-2.5h2.5v2.5H64.7z M64.7-46.9v-2.5h2.5v2.5H64.7z
		 M64.7-44.4v-2.5h2.5v2.5H64.7z M64.7-41.9v-2.5h2.5v2.4L64.7-41.9L64.7-41.9z M67.1-41.9v2.4h-2.5v-2.4H67.1z M67.1-59.3v-2.4h2.4
		v2.4H67.1z M67.1-56.8v-2.5h2.4v2.5H67.1z M67.1-54.3v-2.5h2.4v2.5H67.1z M67.1-51.8v-2.5h2.4v2.5H67.1z M67.1-49.3v-2.5h2.4v2.5
		H67.1z M67.1-46.9v-2.5h2.4v2.5H67.1z M67.1-44.4v-2.5h2.4v2.5H67.1z M67.1-41.9v-2.5h2.4v2.4L67.1-41.9L67.1-41.9z M69.6-41.9v2.4
		h-2.4v-2.4H69.6z"/>
	<path d="M67.1-61.7v-2.5h2.5v2.5H67.1z M67.1-59.3v-2.4h2.5v2.4H67.1z M67.1-56.8v-2.5h2.5v2.5H67.1z M67.1-54.3v-2.5h2.5v2.5H67.1
		z M67.1-51.8v-2.5h2.5v2.5H67.1z M67.1-49.3v-2.5h2.5v2.5H67.1z M67.1-46.9v-2.5h2.5v2.5H67.1z M67.1-44.4v-2.5h2.5v2.5H67.1z
		 M67.1-41.9v-2.5h2.5v2.4L67.1-41.9L67.1-41.9z M69.6-61.7v-2.5h2.5v2.5H69.6z M69.6-41.9v-2.5h2.5v2.4L69.6-41.9L69.6-41.9z
		 M72.1-41.9v2.4h-2.5v-2.4H72.1z M72.1-61.7v-2.5h2.5v2.5H72.1z M72.1-41.9v-2.5h2.5v2.4L72.1-41.9L72.1-41.9z M74.6-41.9v2.4h-2.5
		v-2.4H74.6z M74.6-61.7v-2.5H77v2.5H74.6z M74.6-56.8v-2.5H77v2.5H74.6z M74.6-54.3v-2.5H77v2.5H74.6z M74.6-51.8v-2.5H77v2.5H74.6
		z M74.6-46.9v-2.5H77v2.5H74.6z M74.6-44.4v-2.5H77v2.5H74.6z M74.6-41.9v-2.5H77v2.4L74.6-41.9L74.6-41.9z M77-41.9v2.4h-2.4v-2.4
		H77z M77-61.7v-2.5h2.5v2.5H77z M77-56.8v-2.5h2.5v2.5H77z M77-54.3v-2.5h2.5v2.5H77z M77-51.8v-2.5h2.5v2.5H77z M77-46.9v-2.5h2.5
		v2.5H77z M77-44.4v-2.5h2.5v2.5H77z M77-41.9v-2.5h2.5v2.4L77-41.9L77-41.9z M79.5-41.9v2.4H77v-2.4H79.5z M79.5-61.7v-2.5H82v2.5
		H79.5z M79.5-56.8v-2.5H82v2.5H79.5z M79.5-54.3v-2.5H82v2.5H79.5z M79.5-51.8v-2.5H82v2.5H79.5z M79.5-46.9v-2.5H82v2.5H79.5z
		 M79.5-44.4v-2.5H82v2.5H79.5z M82-61.7v-2.5h2.5v2.5H82z M82-46.9v-2.5h2.5v2.5H82z M82-44.4v-2.5h2.5v2.5H82z M84.5-61.7v-2.5H87
		v2.5H84.5z M84.5-59.3v-2.4H87v2.4H84.5z M84.5-49.3v-2.5H87v2.5H84.5z M84.5-46.9v-2.5H87v2.5H84.5z M84.5-44.4v-2.5H87v2.5H84.5z
		 M86.9-59.3v-2.4h2.5v2.4H86.9z M86.9-56.8v-2.5h2.5v2.5H86.9z M86.9-54.3v-2.5h2.5v2.5H86.9z M86.9-51.8v-2.5h2.5v2.5H86.9z
		 M86.9-49.3v-2.5h2.5v2.5H86.9z M86.9-46.9v-2.5h2.5v2.5H86.9z M86.9-44.4v-2.5h2.5v2.5H86.9z M89.4-56.8v-2.5h2.4v2.5H89.4z
		 M89.4-54.3v-2.5h2.4v2.5H89.4z M89.4-51.8v-2.5h2.4v2.5H89.4z M89.4-49.3v-2.5h2.4v2.5H89.4z M89.4-46.9v-2.5h2.4v2.5H89.4z"/>
	<rect x="106.7" y="-44.4" width="2.5" height="2.4"/>
	<rect x="104.2" y="-44.4" width="2.5" height="2.4"/>
	<rect x="101.8" y="-44.4" width="2.5" height="2.4"/>
	<rect x="99.3" y="-44.4" width="2.5" height="2.4"/>
	<rect x="91.9" y="-51.8" width="2.5" height="2.5"/>
	<rect x="96.9" y="-44.4" width="2.4" height="2.4"/>
	<rect x="109.2" y="-49.3" width="2.5" height="2.5"/>
	<rect x="109.2" y="-56.8" width="2.5" height="2.5"/>
	<rect x="109.2" y="-59.3" width="2.5" height="2.5"/>
	<rect x="109.2" y="-61.7" width="2.5" height="2.4"/>
	<rect x="109.2" y="-54.3" width="2.5" height="2.5"/>
	<rect x="109.2" y="-51.8" width="2.5" height="2.5"/>
	<rect x="109.2" y="-46.9" width="2.5" height="2.5"/>
	<rect x="94.4" y="-51.8" width="2.5" height="2.5"/>
	<rect x="106.7" y="-46.9" width="2.5" height="2.5"/>
	<rect x="101.8" y="-56.8" width="2.5" height="2.5"/>
	<rect x="106.7" y="-61.7" width="2.5" height="2.4"/>
	<rect x="96.9" y="-56.8" width="2.4" height="2.5"/>
	<rect x="96.9" y="-51.8" width="2.4" height="2.5"/>
	<rect x="96.9" y="-59.3" width="2.4" height="2.5"/>
	<rect x="106.7" y="-54.3" width="2.5" height="2.5"/>
	<rect x="99.3" y="-59.3" width="2.5" height="2.5"/>
	<rect x="101.8" y="-59.3" width="2.5" height="2.5"/>
	<rect x="99.3" y="-56.8" width="2.5" height="2.5"/>
	<rect x="101.8" y="-51.8" width="2.5" height="2.5"/>
	<rect x="99.3" y="-51.8" width="2.5" height="2.5"/>
	<rect x="104.2" y="-56.8" width="2.5" height="2.5"/>
	<rect x="101.8" y="-49.3" width="2.5" height="2.5"/>
	<rect x="99.3" y="-49.3" width="2.5" height="2.5"/>
	<rect x="91.9" y="-54.3" width="2.5" height="2.5"/>
	<rect x="96.9" y="-49.3" width="2.4" height="2.5"/>
	<rect x="106.7" y="-56.8" width="2.5" height="2.5"/>
	<rect x="106.7" y="-64.2" width="2.5" height="2.5"/>
	<rect x="109.2" y="-44.4" width="2.5" height="2.4"/>
	<rect x="109.2" y="-41.9" width="2.5" height="2.4"/>
	<rect x="101.8" y="-41.9" width="2.5" height="2.4"/>
	<rect x="104.2" y="-41.9" width="2.5" height="2.4"/>
	<rect x="94.4" y="-41.9" width="2.5" height="2.4"/>
	<rect x="99.3" y="-41.9" width="2.5" height="2.4"/>
	<rect x="96.9" y="-41.9" width="2.4" height="2.4"/>
	<rect x="111.7" y="-49.3" width="2.4" height="2.5"/>
	<rect x="111.7" y="-44.4" width="2.4" height="2.4"/>
	<rect x="111.7" y="-56.8" width="2.4" height="2.5"/>
	<rect x="111.7" y="-59.3" width="2.4" height="2.5"/>
	<rect x="111.7" y="-54.3" width="2.4" height="2.5"/>
	<rect x="111.7" y="-46.9" width="2.4" height="2.5"/>
	<rect x="111.7" y="-51.8" width="2.4" height="2.5"/>
	<rect x="94.4" y="-44.4" width="2.5" height="2.4"/>
	<rect x="106.7" y="-41.9" width="2.5" height="2.4"/>
	<rect x="91.9" y="-64.2" width="2.5" height="2.5"/>
	<rect x="94.4" y="-64.2" width="2.5" height="2.5"/>
	<rect x="89.4" y="-61.7" width="2.5" height="2.4"/>
	<rect x="96.9" y="-64.2" width="2.4" height="2.5"/>
	<rect x="91.9" y="-61.7" width="2.5" height="2.4"/>
	<rect x="99.3" y="-64.2" width="2.5" height="2.5"/>
	<rect x="91.9" y="-44.4" width="2.5" height="2.4"/>
	<rect x="101.8" y="-64.2" width="2.5" height="2.5"/>
	<rect x="104.2" y="-64.2" width="2.5" height="2.5"/>
	<rect x="89.4" y="-46.9" width="2.5" height="2.5"/>
	<rect x="89.4" y="-49.3" width="2.5" height="2.5"/>
	<rect x="91.9" y="-46.9" width="2.5" height="2.5"/>
	<rect x="89.4" y="-54.3" width="2.5" height="2.5"/>
	<rect x="89.4" y="-56.8" width="2.5" height="2.5"/>
	<rect x="89.4" y="-59.3" width="2.5" height="2.5"/>
	<rect x="89.4" y="-51.8" width="2.5" height="2.5"/>
</g>
<g>
	<path class="st5" d="M27-36.9l2.9,10.4l3-10.4H35l-3.9,12.4h-2.4l-3.9-12.4H27z"/>
	<path class="st5" d="M37.3-34h4.8v8h2.6v1.5h-7.4V-26h2.8v-6.5h-2.7L37.3-34L37.3-34z M41.6-38.3c0.2,0.2,0.4,0.5,0.4,0.9
		s-0.1,0.7-0.4,0.9c-0.2,0.2-0.6,0.4-1,0.4s-0.7-0.1-0.9-0.4c-0.2-0.2-0.4-0.5-0.4-0.9s0.1-0.7,0.4-0.9s0.6-0.4,0.9-0.4
		C41-38.6,41.3-38.5,41.6-38.3z"/>
	<path class="st5" d="M53.2-38l2,0.2v13.3h-1.8l-0.1-1.2c-0.3,0.5-0.7,0.8-1.2,1s-1,0.4-1.5,0.4c-1.2,0-2.1-0.4-2.7-1.3
		c-0.6-0.9-0.9-2.1-0.9-3.6c0-1,0.1-1.8,0.4-2.6c0.3-0.8,0.7-1.3,1.3-1.8s1.2-0.6,2-0.6c1,0,1.8,0.3,2.4,1L53.2-38L53.2-38z
		 M49.7-31.9c-0.4,0.6-0.6,1.4-0.6,2.6c0,2.3,0.7,3.4,2,3.4c0.8,0,1.5-0.4,2-1.3v-4.5c-0.2-0.3-0.5-0.6-0.8-0.8s-0.7-0.3-1-0.3
		C50.6-32.7,50.1-32.4,49.7-31.9z"/>
	<path class="st5" d="M60-28.6c0.1,0.9,0.3,1.6,0.8,2.1s1.1,0.7,1.8,0.7c0.4,0,0.9-0.1,1.3-0.2c0.4-0.1,0.8-0.3,1.2-0.6l0.9,1.2
		c-0.4,0.4-1,0.7-1.6,0.9c-0.6,0.2-1.2,0.3-1.9,0.3c-1,0-1.8-0.2-2.5-0.6c-0.7-0.4-1.2-1-1.6-1.7c-0.4-0.7-0.5-1.6-0.5-2.6
		s0.2-1.8,0.5-2.6s0.9-1.4,1.5-1.8s1.4-0.7,2.3-0.7c0.8,0,1.6,0.2,2.2,0.6c0.6,0.4,1.1,0.9,1.4,1.6c0.3,0.7,0.5,1.6,0.5,2.5
		c0,0.3,0,0.6,0,0.9C66.3-28.6,60-28.6,60-28.6z M60.7-32.1c-0.4,0.5-0.6,1.2-0.7,2.1h4.4c0-0.9-0.2-1.6-0.6-2.1
		c-0.4-0.5-0.9-0.7-1.5-0.7C61.6-32.8,61.1-32.5,60.7-32.1z"/>
	<path class="st5" d="M75.2-33.6c0.6,0.4,1.1,1,1.5,1.7c0.3,0.7,0.5,1.6,0.5,2.6s-0.2,1.9-0.5,2.6c-0.3,0.8-0.8,1.3-1.5,1.7
		c-0.6,0.4-1.4,0.6-2.3,0.6s-1.7-0.2-2.3-0.6s-1.1-1-1.5-1.7c-0.3-0.7-0.5-1.6-0.5-2.7c0-1,0.2-1.9,0.5-2.6c0.3-0.8,0.8-1.3,1.5-1.8
		c0.6-0.4,1.4-0.6,2.3-0.6C73.8-34.3,74.6-34.1,75.2-33.6z M71.3-31.9c-0.4,0.6-0.5,1.4-0.5,2.6s0.2,2,0.5,2.6
		c0.4,0.6,0.9,0.8,1.6,0.8s1.3-0.3,1.6-0.8c0.4-0.6,0.5-1.4,0.5-2.6c0-1.2-0.2-2-0.5-2.6c-0.4-0.6-0.9-0.8-1.6-0.8
		S71.6-32.4,71.3-31.9z"/>
	<path class="st5" d="M88.4-33.5c-0.4,0.1-0.7,0.2-1.2,0.2s-1,0.1-1.6,0.1c0.6,0.3,1,0.6,1.3,1s0.4,0.9,0.4,1.4
		c0,0.6-0.2,1.2-0.5,1.7s-0.7,0.9-1.3,1.1c-0.6,0.3-1.2,0.4-2,0.4c-0.5,0-0.9-0.1-1.3-0.2c-0.1,0.1-0.2,0.2-0.3,0.3
		c-0.1,0.1-0.1,0.3-0.1,0.4c0,0.2,0.1,0.4,0.3,0.5c0.2,0.1,0.5,0.2,0.9,0.2h1.7c0.7,0,1.3,0.1,1.8,0.3s0.9,0.5,1.2,0.9
		s0.4,0.8,0.4,1.3c0,0.6-0.2,1.2-0.5,1.6c-0.4,0.4-0.9,0.8-1.6,1S84.4-21,83.4-21c-1.1,0-1.9-0.1-2.5-0.3s-1.1-0.5-1.3-1
		c-0.3-0.4-0.4-1-0.4-1.6H81c0,0.4,0.1,0.6,0.2,0.8s0.4,0.4,0.7,0.5s0.9,0.2,1.5,0.2c1,0,1.6-0.1,2.1-0.3c0.4-0.2,0.6-0.6,0.6-1
		s-0.2-0.7-0.5-0.9s-0.8-0.3-1.3-0.3h-1.6c-0.6,0-1.1-0.1-1.4-0.2c-0.4-0.2-0.7-0.4-0.9-0.7c-0.2-0.3-0.3-0.6-0.3-0.9
		c0-0.3,0.1-0.6,0.3-0.9s0.4-0.6,0.8-0.8c-0.6-0.3-1-0.7-1.2-1.1c-0.3-0.4-0.4-0.9-0.4-1.6c0-0.7,0.2-1.2,0.5-1.7s0.8-0.9,1.4-1.2
		s1.3-0.4,2.1-0.4c0.7,0,1.3,0,1.8-0.1s0.9-0.2,1.3-0.3s0.8-0.3,1.2-0.5L88.4-33.5z M82.1-32.3c-0.3,0.4-0.5,0.8-0.5,1.4
		c0,0.6,0.2,1.1,0.5,1.4c0.3,0.4,0.8,0.5,1.5,0.5c0.6,0,1-0.2,1.4-0.5c0.3-0.3,0.5-0.8,0.5-1.5c0-1.3-0.6-1.9-1.9-1.9
		C82.9-32.9,82.4-32.7,82.1-32.3z"/>
	<path class="st5" d="M97.9-26.9c0,0.4,0.1,0.6,0.2,0.8s0.3,0.3,0.6,0.4l-0.4,1.4c-0.5-0.1-0.9-0.2-1.2-0.4
		c-0.3-0.2-0.6-0.5-0.7-0.9c-0.3,0.4-0.8,0.8-1.3,1s-1.1,0.3-1.7,0.3s-1.2-0.1-1.7-0.4c-0.5-0.2-0.8-0.6-1.1-1s-0.4-1-0.4-1.5
		c0-1,0.4-1.8,1.2-2.3s1.9-0.8,3.3-0.8h1.4v-0.6c0-0.6-0.2-1-0.5-1.3s-0.9-0.4-1.6-0.4c-0.3,0-0.7,0-1.2,0.1s-0.9,0.2-1.4,0.4
		l-0.5-1.4c0.6-0.2,1.1-0.4,1.7-0.5s1.1-0.2,1.6-0.2c1.2,0,2.2,0.3,2.8,0.8c0.6,0.6,1,1.3,1,2.3v4.2H97.9z M95-26.1
		c0.4-0.2,0.7-0.5,0.9-0.9v-2.1h-1.1c-0.9,0-1.6,0.2-2,0.5s-0.6,0.7-0.6,1.3c0,0.5,0.1,0.9,0.4,1.2s0.7,0.4,1.2,0.4
		C94.2-25.8,94.6-25.9,95-26.1z"/>
	<path class="st5" d="M109.3-33.7c0.3,0.4,0.5,1.1,0.5,2.1v7H108v-6.8c0-0.4,0-0.6,0-0.8s-0.1-0.3-0.2-0.4s-0.2-0.1-0.4-0.1
		c-0.5,0-1,0.3-1.4,0.9v7.2h-1.6v-6.8c0-0.4,0-0.6,0-0.8s-0.1-0.3-0.2-0.4s-0.2-0.1-0.4-0.1c-0.3,0-0.5,0.1-0.7,0.2
		c-0.2,0.1-0.5,0.4-0.7,0.7v7.2h-1.8v-9.5h1.5l0.1,1c0.3-0.4,0.6-0.7,0.9-1c0.3-0.2,0.7-0.3,1.1-0.3c0.8,0,1.4,0.4,1.6,1.2
		c0.3-0.4,0.6-0.7,0.9-0.9s0.7-0.3,1.1-0.3C108.5-34.3,109-34.1,109.3-33.7z"/>
	<path class="st5" d="M113.8-28.6c0.1,0.9,0.3,1.6,0.8,2.1s1.1,0.7,1.8,0.7c0.4,0,0.9-0.1,1.3-0.2s0.8-0.3,1.2-0.6l0.9,1.2
		c-0.4,0.4-1,0.7-1.6,0.9s-1.2,0.3-1.9,0.3c-1,0-1.8-0.2-2.5-0.6c-0.7-0.4-1.2-1-1.6-1.7s-0.5-1.6-0.5-2.6s0.2-1.8,0.5-2.6
		c0.4-0.8,0.9-1.4,1.5-1.8c0.7-0.4,1.4-0.7,2.3-0.7c0.8,0,1.6,0.2,2.2,0.6c0.6,0.4,1.1,0.9,1.4,1.6c0.3,0.7,0.5,1.6,0.5,2.5
		c0,0.3,0,0.6,0,0.9C120.1-28.6,113.8-28.6,113.8-28.6z M114.5-32.1c-0.4,0.5-0.6,1.2-0.7,2.1h4.4c0-0.9-0.2-1.6-0.6-2.1
		s-0.9-0.7-1.5-0.7C115.4-32.8,114.9-32.5,114.5-32.1z"/>
</g>
<polygon class="st3" points="91.4,16.9 93.3,16.9 93.3,14.5 107.6,14.5 107.6,16.9 109.8,16.9 109.8,21.9 103.1,21.9 103.1,19.4 
	97.1,19.4 97.1,22.4 107.6,22.4 107.6,24.4 109.8,24.4 109.8,31.8 107.1,31.8 107.1,34.5 92.7,34.5 92.7,31.8 90.3,31.5 90.3,27.2 
	92.7,27.1 92.7,24 90.2,23.8 90.2,16.9 "/>
<polygon class="st3" points="68.3,14.5 85.3,14.5 85.3,16.9 87.8,16.9 87.8,26.8 85.3,26.8 85.3,29.3 75.4,29.3 75.4,34.2 
	68.3,34.2 "/>
<polygon class="st3" points="46.2,14.5 53.1,14.5 53.1,21.9 58.6,21.9 58.6,14.5 65.5,14.5 65.5,34.2 58.1,34.2 58.1,27.1 
	53.1,27.1 53.1,34.2 46.2,34.2 "/>
<g>
	<polygon class="st2" points="17.4,43.7 5.7,41.1 9.3,52.5 21,55.1 	"/>
	<polygon class="st0" points="5.7,41.1 17.4,43.7 25.4,34.8 13.7,32.3 	"/>
	<polygon class="st1" points="25.4,34.8 29,46.2 21,55.1 17.4,43.7 	"/>
	<path class="st4" d="M5.7,41.1"/>
</g>
<g>
	<polygon class="st2" points="37.7,12.2 34.9,21.1 44,19.1 46.8,10.2 	"/>
	<polygon class="st0" points="31.5,5.3 37.7,12.2 46.8,10.2 40.6,3.3 	"/>
	<polygon class="st1" points="31.5,5.3 28.6,14.2 34.9,21.1 37.7,12.2 	"/>
	<path class="st4" d="M46.8,10.2"/>
</g>
<g>
	<polygon class="st2" points="113.6,44 106.5,52.5 117.4,54.4 124.4,45.9 	"/>
	<polygon class="st0" points="109.8,33.7 113.6,44 124.4,45.9 120.6,35.6 	"/>
	<polygon class="st1" points="102.8,42.1 106.5,52.5 113.6,44 109.8,33.7 	"/>
	<path class="st4" d="M124.4,45.9"/>
</g>
<g>
	<polygon class="st3" points="25.9,14.5 25.9,20 30.9,20 30.9,34.2 38.3,34.2 38.3,19.9 43.2,19.9 43.2,14.5 	"/>
	<rect x="37" y="13.2" width="2.5" height="2.5"/>
	<rect x="39.5" y="13.2" width="2.5" height="2.5"/>
	<rect x="42" y="13.2" width="2.5" height="2.5"/>
	<rect x="34.6" y="13.2" width="2.5" height="2.5"/>
	<rect x="32.1" y="13.2" width="2.4" height="2.5"/>
	<rect x="24.7" y="13.2" width="2.5" height="2.5"/>
	<rect x="24.7" y="15.7" width="2.5" height="2.4"/>
	<rect x="42" y="15.7" width="2.5" height="2.4"/>
	<rect x="27.2" y="13.2" width="2.5" height="2.5"/>
	<rect x="29.6" y="13.2" width="2.5" height="2.5"/>
	<rect x="42" y="18.1" width="2.5" height="2.5"/>
	<rect x="37" y="25.6" width="2.5" height="2.5"/>
	<rect x="37" y="28.1" width="2.5" height="2.5"/>
	<rect x="37" y="30.5" width="2.5" height="2.5"/>
	<rect x="37" y="33" width="2.5" height="2.4"/>
	<rect x="34.6" y="33" width="2.5" height="2.4"/>
	<rect x="24.7" y="18.1" width="2.5" height="2.5"/>
	<rect x="39.5" y="18.1" width="2.5" height="2.5"/>
	<rect x="37" y="23.1" width="2.5" height="2.5"/>
	<rect x="37" y="18.1" width="2.5" height="2.5"/>
	<rect x="37" y="20.6" width="2.5" height="2.5"/>
	<rect x="34.6" y="35.5" width="2.5" height="2.4"/>
	<rect x="39.5" y="25.6" width="2.5" height="2.5"/>
	<rect x="39.5" y="28.1" width="2.5" height="2.5"/>
	<rect x="39.5" y="33" width="2.5" height="2.4"/>
	<rect x="39.5" y="30.5" width="2.5" height="2.5"/>
	<rect x="39.5" y="23.1" width="2.5" height="2.5"/>
	<rect x="39.5" y="35.5" width="2.5" height="2.4"/>
	<rect x="44.5" y="18.1" width="2.5" height="2.5"/>
	<rect x="44.5" y="15.7" width="2.5" height="2.4"/>
	<rect x="44.5" y="20.6" width="2.5" height="2.5"/>
	<rect x="27.2" y="18.1" width="2.5" height="2.5"/>
	<rect x="39.5" y="20.6" width="2.5" height="2.5"/>
	<rect x="42" y="20.6" width="2.5" height="2.5"/>
	<rect x="29.6" y="23.1" width="2.5" height="2.5"/>
	<rect x="29.6" y="25.6" width="2.5" height="2.5"/>
	<rect x="29.6" y="28.1" width="2.5" height="2.5"/>
	<rect x="29.6" y="20.6" width="2.5" height="2.5"/>
	<rect x="29.6" y="18.1" width="2.5" height="2.5"/>
	<rect x="29.6" y="33" width="2.5" height="2.4"/>
	<rect x="29.6" y="30.5" width="2.5" height="2.5"/>
	<rect x="32.1" y="35.5" width="2.4" height="2.4"/>
	<rect x="32.1" y="33" width="2.4" height="2.4"/>
	<rect x="37" y="35.5" width="2.5" height="2.4"/>
	<path d="M44.5,15.7v-2.5H47v2.5H44.5z M44.5,18.1v-2.4H47v2.4H44.5z M44.5,20.6v-2.5H47v2.5H44.5z M44.5,23.1v-2.5H47v2.5H44.5z
		 M44.5,25.6v-2.5H47v2.5H44.5z M44.5,28.1v-2.5H47v2.5H44.5z M44.5,30.5V28H47v2.5H44.5z M44.5,33v-2.5H47V33H44.5z M44.5,35.5V33
		H47v2.4L44.5,35.5L44.5,35.5z M47,15.7v-2.5h2.5v2.5H47z M47,35.5V33h2.5v2.4L47,35.5L47,35.5z M49.4,35.5v2.4H47v-2.4H49.4z
		 M49.4,15.7v-2.5h2.5v2.5H49.4z M49.4,35.5V33h2.5v2.4L49.4,35.5L49.4,35.5z M51.9,35.5v2.4h-2.5v-2.4H51.9z M51.9,15.7v-2.5h2.4
		v2.5H51.9z M51.9,18.1v-2.4h2.4v2.4H51.9z M51.9,20.6v-2.5h2.4v2.5H51.9z M51.9,23.1v-2.5h2.4v2.5H51.9z M51.9,28.1v-2.5h2.4v2.5
		H51.9z M51.9,30.5V28h2.4v2.5H51.9z M51.9,33v-2.5h2.4V33H51.9z M51.9,35.5V33h2.4v2.4L51.9,35.5L51.9,35.5z M54.3,35.5v2.4h-2.4
		v-2.4H54.3z M54.3,18.1v-2.4h2.5v2.4H54.3z M54.3,20.6v-2.5h2.5v2.5H54.3z M54.3,23.1v-2.5h2.5v2.5H54.3z M54.3,28.1v-2.5h2.5v2.5
		H54.3z M54.3,30.5V28h2.5v2.5H54.3z M54.3,33v-2.5h2.5V33H54.3z M54.3,35.5V33h2.5v2.4L54.3,35.5L54.3,35.5z M56.8,35.5v2.4h-2.5
		v-2.4H56.8z M56.8,15.7v-2.5h2.5v2.5H56.8z M56.8,18.1v-2.4h2.5v2.4H56.8z M56.8,20.6v-2.5h2.5v2.5H56.8z M56.8,23.1v-2.5h2.5v2.5
		H56.8z M56.8,28.1v-2.5h2.5v2.5H56.8z M56.8,30.5V28h2.5v2.5H56.8z M56.8,33v-2.5h2.5V33H56.8z M56.8,35.5V33h2.5v2.4L56.8,35.5
		L56.8,35.5z M59.3,15.7v-2.5h2.5v2.5H59.3z M59.3,35.5V33h2.5v2.4L59.3,35.5L59.3,35.5z M61.8,35.5v2.4h-2.5v-2.4H61.8z M61.8,15.7
		v-2.5h2.5v2.5H61.8z M61.8,35.5V33h2.5v2.4L61.8,35.5L61.8,35.5z M64.3,35.5v2.4h-2.5v-2.4H64.3z M64.3,15.7v-2.5h2.5v2.5H64.3z
		 M64.3,18.1v-2.4h2.5v2.4H64.3z M64.3,20.6v-2.5h2.5v2.5H64.3z M64.3,23.1v-2.5h2.5v2.5H64.3z M64.3,25.6v-2.5h2.5v2.5H64.3z
		 M64.3,28.1v-2.5h2.5v2.5H64.3z M64.3,30.5V28h2.5v2.5H64.3z M64.3,33v-2.5h2.5V33H64.3z M64.3,35.5V33h2.5v2.4L64.3,35.5
		L64.3,35.5z M66.7,35.5v2.4h-2.5v-2.4H66.7z M66.7,18.1v-2.4h2.4v2.4H66.7z M66.7,20.6v-2.5h2.4v2.5H66.7z M66.7,23.1v-2.5h2.4v2.5
		H66.7z M66.7,25.6v-2.5h2.4v2.5H66.7z M66.7,28.1v-2.5h2.4v2.5H66.7z M66.7,30.5V28h2.4v2.5H66.7z M66.7,33v-2.5h2.4V33H66.7z
		 M66.7,35.5V33h2.4v2.4L66.7,35.5L66.7,35.5z M69.2,35.5v2.4h-2.4v-2.4H69.2z"/>
	<path d="M66.7,15.7v-2.5h2.5v2.5H66.7z M66.7,18.1v-2.4h2.5v2.4H66.7z M66.7,20.6v-2.5h2.5v2.5H66.7z M66.7,23.1v-2.5h2.5v2.5H66.7
		z M66.7,25.6v-2.5h2.5v2.5H66.7z M66.7,28.1v-2.5h2.5v2.5H66.7z M66.7,30.5V28h2.5v2.5H66.7z M66.7,33v-2.5h2.5V33H66.7z
		 M66.7,35.5V33h2.5v2.4L66.7,35.5L66.7,35.5z M69.2,15.7v-2.5h2.5v2.5H69.2z M69.2,35.5V33h2.5v2.4L69.2,35.5L69.2,35.5z
		 M71.7,35.5v2.4h-2.5v-2.4H71.7z M71.7,15.7v-2.5h2.5v2.5H71.7z M71.7,35.5V33h2.5v2.4L71.7,35.5L71.7,35.5z M74.2,35.5v2.4h-2.5
		v-2.4H74.2z M74.2,15.7v-2.5h2.4v2.5H74.2z M74.2,20.6v-2.5h2.4v2.5H74.2z M74.2,23.1v-2.5h2.4v2.5H74.2z M74.2,25.6v-2.5h2.4v2.5
		H74.2z M74.2,30.5V28h2.4v2.5H74.2z M74.2,33v-2.5h2.4V33H74.2z M74.2,35.5V33h2.4v2.4L74.2,35.5L74.2,35.5z M76.6,35.5v2.4h-2.4
		v-2.4H76.6z M76.6,15.7v-2.5h2.5v2.5H76.6z M76.6,20.6v-2.5h2.5v2.5H76.6z M76.6,23.1v-2.5h2.5v2.5H76.6z M76.6,25.6v-2.5h2.5v2.5
		H76.6z M76.6,30.5V28h2.5v2.5H76.6z M76.6,33v-2.5h2.5V33H76.6z M76.6,35.5V33h2.5v2.4L76.6,35.5L76.6,35.5z M79.1,35.5v2.4h-2.5
		v-2.4H79.1z M79.1,15.7v-2.5h2.5v2.5H79.1z M79.1,20.6v-2.5h2.5v2.5H79.1z M79.1,23.1v-2.5h2.5v2.5H79.1z M79.1,25.6v-2.5h2.5v2.5
		H79.1z M79.1,30.5V28h2.5v2.5H79.1z M79.1,33v-2.5h2.5V33H79.1z M81.6,15.7v-2.5h2.5v2.5H81.6z M81.6,30.5V28h2.5v2.5H81.6z
		 M81.6,33v-2.5h2.5V33H81.6z M84.1,15.7v-2.5h2.5v2.5H84.1z M84.1,18.1v-2.4h2.5v2.4H84.1z M84.1,28.1v-2.5h2.5v2.5H84.1z
		 M84.1,30.5V28h2.5v2.5H84.1z M84.1,33v-2.5h2.5V33H84.1z M86.5,18.1v-2.4H89v2.4H86.5z M86.5,20.6v-2.5H89v2.5H86.5z M86.5,23.1
		v-2.5H89v2.5H86.5z M86.5,25.6v-2.5H89v2.5H86.5z M86.5,28.1v-2.5H89v2.5H86.5z M86.5,30.5V28H89v2.5H86.5z M86.5,33v-2.5H89V33
		H86.5z M89,20.6v-2.5h2.4v2.5H89z M89,23.1v-2.5h2.4v2.5H89z M89,25.6v-2.5h2.4v2.5H89z M89,28.1v-2.5h2.4v2.5H89z M89,30.5V28h2.4
		v2.5H89z"/>
	<rect x="106.3" y="33" width="2.5" height="2.4"/>
	<rect x="103.8" y="33" width="2.5" height="2.4"/>
	<rect x="101.4" y="33" width="2.5" height="2.4"/>
	<rect x="98.9" y="33" width="2.5" height="2.4"/>
	<rect x="91.5" y="25.6" width="2.5" height="2.5"/>
	<rect x="96.5" y="33" width="2.4" height="2.4"/>
	<rect x="108.8" y="28.1" width="2.5" height="2.5"/>
	<rect x="108.8" y="20.6" width="2.5" height="2.5"/>
	<rect x="108.8" y="18.1" width="2.5" height="2.5"/>
	<rect x="108.8" y="15.7" width="2.5" height="2.4"/>
	<rect x="108.8" y="23.1" width="2.5" height="2.5"/>
	<rect x="108.8" y="25.6" width="2.5" height="2.5"/>
	<rect x="108.8" y="30.5" width="2.5" height="2.5"/>
	<rect x="94" y="25.6" width="2.5" height="2.5"/>
	<rect x="106.3" y="30.5" width="2.5" height="2.5"/>
	<rect x="101.4" y="20.6" width="2.5" height="2.5"/>
	<rect x="106.3" y="15.7" width="2.5" height="2.4"/>
	<rect x="96.5" y="20.6" width="2.4" height="2.5"/>
	<rect x="96.5" y="25.6" width="2.4" height="2.5"/>
	<rect x="96.5" y="18.1" width="2.4" height="2.5"/>
	<rect x="106.3" y="23.1" width="2.5" height="2.5"/>
	<rect x="98.9" y="18.1" width="2.5" height="2.5"/>
	<rect x="101.4" y="18.1" width="2.5" height="2.5"/>
	<rect x="98.9" y="20.6" width="2.5" height="2.5"/>
	<rect x="101.4" y="25.6" width="2.5" height="2.5"/>
	<rect x="98.9" y="25.6" width="2.5" height="2.5"/>
	<rect x="103.8" y="20.6" width="2.5" height="2.5"/>
	<rect x="101.4" y="28.1" width="2.5" height="2.5"/>
	<rect x="98.9" y="28.1" width="2.5" height="2.5"/>
	<rect x="91.5" y="23.1" width="2.5" height="2.5"/>
	<rect x="96.5" y="28.1" width="2.4" height="2.5"/>
	<rect x="106.3" y="20.6" width="2.5" height="2.5"/>
	<rect x="106.3" y="13.2" width="2.5" height="2.5"/>
	<rect x="108.8" y="33" width="2.5" height="2.4"/>
	<rect x="108.8" y="35.5" width="2.5" height="2.4"/>
	<rect x="101.4" y="35.5" width="2.5" height="2.4"/>
	<rect x="103.8" y="35.5" width="2.5" height="2.4"/>
	<rect x="94" y="35.5" width="2.5" height="2.4"/>
	<rect x="98.9" y="35.5" width="2.5" height="2.4"/>
	<rect x="96.5" y="35.5" width="2.4" height="2.4"/>
	<rect x="111.3" y="28.1" width="2.4" height="2.5"/>
	<rect x="111.3" y="33" width="2.4" height="2.4"/>
	<rect x="111.3" y="20.6" width="2.4" height="2.5"/>
	<rect x="111.3" y="18.1" width="2.4" height="2.5"/>
	<rect x="111.3" y="23.1" width="2.4" height="2.5"/>
	<rect x="111.3" y="30.5" width="2.4" height="2.5"/>
	<rect x="111.3" y="25.6" width="2.4" height="2.5"/>
	<rect x="94" y="33" width="2.5" height="2.4"/>
	<rect x="106.3" y="35.5" width="2.5" height="2.4"/>
	<rect x="91.5" y="13.2" width="2.5" height="2.5"/>
	<rect x="94" y="13.2" width="2.5" height="2.5"/>
	<rect x="89" y="15.7" width="2.5" height="2.4"/>
	<rect x="96.5" y="13.2" width="2.4" height="2.5"/>
	<rect x="91.5" y="15.7" width="2.5" height="2.4"/>
	<rect x="98.9" y="13.2" width="2.5" height="2.5"/>
	<rect x="91.5" y="33" width="2.5" height="2.4"/>
	<rect x="101.4" y="13.2" width="2.5" height="2.5"/>
	<rect x="103.8" y="13.2" width="2.5" height="2.5"/>
	<rect x="89" y="30.5" width="2.5" height="2.5"/>
	<rect x="89" y="28.1" width="2.5" height="2.5"/>
	<rect x="91.5" y="30.5" width="2.5" height="2.5"/>
	<rect x="89" y="23.1" width="2.5" height="2.5"/>
	<rect x="89" y="20.6" width="2.5" height="2.5"/>
	<rect x="89" y="18.1" width="2.5" height="2.5"/>
	<rect x="89" y="25.6" width="2.5" height="2.5"/>
</g>
<g>
	<path class="st5" d="M41.9,42.9c0.1,0.8,0.3,3.2,0.3,5.4v6.2h-2V40.9h3l4.4,11.7c-0.1-0.8-0.3-3-0.3-5.4v-6.2h2v13.7h-3L41.9,42.9z
		"/>
	<path class="st5" d="M57.1,53.1c1,0,1.9-0.3,2.7-0.9l1,1.3c-1,0.8-2.3,1.3-3.8,1.3c-3.3,0-5-2.2-5-5.5c0-3.1,1.8-5.5,4.8-5.5
		c2.8,0,4.5,2,4.5,5.2c0,0.4,0,0.7,0,1h-6.9C54.4,52.2,55.6,53.1,57.1,53.1z M54.2,48.5h4.9c0-2-0.9-3.1-2.3-3.1
		C55.3,45.5,54.4,46.4,54.2,48.5z"/>
	<path class="st5" d="M64.4,53h1.5v-7.3h-1.5v-1.6h3.2l0.4,2.4c0.8-1.8,1.9-2.7,3.7-2.7c0.6,0,1.1,0.1,1.6,0.3l-0.4,3.9h-1.6v-2.1
		c-1.5,0-2.6,1.2-3.2,3.3V53h2.1v1.6h-5.9V53z"/>
	<path class="st5" d="M84.6,39.9v14.7h-2l-0.2-1.3c-0.7,1-1.7,1.6-2.9,1.6c-2.7,0-3.9-2.2-3.9-5.5c0-3.2,1.5-5.5,4.1-5.5
		c1.1,0,2,0.4,2.6,1.1v-5.3L84.6,39.9z M77.9,49.3c0,2.7,0.8,3.8,2.2,3.8c1,0,1.7-0.7,2.3-1.5v-5c-0.5-0.7-1.2-1.2-2.1-1.2
		C78.8,45.5,77.9,46.7,77.9,49.3z"/>
	<path class="st5" d="M94.2,51.7c0-0.8-0.3-1.2-2.5-1.8c-2.1-0.5-3.4-1.3-3.4-3.1c0-1.8,1.6-3,4.2-3c1.8,0,3,0.5,4,1.2l-0.9,1.4
		c-0.8-0.5-1.8-0.9-3-0.9c-1.4,0-2,0.5-2,1.2c0,0.8,0.6,1.1,2.7,1.7c2,0.6,3.4,1.3,3.4,3.3c0,2.3-2.2,3.3-4.6,3.3
		c-1.9,0-3.3-0.6-4.3-1.5l1.2-1.3c0.8,0.7,1.9,1.1,3.1,1.1C93.3,53.1,94.2,52.6,94.2,51.7z"/>
</g>
</svg>
